<svg xmlns="http://www.w3.org/2000/svg" xmlns:xlink="http://www.w3.org/1999/xlink" viewBox="0 0 84.56 119.56"><defs><clipPath id="clip-path" transform="translate(-8 -1.32)"><rect width="99" height="99" style="fill:none"/></clipPath><pattern id="USGS_17A_Arena_volandera" data-name="USGS 17A Arena volandera" width="72" height="72" patternTransform="translate(-25.79 115.43) scale(1.61)" patternUnits="userSpaceOnUse" viewBox="0 0 72 72"><rect width="72" height="72" style="fill:none"/><path d="M66.75,72.37a.34.34,0,0,1-.27-.12.32.32,0,0,1-.1-.25.35.35,0,0,1,.11-.27.4.4,0,0,1,.53,0,.44.44,0,0,1,.11.27.35.35,0,0,1-.13.26A.31.31,0,0,1,66.75,72.37Z" style="fill:#fff"/><path d="M4.25,26.62A.37.37,0,0,1,4,26.51a.43.43,0,0,1-.11-.26A.4.4,0,0,1,4,26a.39.39,0,0,1,.53,0,.43.43,0,0,1,.1.27.42.42,0,0,1-.1.26A.39.39,0,0,1,4.25,26.62Z" style="fill:#fff"/><path d="M7.25,26.62A.37.37,0,0,1,7,26.51a.43.43,0,0,1-.11-.26A.39.39,0,0,1,7.52,26a.43.43,0,0,1,.1.27.42.42,0,0,1-.1.26A.39.39,0,0,1,7.25,26.62Z" style="fill:#fff"/><path d="M10.25,27.12A.37.37,0,0,1,10,27a.44.44,0,0,1-.11-.27.39.39,0,0,1,.12-.26.4.4,0,0,1,.53,0,.37.37,0,0,1,0,.53A.39.39,0,0,1,10.25,27.12Z" style="fill:#fff"/><path d="M11.75,24.62a.36.36,0,0,1-.37-.37.35.35,0,0,1,.11-.27A.4.4,0,0,1,12,24a.41.41,0,0,1,.11.27.41.41,0,0,1-.11.26A.39.39,0,0,1,11.75,24.62Z" style="fill:#fff"/><path d="M8.75,24.62a.37.37,0,0,1-.27-.11.41.41,0,0,1-.11-.26A.39.39,0,0,1,9,24a.43.43,0,0,1,.1.27.4.4,0,0,1-.1.26A.39.39,0,0,1,8.75,24.62Z" style="fill:#fff"/><path d="M5.75,24.12A.37.37,0,0,1,5.48,24a.43.43,0,0,1-.11-.26A.39.39,0,0,1,6,23.48a.43.43,0,0,1,.1.27A.42.42,0,0,1,6,24,.39.39,0,0,1,5.75,24.12Z" style="fill:#fff"/><path d="M6.75,21.62a.39.39,0,0,1-.38-.38A.37.37,0,0,1,6.49,21,.39.39,0,0,1,7,21a.4.4,0,0,1,.1.26.33.33,0,0,1-.12.27A.31.31,0,0,1,6.75,21.62Z" style="fill:#fff"/><path d="M8.75,22.62a.37.37,0,0,1-.27-.11.43.43,0,0,1-.11-.26A.39.39,0,0,1,9,22a.43.43,0,0,1,.1.27.42.42,0,0,1-.1.26A.39.39,0,0,1,8.75,22.62Z" style="fill:#fff"/><path d="M12.75,21.12a.36.36,0,0,1-.37-.37.32.32,0,0,1,.11-.27.38.38,0,0,1,.64.27A.43.43,0,0,1,13,21,.39.39,0,0,1,12.75,21.12Z" style="fill:#fff"/><path d="M54.75,65.62a.37.37,0,0,1-.27-.11.34.34,0,0,1-.1-.26.36.36,0,0,1,.11-.28A.41.41,0,0,1,55,65a.41.41,0,0,1,.11.27.35.35,0,0,1-.13.26A.31.31,0,0,1,54.75,65.62Z" style="fill:#fff"/><path d="M51.25,65.62a.36.36,0,0,1-.26-.11.33.33,0,0,1-.11-.26A.33.33,0,0,1,51,65a.39.39,0,0,1,.53,0,.41.41,0,0,1,.11.27.43.43,0,0,1-.11.26A.39.39,0,0,1,51.25,65.62Z" style="fill:#fff"/><path d="M47.75,55.62a.36.36,0,0,1-.26-.11.31.31,0,0,1-.11-.26.36.36,0,0,1,.11-.28A.41.41,0,0,1,48,55a.41.41,0,0,1,.11.27.33.33,0,0,1-.13.26A.31.31,0,0,1,47.75,55.62Z" style="fill:#fff"/><path d="M9.75,15.12A.37.37,0,0,1,9.48,15a.43.43,0,0,1-.11-.26.4.4,0,0,1,.12-.27.39.39,0,0,1,.53,0A.37.37,0,0,1,10,15,.39.39,0,0,1,9.75,15.12Z" style="fill:#fff"/><path d="M12.75,17.12a.36.36,0,0,1-.37-.37.35.35,0,0,1,.11-.27.4.4,0,0,1,.53,0A.37.37,0,0,1,13,17,.39.39,0,0,1,12.75,17.12Z" style="fill:#fff"/><path d="M14.75,17.12a.37.37,0,0,1-.27-.11.36.36,0,0,1-.1-.27.34.34,0,0,1,.11-.26.39.39,0,0,1,.53,0,.43.43,0,0,1,.11.26A.35.35,0,0,1,15,17,.31.31,0,0,1,14.75,17.12Z" style="fill:#fff"/><path d="M15.75,20.12a.37.37,0,0,1-.27-.11.36.36,0,0,1-.1-.27.33.33,0,0,1,.11-.26.4.4,0,0,1,.53,0,.43.43,0,0,1,.11.26A.35.35,0,0,1,16,20,.31.31,0,0,1,15.75,20.12Z" style="fill:#fff"/><path d="M18.25,14.12A.34.34,0,0,1,18,14a.3.3,0,0,1-.1-.25.35.35,0,0,1,.11-.27.39.39,0,0,1,.53,0,.44.44,0,0,1,.11.27.33.33,0,0,1-.13.26A.31.31,0,0,1,18.25,14.12Z" style="fill:#fff"/><path d="M15.75,14.62a.36.36,0,0,1-.37-.37.35.35,0,0,1,.11-.27A.4.4,0,0,1,16,14a.37.37,0,0,1,0,.53A.39.39,0,0,1,15.75,14.62Z" style="fill:#fff"/><path d="M12.25,15.12A.37.37,0,0,1,12,15a.35.35,0,0,1-.1-.26.35.35,0,0,1,.11-.27.4.4,0,0,1,.53,0,.44.44,0,0,1,.11.27.41.41,0,0,1-.11.26A.39.39,0,0,1,12.25,15.12Z" style="fill:#fff"/><path d="M10.25,12.62a.37.37,0,0,1-.27-.11.44.44,0,0,1-.11-.27A.39.39,0,0,1,10,12a.4.4,0,0,1,.53,0,.37.37,0,0,1,0,.53A.39.39,0,0,1,10.25,12.62Z" style="fill:#fff"/><path d="M9.75,10.12A.37.37,0,0,1,9.48,10a.43.43,0,0,1-.11-.26A.39.39,0,0,1,10,9.48.37.37,0,0,1,10,10,.39.39,0,0,1,9.75,10.12Z" style="fill:#fff"/><path d="M11.25,10.62a.36.36,0,0,1-.37-.37A.32.32,0,0,1,11,10a.38.38,0,0,1,.64.27.43.43,0,0,1-.11.26A.39.39,0,0,1,11.25,10.62Z" style="fill:#fff"/><path d="M13.75,12.12a.37.37,0,0,1-.27-.11.36.36,0,0,1-.1-.27.33.33,0,0,1,.11-.26.4.4,0,0,1,.53,0,.41.41,0,0,1,.11.26A.35.35,0,0,1,14,12,.31.31,0,0,1,13.75,12.12Z" style="fill:#fff"/><path d="M14.25,9.12a.36.36,0,0,1-.37-.37A.32.32,0,0,1,14,8.48a.38.38,0,0,1,.64.27.43.43,0,0,1-.11.26A.39.39,0,0,1,14.25,9.12Z" style="fill:#fff"/><path d="M16.75,10.12a.36.36,0,0,1-.37-.37.35.35,0,0,1,.11-.27.4.4,0,0,1,.53,0,.44.44,0,0,1,.11.27A.41.41,0,0,1,17,10,.39.39,0,0,1,16.75,10.12Z" style="fill:#fff"/><path d="M19.25,11.12a.36.36,0,0,1-.37-.37.33.33,0,0,1,.11-.27.4.4,0,0,1,.53,0,.41.41,0,0,1,.11.27.43.43,0,0,1-.11.26A.39.39,0,0,1,19.25,11.12Z" style="fill:#fff"/><path d="M18.75,7.12a.36.36,0,0,1-.37-.37.33.33,0,0,1,.11-.27.4.4,0,0,1,.53,0,.41.41,0,0,1,.11.27A.43.43,0,0,1,19,7,.39.39,0,0,1,18.75,7.12Z" style="fill:#fff"/><path d="M16.25,7.62a.36.36,0,0,1-.37-.37A.35.35,0,0,1,16,7a.4.4,0,0,1,.53,0,.37.37,0,0,1,0,.53A.39.39,0,0,1,16.25,7.62Z" style="fill:#fff"/><path d="M13.75,7.62a.37.37,0,0,1-.27-.11.35.35,0,0,1-.1-.26A.33.33,0,0,1,13.49,7,.4.4,0,0,1,14,7a.41.41,0,0,1,.11.27.41.41,0,0,1-.11.26A.39.39,0,0,1,13.75,7.62Z" style="fill:#fff"/><path d="M13.25,4.12a.36.36,0,0,1-.37-.37A.35.35,0,0,1,13,3.48a.4.4,0,0,1,.53,0,.41.41,0,0,1,.11.27.41.41,0,0,1-.11.26A.39.39,0,0,1,13.25,4.12Z" style="fill:#fff"/><path d="M16.25,5.12a.36.36,0,0,1-.37-.37A.35.35,0,0,1,16,4.48a.4.4,0,0,1,.53,0,.44.44,0,0,1,.11.27.43.43,0,0,1-.11.26A.39.39,0,0,1,16.25,5.12Z" style="fill:#fff"/><path d="M20.25,5.12A.37.37,0,0,1,20,5a.38.38,0,0,1-.1-.27A.33.33,0,0,1,20,4.48a.4.4,0,0,1,.53,0,.41.41,0,0,1,.11.26.44.44,0,0,1-.11.27A.39.39,0,0,1,20.25,5.12Z" style="fill:#fff"/><path d="M22.25,8.12A.37.37,0,0,1,22,8a.35.35,0,0,1-.1-.26A.33.33,0,0,1,22,7.48a.4.4,0,0,1,.53,0,.37.37,0,0,1,0,.53A.39.39,0,0,1,22.25,8.12Z" style="fill:#fff"/><path d="M20.25,3.62A.37.37,0,0,1,20,3.51a.35.35,0,0,1-.1-.26A.33.33,0,0,1,20,3a.4.4,0,0,1,.53,0,.41.41,0,0,1,.11.27.41.41,0,0,1-.11.26A.39.39,0,0,1,20.25,3.62Z" style="fill:#fff"/><path d="M22.25,2.62A.37.37,0,0,1,22,2.51a.35.35,0,0,1-.1-.26A.32.32,0,0,1,22,2a.4.4,0,0,1,.53,0,.41.41,0,0,1,.11.27.43.43,0,0,1-.11.26A.39.39,0,0,1,22.25,2.62Z" style="fill:#fff"/><path d="M23.25,5.62A.37.37,0,0,1,23,5.51a.36.36,0,0,1-.1-.27A.33.33,0,0,1,23,5a.4.4,0,0,1,.53,0,.37.37,0,0,1,0,.53A.39.39,0,0,1,23.25,5.62Z" style="fill:#fff"/><path d="M24.75,9.12A.36.36,0,0,1,24.49,9a.34.34,0,0,1-.11-.26.32.32,0,0,1,.11-.27.38.38,0,0,1,.64.27A.43.43,0,0,1,25,9,.4.4,0,0,1,24.75,9.12Z" style="fill:#fff"/><path d="M26.25,7.12A.37.37,0,0,1,26,7a.35.35,0,0,1-.1-.26A.32.32,0,0,1,26,6.48a.4.4,0,0,1,.53,0,.41.41,0,0,1,.11.27.41.41,0,0,1-.11.26A.39.39,0,0,1,26.25,7.12Z" style="fill:#fff"/><path d="M25.25,10.62a.36.36,0,0,1-.26-.11.33.33,0,0,1-.11-.26A.32.32,0,0,1,25,10a.39.39,0,0,1,.53,0,.41.41,0,0,1,.11.27.41.41,0,0,1-.11.26A.39.39,0,0,1,25.25,10.62Z" style="fill:#fff"/><path d="M27.25,9.62A.37.37,0,0,1,27,9.51a.36.36,0,0,1-.1-.27A.33.33,0,0,1,27,9a.4.4,0,0,1,.53,0,.41.41,0,0,1,.11.26.44.44,0,0,1-.11.27A.39.39,0,0,1,27.25,9.62Z" style="fill:#fff"/><path d="M26.75,12.62a.37.37,0,0,1-.27-.11.35.35,0,0,1-.1-.27.33.33,0,0,1,.11-.26A.4.4,0,0,1,27,12a.43.43,0,0,1,.11.26.35.35,0,0,1-.13.27A.31.31,0,0,1,26.75,12.62Z" style="fill:#fff"/><path d="M28.75,11.12a.36.36,0,0,1-.26-.11.33.33,0,0,1-.11-.26.33.33,0,0,1,.11-.27.39.39,0,0,1,.53,0A.37.37,0,0,1,29,11,.39.39,0,0,1,28.75,11.12Z" style="fill:#fff"/><path d="M27.75,14.12a.36.36,0,0,1-.26-.11.33.33,0,0,1-.11-.27.33.33,0,0,1,.11-.26.39.39,0,0,1,.53,0,.41.41,0,0,1,.11.26A.44.44,0,0,1,28,14,.39.39,0,0,1,27.75,14.12Z" style="fill:#fff"/><path d="M26.75,15.62a.37.37,0,0,1-.27-.11.34.34,0,0,1-.1-.26.33.33,0,0,1,.11-.27A.39.39,0,0,1,27,15a.44.44,0,0,1,.11.27.33.33,0,0,1-.13.26A.31.31,0,0,1,26.75,15.62Z" style="fill:#fff"/><path d="M25.75,18.62a.37.37,0,0,1-.27-.11.38.38,0,0,1-.1-.27.34.34,0,0,1,.11-.26A.39.39,0,0,1,26,18a.37.37,0,0,1,0,.53A.39.39,0,0,1,25.75,18.62Z" style="fill:#fff"/><path d="M28.25,18.12a.36.36,0,0,1-.37-.37.35.35,0,0,1,.11-.27.4.4,0,0,1,.53,0,.41.41,0,0,1,.11.27.43.43,0,0,1-.11.26A.39.39,0,0,1,28.25,18.12Z" style="fill:#fff"/><path d="M24.75,21.12a.37.37,0,0,1-.27-.11.36.36,0,0,1-.1-.27.33.33,0,0,1,.11-.26.4.4,0,0,1,.53,0,.41.41,0,0,1,.11.26A.44.44,0,0,1,25,21,.39.39,0,0,1,24.75,21.12Z" style="fill:#fff"/><path d="M25.75,18.62a.37.37,0,0,1-.27-.11.38.38,0,0,1-.1-.27.34.34,0,0,1,.11-.26A.39.39,0,0,1,26,18a.37.37,0,0,1,0,.53A.39.39,0,0,1,25.75,18.62Z" style="fill:#fff"/><path d="M26.25,21.62a.36.36,0,0,1-.37-.37A.33.33,0,0,1,26,21a.4.4,0,0,1,.53,0,.37.37,0,0,1,0,.53A.39.39,0,0,1,26.25,21.62Z" style="fill:#fff"/><path d="M23.25,22.12A.37.37,0,0,1,23,22a.35.35,0,0,1-.1-.26.33.33,0,0,1,.11-.27.39.39,0,0,1,.53,0,.37.37,0,0,1,0,.53A.39.39,0,0,1,23.25,22.12Z" style="fill:#fff"/><path d="M24.75,24.12a.37.37,0,0,1-.27-.11.35.35,0,0,1-.1-.26.32.32,0,0,1,.11-.27.4.4,0,0,1,.53,0,.41.41,0,0,1,.11.27A.41.41,0,0,1,25,24,.39.39,0,0,1,24.75,24.12Z" style="fill:#fff"/><path d="M21.25,23.62a.37.37,0,0,1-.27-.11.38.38,0,0,1-.1-.27A.33.33,0,0,1,21,23a.4.4,0,0,1,.53,0,.41.41,0,0,1,.11.26.44.44,0,0,1-.11.27A.39.39,0,0,1,21.25,23.62Z" style="fill:#fff"/><path d="M22.25,26.12a.36.36,0,0,1-.37-.37.33.33,0,0,1,.11-.27.4.4,0,0,1,.53,0,.37.37,0,0,1,0,.53A.39.39,0,0,1,22.25,26.12Z" style="fill:#fff"/><path d="M19.75,26.12a.34.34,0,0,1-.27-.12.3.3,0,0,1-.1-.25.35.35,0,0,1,.11-.27.4.4,0,0,1,.53,0,.41.41,0,0,1,.11.27A.33.33,0,0,1,20,26,.31.31,0,0,1,19.75,26.12Z" style="fill:#fff"/><path d="M17.75,28.62a.37.37,0,0,1-.27-.11.35.35,0,0,1-.1-.26.33.33,0,0,1,.11-.27A.4.4,0,0,1,18,28a.41.41,0,0,1,.11.27.41.41,0,0,1-.11.26A.39.39,0,0,1,17.75,28.62Z" style="fill:#fff"/><path d="M29.75,26.12a.36.36,0,0,1-.26-.11.33.33,0,0,1-.11-.26.32.32,0,0,1,.11-.27.39.39,0,0,1,.53,0,.41.41,0,0,1,.11.27A.43.43,0,0,1,30,26,.39.39,0,0,1,29.75,26.12Z" style="fill:#fff"/><path d="M31.75,26.62a.36.36,0,0,1-.26-.11.31.31,0,0,1-.11-.26.32.32,0,0,1,.11-.27A.39.39,0,0,1,32,26a.41.41,0,0,1,.11.27.33.33,0,0,1-.13.26A.31.31,0,0,1,31.75,26.62Z" style="fill:#fff"/><path d="M30.25,24.62a.36.36,0,0,1-.26-.11.33.33,0,0,1-.11-.26A.32.32,0,0,1,30,24a.39.39,0,0,1,.53,0,.41.41,0,0,1,.11.27.41.41,0,0,1-.11.26A.39.39,0,0,1,30.25,24.62Z" style="fill:#fff"/><path d="M33.25,24.62a.36.36,0,0,1-.26-.11.33.33,0,0,1-.11-.26A.33.33,0,0,1,33,24a.39.39,0,0,1,.53,0,.37.37,0,0,1,0,.53A.39.39,0,0,1,33.25,24.62Z" style="fill:#fff"/><path d="M31.25,21.62a.37.37,0,0,1-.27-.11.34.34,0,0,1-.1-.26A.32.32,0,0,1,31,21a.38.38,0,0,1,.64.27.37.37,0,0,1-.13.27A.34.34,0,0,1,31.25,21.62Z" style="fill:#fff"/><path d="M33.75,22.62a.36.36,0,0,1-.26-.11.35.35,0,0,1-.11-.27.33.33,0,0,1,.11-.26A.39.39,0,0,1,34,22a.37.37,0,0,1,0,.53A.39.39,0,0,1,33.75,22.62Z" style="fill:#fff"/><path d="M36.75,22.12a.36.36,0,0,1-.26-.11.35.35,0,0,1-.11-.27.33.33,0,0,1,.11-.26.39.39,0,0,1,.53,0A.37.37,0,0,1,37,22,.39.39,0,0,1,36.75,22.12Z" style="fill:#fff"/><path d="M37.75,25.62a.36.36,0,0,1-.26-.11.33.33,0,0,1-.11-.26.33.33,0,0,1,.11-.27A.39.39,0,0,1,38,25a.37.37,0,0,1,0,.53A.39.39,0,0,1,37.75,25.62Z" style="fill:#fff"/><path d="M39.25,22.12A.36.36,0,0,1,39,22a.33.33,0,0,1-.11-.27.33.33,0,0,1,.11-.26.39.39,0,0,1,.53,0,.37.37,0,0,1,0,.53A.39.39,0,0,1,39.25,22.12Z" style="fill:#fff"/><path d="M36.25,20.62a.36.36,0,0,1-.26-.11.33.33,0,0,1-.11-.26A.33.33,0,0,1,36,20a.39.39,0,0,1,.53,0,.37.37,0,0,1,0,.53A.39.39,0,0,1,36.25,20.62Z" style="fill:#fff"/><path d="M34.25,18.12A.36.36,0,0,1,34,18a.33.33,0,0,1-.11-.27.33.33,0,0,1,.11-.26.39.39,0,0,1,.53,0,.41.41,0,0,1,.11.26.44.44,0,0,1-.11.27A.39.39,0,0,1,34.25,18.12Z" style="fill:#fff"/><path d="M38.25,17.62a.36.36,0,0,1-.26-.11.33.33,0,0,1-.11-.26A.33.33,0,0,1,38,17a.39.39,0,0,1,.53,0,.37.37,0,0,1,0,.53A.39.39,0,0,1,38.25,17.62Z" style="fill:#fff"/><path d="M35.75,16.12a.37.37,0,0,1-.27-.11.35.35,0,0,1-.1-.26.33.33,0,0,1,.11-.27.4.4,0,0,1,.53,0,.41.41,0,0,1,.11.27A.41.41,0,0,1,36,16,.39.39,0,0,1,35.75,16.12Z" style="fill:#fff"/><path d="M39.25,14.62a.36.36,0,0,1-.26-.11.31.31,0,0,1-.11-.26A.32.32,0,0,1,39,14a.39.39,0,0,1,.53,0,.41.41,0,0,1,.11.27.33.33,0,0,1-.13.26A.31.31,0,0,1,39.25,14.62Z" style="fill:#fff"/><path d="M40.25,12.62a.36.36,0,0,1-.26-.11.33.33,0,0,1-.11-.26A.35.35,0,0,1,40,12a.39.39,0,0,1,.53,0,.37.37,0,0,1,0,.53A.39.39,0,0,1,40.25,12.62Z" style="fill:#fff"/><path d="M39.75,10.12a.36.36,0,0,1-.26-.11.35.35,0,0,1-.11-.27.33.33,0,0,1,.11-.26.39.39,0,0,1,.53,0A.37.37,0,0,1,40,10,.39.39,0,0,1,39.75,10.12Z" style="fill:#fff"/><path d="M41.75,10.12a.36.36,0,0,1-.26-.11.33.33,0,0,1-.11-.26.33.33,0,0,1,.11-.27.39.39,0,0,1,.53,0A.37.37,0,0,1,42,10,.39.39,0,0,1,41.75,10.12Z" style="fill:#fff"/><path d="M43.75,8.12A.36.36,0,0,1,43.49,8a.33.33,0,0,1-.11-.26.35.35,0,0,1,.11-.27.39.39,0,0,1,.53,0A.37.37,0,0,1,44,8,.39.39,0,0,1,43.75,8.12Z" style="fill:#fff"/><path d="M41.25,7.12A.36.36,0,0,1,41,7a.33.33,0,0,1-.11-.26A.35.35,0,0,1,41,6.48a.39.39,0,0,1,.53,0,.37.37,0,0,1,0,.53A.39.39,0,0,1,41.25,7.12Z" style="fill:#fff"/><path d="M42.25,4.12A.36.36,0,0,1,42,4a.33.33,0,0,1-.11-.26A.33.33,0,0,1,42,3.48a.39.39,0,0,1,.53,0,.41.41,0,0,1,.11.27.41.41,0,0,1-.11.26A.39.39,0,0,1,42.25,4.12Z" style="fill:#fff"/><path d="M46.75,6.62a.36.36,0,0,1-.26-.11.33.33,0,0,1-.11-.26A.35.35,0,0,1,46.49,6,.4.4,0,0,1,47,6a.37.37,0,0,1,0,.53A.4.4,0,0,1,46.75,6.62Z" style="fill:#fff"/><path d="M47.75,4.12A.36.36,0,0,1,47.49,4a.33.33,0,0,1-.11-.27.33.33,0,0,1,.11-.26.39.39,0,0,1,.53,0,.43.43,0,0,1,.11.26A.44.44,0,0,1,48,4,.39.39,0,0,1,47.75,4.12Z" style="fill:#fff"/><path d="M45.25,2.62A.36.36,0,0,1,45,2.51a.33.33,0,0,1-.11-.26A.33.33,0,0,1,45,2a.39.39,0,0,1,.53,0,.44.44,0,0,1,.11.27.43.43,0,0,1-.11.26A.39.39,0,0,1,45.25,2.62Z" style="fill:#fff"/><path d="M48.25,9.62A.36.36,0,0,1,48,9.51a.33.33,0,0,1-.11-.27A.33.33,0,0,1,48,9a.39.39,0,0,1,.53,0,.41.41,0,0,1,.11.26.44.44,0,0,1-.11.27A.39.39,0,0,1,48.25,9.62Z" style="fill:#fff"/><path d="M49.75,6.62a.38.38,0,0,1-.26-.11.33.33,0,0,1-.11-.26A.33.33,0,0,1,49.49,6,.39.39,0,0,1,50,6a.37.37,0,0,1,0,.53A.4.4,0,0,1,49.75,6.62Z" style="fill:#fff"/><path d="M52.25,9.62a.38.38,0,0,1-.37-.38A.37.37,0,0,1,52,9a.4.4,0,0,1,.54,0,.37.37,0,0,1,0,.53A.39.39,0,0,1,52.25,9.62Z" style="fill:#fff"/><path d="M49.25,11.62a.36.36,0,0,1-.26-.11.34.34,0,0,1-.11-.26A.35.35,0,0,1,49,11a.39.39,0,0,1,.53,0,.41.41,0,0,1,.11.27.35.35,0,0,1-.13.26A.31.31,0,0,1,49.25,11.62Z" style="fill:#fff"/><path d="M51.75,13.12a.36.36,0,0,1-.26-.11.33.33,0,0,1-.11-.26.33.33,0,0,1,.11-.27.39.39,0,0,1,.53,0A.37.37,0,0,1,52,13,.39.39,0,0,1,51.75,13.12Z" style="fill:#fff"/><path d="M47.75,13.12a.36.36,0,0,1-.26-.11.31.31,0,0,1-.11-.26.36.36,0,0,1,.11-.28.41.41,0,0,1,.53,0,.41.41,0,0,1,.11.27A.33.33,0,0,1,48,13,.31.31,0,0,1,47.75,13.12Z" style="fill:#fff"/><path d="M50.25,14.62a.36.36,0,0,1-.26-.11.34.34,0,0,1-.11-.26A.35.35,0,0,1,50,14a.4.4,0,0,1,.53,0,.37.37,0,0,1,0,.53A.4.4,0,0,1,50.25,14.62Z" style="fill:#fff"/><path d="M10.75,69.62a.36.36,0,0,1-.37-.37.35.35,0,0,1,.11-.27A.4.4,0,0,1,11,69a.37.37,0,0,1,0,.53A.39.39,0,0,1,10.75,69.62Z" style="fill:#fff"/><path d="M11.75,66.62a.37.37,0,0,1-.27-.11.36.36,0,0,1-.1-.27.33.33,0,0,1,.11-.26A.4.4,0,0,1,12,66a.41.41,0,0,1,.11.26.34.34,0,0,1-.13.27A.31.31,0,0,1,11.75,66.62Z" style="fill:#fff"/><path d="M46.75,20.62a.36.36,0,0,1-.37-.37.35.35,0,0,1,.11-.27A.4.4,0,0,1,47,20a.37.37,0,0,1,0,.53A.39.39,0,0,1,46.75,20.62Z" style="fill:#fff"/><path d="M44.75,19.12a.36.36,0,0,1-.26-.11.33.33,0,0,1-.11-.26.33.33,0,0,1,.11-.27.39.39,0,0,1,.53,0A.37.37,0,0,1,45,19,.39.39,0,0,1,44.75,19.12Z" style="fill:#fff"/><path d="M44.75,21.62a.36.36,0,0,1-.26-.11.33.33,0,0,1-.11-.26.35.35,0,0,1,.11-.27A.39.39,0,0,1,45,21a.37.37,0,0,1,0,.53A.39.39,0,0,1,44.75,21.62Z" style="fill:#fff"/><path d="M53.75,23.12a.37.37,0,0,1-.27-.11.34.34,0,0,1-.1-.26.32.32,0,0,1,.11-.27.38.38,0,0,1,.64.27A.33.33,0,0,1,54,23,.31.31,0,0,1,53.75,23.12Z" style="fill:#fff"/><path d="M45.25,24.12A.36.36,0,0,1,45,24a.31.31,0,0,1-.11-.26.32.32,0,0,1,.11-.27.39.39,0,0,1,.53,0,.41.41,0,0,1,.11.27.33.33,0,0,1-.13.26A.31.31,0,0,1,45.25,24.12Z" style="fill:#fff"/><path d="M48.25,26.12A.36.36,0,0,1,48,26a.33.33,0,0,1-.11-.26.33.33,0,0,1,.11-.27.39.39,0,0,1,.53,0,.41.41,0,0,1,.11.27.41.41,0,0,1-.11.26A.39.39,0,0,1,48.25,26.12Z" style="fill:#fff"/><path d="M56.25,21.62A.34.34,0,0,1,56,21.5a.3.3,0,0,1-.1-.25A.33.33,0,0,1,56,21a.4.4,0,0,1,.53,0,.41.41,0,0,1,.11.27.33.33,0,0,1-.13.26A.31.31,0,0,1,56.25,21.62Z" style="fill:#fff"/><path d="M53.75,19.62a.34.34,0,0,1-.27-.12.32.32,0,0,1-.1-.25.35.35,0,0,1,.11-.27A.4.4,0,0,1,54,19a.44.44,0,0,1,.11.27.35.35,0,0,1-.13.26A.31.31,0,0,1,53.75,19.62Z" style="fill:#fff"/><path d="M54.25,16.62A.34.34,0,0,1,54,16.5a.3.3,0,0,1-.1-.25A.33.33,0,0,1,54,16a.39.39,0,0,1,.53,0,.41.41,0,0,1,.11.27.33.33,0,0,1-.13.26A.33.33,0,0,1,54.25,16.62Z" style="fill:#fff"/><path d="M57.75,17.62a.36.36,0,0,1-.26-.11.31.31,0,0,1-.11-.26.35.35,0,0,1,.11-.27A.39.39,0,0,1,58,17a.44.44,0,0,1,.11.27.33.33,0,0,1-.13.26A.31.31,0,0,1,57.75,17.62Z" style="fill:#fff"/><path d="M57.25,14.62a.36.36,0,0,1-.26-.11.31.31,0,0,1-.11-.26A.36.36,0,0,1,57,14a.41.41,0,0,1,.53,0,.39.39,0,0,1,.11.27.35.35,0,0,1-.13.26A.31.31,0,0,1,57.25,14.62Z" style="fill:#fff"/><path d="M14.75,68.12a.37.37,0,0,1-.27-.11.36.36,0,0,1-.1-.27.33.33,0,0,1,.11-.26.39.39,0,0,1,.53,0,.41.41,0,0,1,.11.26A.35.35,0,0,1,15,68,.31.31,0,0,1,14.75,68.12Z" style="fill:#fff"/><path d="M14.25,70.12a.36.36,0,0,1-.37-.37.35.35,0,0,1,.11-.27.4.4,0,0,1,.53,0,.41.41,0,0,1,.11.27.41.41,0,0,1-.11.26A.39.39,0,0,1,14.25,70.12Z" style="fill:#fff"/><path d="M60.75,8.12A.36.36,0,0,1,60.49,8a.34.34,0,0,1-.11-.26.38.38,0,0,1,.1-.27.4.4,0,0,1,.54,0,.41.41,0,0,1,.11.27A.43.43,0,0,1,61,8,.39.39,0,0,1,60.75,8.12Z" style="fill:#fff"/><path d="M57.25,5.12A.38.38,0,0,1,57,5a.33.33,0,0,1-.11-.26A.33.33,0,0,1,57,4.48a.39.39,0,0,1,.53,0,.44.44,0,0,1,.11.27.41.41,0,0,1-.11.26A.4.4,0,0,1,57.25,5.12Z" style="fill:#fff"/><path d="M61.25,4.12a.38.38,0,0,1-.37-.38.37.37,0,0,1,.1-.26.36.36,0,0,1,.52,0,.35.35,0,0,1,.13.26.41.41,0,0,1-.11.27A.39.39,0,0,1,61.25,4.12Z" style="fill:#fff"/><path d="M57.25,2.12A.36.36,0,0,1,57,2a.33.33,0,0,1-.11-.26A.33.33,0,0,1,57,1.48a.39.39,0,0,1,.53,0,.41.41,0,0,1,.11.27.41.41,0,0,1-.11.26A.39.39,0,0,1,57.25,2.12Z" style="fill:#fff"/><path d="M65.25,8.62A.37.37,0,0,1,65,8.51a.38.38,0,0,1-.1-.27A.31.31,0,0,1,65,8a.4.4,0,0,1,.53,0,.39.39,0,0,1,.11.26.44.44,0,0,1-.11.27A.39.39,0,0,1,65.25,8.62Z" style="fill:#fff"/><path d="M68.25,9.12A.34.34,0,0,1,68,9a.3.3,0,0,1-.1-.25A.35.35,0,0,1,68,8.48a.4.4,0,0,1,.53,0,.44.44,0,0,1,.11.27A.33.33,0,0,1,68.5,9,.31.31,0,0,1,68.25,9.12Z" style="fill:#fff"/><path d="M68.25,5.12A.37.37,0,0,1,68,5a.34.34,0,0,1-.1-.26A.33.33,0,0,1,68,4.48a.4.4,0,0,1,.53,0,.41.41,0,0,1,.11.27A.33.33,0,0,1,68.5,5,.31.31,0,0,1,68.25,5.12Z" style="fill:#fff"/><path d="M66.75,13.12a.36.36,0,0,1-.37-.37.33.33,0,0,1,.11-.27.4.4,0,0,1,.53,0,.41.41,0,0,1,.11.27A.43.43,0,0,1,67,13,.39.39,0,0,1,66.75,13.12Z" style="fill:#fff"/><path d="M67.25,16.12a.36.36,0,0,1-.37-.37.33.33,0,0,1,.11-.27.4.4,0,0,1,.53,0,.41.41,0,0,1,.11.27.43.43,0,0,1-.11.26A.39.39,0,0,1,67.25,16.12Z" style="fill:#fff"/><path d="M65.25,19.12a.36.36,0,0,1-.37-.37.35.35,0,0,1,.11-.27.4.4,0,0,1,.53,0,.37.37,0,0,1,0,.53A.39.39,0,0,1,65.25,19.12Z" style="fill:#fff"/><path d="M68.75,22.12a.37.37,0,0,1-.27-.11.36.36,0,0,1-.1-.27.33.33,0,0,1,.11-.26.39.39,0,0,1,.53,0A.37.37,0,0,1,69,22,.37.37,0,0,1,68.75,22.12Z" style="fill:#fff"/><path d="M65.25,23.62a.36.36,0,0,1-.37-.37A.35.35,0,0,1,65,23a.4.4,0,0,1,.53,0,.37.37,0,0,1,0,.53A.39.39,0,0,1,65.25,23.62Z" style="fill:#fff"/><path d="M67.25,25.12A.37.37,0,0,1,67,25a.38.38,0,0,1-.1-.27.31.31,0,0,1,.11-.26.4.4,0,0,1,.53,0,.41.41,0,0,1,.11.26.44.44,0,0,1-.11.27A.39.39,0,0,1,67.25,25.12Z" style="fill:#fff"/><path d="M61.75,13.62a.36.36,0,0,1-.26-.11.35.35,0,0,1-.11-.27.34.34,0,0,1,.11-.26.38.38,0,0,1,.64.26.41.41,0,0,1-.11.27A.39.39,0,0,1,61.75,13.62Z" style="fill:#fff"/><path d="M57.25,14.62a.36.36,0,0,1-.26-.11.31.31,0,0,1-.11-.26A.36.36,0,0,1,57,14a.41.41,0,0,1,.53,0,.39.39,0,0,1,.11.27.35.35,0,0,1-.13.26A.31.31,0,0,1,57.25,14.62Z" style="fill:#fff"/><path d="M30,15.12a.37.37,0,0,1-.27-.11.34.34,0,0,1-.1-.26.33.33,0,0,1,.11-.27.39.39,0,0,1,.53,0,.41.41,0,0,1,.11.27.33.33,0,0,1-.13.26A.31.31,0,0,1,30,15.12Z" style="fill:#fff"/><path d="M30.75,2.62a.36.36,0,0,1-.26-.11.32.32,0,0,1-.11-.27A.33.33,0,0,1,30.49,2,.39.39,0,0,1,31,2a.43.43,0,0,1,.11.26.35.35,0,0,1-.13.27A.31.31,0,0,1,30.75,2.62Z" style="fill:#fff"/><path d="M34.75,3.12A.36.36,0,0,1,34.49,3a.33.33,0,0,1-.11-.26.33.33,0,0,1,.11-.27.39.39,0,0,1,.53,0,.44.44,0,0,1,.11.27A.43.43,0,0,1,35,3,.39.39,0,0,1,34.75,3.12Z" style="fill:#fff"/><path d="M32.25,4.12A.36.36,0,0,1,32,4a.33.33,0,0,1-.11-.26A.33.33,0,0,1,32,3.48a.39.39,0,0,1,.53,0,.44.44,0,0,1,.11.27.43.43,0,0,1-.11.26A.39.39,0,0,1,32.25,4.12Z" style="fill:#fff"/><path d="M30.25,5.12A.36.36,0,0,1,30,5a.33.33,0,0,1-.11-.27A.33.33,0,0,1,30,4.48a.39.39,0,0,1,.53,0,.41.41,0,0,1,.11.26.44.44,0,0,1-.11.27A.39.39,0,0,1,30.25,5.12Z" style="fill:#fff"/><path d="M34.75,5.12A.36.36,0,0,1,34.49,5a.31.31,0,0,1-.11-.26.32.32,0,0,1,.11-.27.39.39,0,0,1,.53,0,.41.41,0,0,1,.11.27A.33.33,0,0,1,35,5,.31.31,0,0,1,34.75,5.12Z" style="fill:#fff"/><path d="M37.25,4.62A.36.36,0,0,1,37,4.51a.33.33,0,0,1-.11-.26A.33.33,0,0,1,37,4a.39.39,0,0,1,.53,0,.41.41,0,0,1,.11.27.41.41,0,0,1-.11.26A.39.39,0,0,1,37.25,4.62Z" style="fill:#fff"/><path d="M35.75,7.62a.37.37,0,0,1-.27-.11.4.4,0,0,1,0-.54A.41.41,0,0,1,36,7a.39.39,0,0,1,.11.27.43.43,0,0,1-.11.26A.39.39,0,0,1,35.75,7.62Z" style="fill:#fff"/><path d="M33.25,8.12A.36.36,0,0,1,33,8a.33.33,0,0,1-.11-.26A.33.33,0,0,1,33,7.48a.39.39,0,0,1,.53,0,.37.37,0,0,1,0,.53A.39.39,0,0,1,33.25,8.12Z" style="fill:#fff"/><path d="M33.75,11.12a.36.36,0,0,1-.26-.11.33.33,0,0,1-.11-.26.33.33,0,0,1,.11-.27.39.39,0,0,1,.53,0A.37.37,0,0,1,34,11,.39.39,0,0,1,33.75,11.12Z" style="fill:#fff"/><path d="M32.25,13.12A.36.36,0,0,1,32,13a.33.33,0,0,1-.11-.27.33.33,0,0,1,.11-.26.39.39,0,0,1,.53,0,.37.37,0,0,1,0,.53A.39.39,0,0,1,32.25,13.12Z" style="fill:#fff"/><path d="M3.25,3.62A.37.37,0,0,1,3,3.51a.43.43,0,0,1-.11-.26A.39.39,0,0,1,3.52,3a.43.43,0,0,1,.1.27.42.42,0,0,1-.1.26A.39.39,0,0,1,3.25,3.62Z" style="fill:#fff"/><path d="M6.75,2.12A.36.36,0,0,1,6.49,2a.37.37,0,0,1-.12-.26.38.38,0,0,1,.12-.27.39.39,0,0,1,.53,0,.41.41,0,0,1,.1.27A.4.4,0,0,1,7,2,.39.39,0,0,1,6.75,2.12Z" style="fill:#fff"/><path d="M9.25,3.62A.34.34,0,0,1,9,3.5a.38.38,0,0,1-.11-.25A.38.38,0,0,1,9,3a.4.4,0,0,1,.53,0,.41.41,0,0,1,.1.27.42.42,0,0,1-.1.26A.39.39,0,0,1,9.25,3.62Z" style="fill:#fff"/><path d="M4.75,5.12A.37.37,0,0,1,4.48,5a.44.44,0,0,1-.11-.27A.39.39,0,0,1,5,4.48a.42.42,0,0,1,.1.26A.43.43,0,0,1,5,5,.39.39,0,0,1,4.75,5.12Z" style="fill:#fff"/><path d="M3.25,9.62A.37.37,0,0,1,3,9.51a.43.43,0,0,1-.11-.26A.39.39,0,0,1,3.52,9a.43.43,0,0,1,.1.27.42.42,0,0,1-.1.26A.39.39,0,0,1,3.25,9.62Z" style="fill:#fff"/><path d="M5.75,10.12A.37.37,0,0,1,5.48,10a.43.43,0,0,1-.11-.26A.39.39,0,0,1,6,9.48a.43.43,0,0,1,.1.27A.42.42,0,0,1,6,10,.39.39,0,0,1,5.75,10.12Z" style="fill:#fff"/><path d="M7.25,6.62A.37.37,0,0,1,7,6.51a.41.41,0,0,1-.11-.26A.39.39,0,0,1,7.52,6a.43.43,0,0,1,.1.27.4.4,0,0,1-.1.26A.39.39,0,0,1,7.25,6.62Z" style="fill:#fff"/><path d="M2.25,12.12A.36.36,0,0,1,2,12a.39.39,0,0,1-.12-.26A.44.44,0,0,1,2,11.48a.4.4,0,0,1,.54,0,.43.43,0,0,1,.1.27.4.4,0,0,1-.1.26A.39.39,0,0,1,2.25,12.12Z" style="fill:#fff"/><path d="M4.75,13.12A.37.37,0,0,1,4.48,13a.41.41,0,0,1-.11-.27A.39.39,0,0,1,5,12.48a.42.42,0,0,1,.1.26A.34.34,0,0,1,5,13,.31.31,0,0,1,4.75,13.12Z" style="fill:#fff"/><path d="M1.75,14.12A.34.34,0,0,1,1.48,14a.38.38,0,0,1-.11-.25A.39.39,0,0,1,2,13.48a.43.43,0,0,1,.1.27A.42.42,0,0,1,2,14,.39.39,0,0,1,1.75,14.12Z" style="fill:#fff"/><path d="M4.25,16.12A.37.37,0,0,1,4,16a.43.43,0,0,1-.11-.26A.36.36,0,0,1,4,15.48a.4.4,0,0,1,.53,0,.39.39,0,0,1,.1.27.42.42,0,0,1-.1.26A.39.39,0,0,1,4.25,16.12Z" style="fill:#fff"/><path d="M1.75,18.62a.37.37,0,0,1-.27-.11.44.44,0,0,1-.11-.27A.39.39,0,0,1,2,18a.4.4,0,0,1,.1.26.43.43,0,0,1-.1.27A.39.39,0,0,1,1.75,18.62Z" style="fill:#fff"/><path d="M4.25,17.62A.37.37,0,0,1,4,17.51a.43.43,0,0,1-.11-.26A.36.36,0,0,1,4,17a.4.4,0,0,1,.53,0,.39.39,0,0,1,.1.27.42.42,0,0,1-.1.26A.39.39,0,0,1,4.25,17.62Z" style="fill:#fff"/><path d="M1.25,21.12A.36.36,0,0,1,1,21a.4.4,0,0,1-.12-.27A.37.37,0,0,1,1,20.48a.39.39,0,0,1,.53,0,.42.42,0,0,1,.1.26.43.43,0,0,1-.1.27A.37.37,0,0,1,1.25,21.12Z" style="fill:#fff"/><path d="M29.75,8.12A.36.36,0,0,1,29.49,8a.31.31,0,0,1-.11-.26.35.35,0,0,1,.11-.27.35.35,0,0,1,.51,0,.37.37,0,0,1,.13.27A.33.33,0,0,1,30,8,.31.31,0,0,1,29.75,8.12Z" style="fill:#fff"/><path d="M67.75,19.62a.34.34,0,0,1-.27-.12.3.3,0,0,1-.1-.25.35.35,0,0,1,.11-.27A.4.4,0,0,1,68,19a.44.44,0,0,1,.11.27.33.33,0,0,1-.13.26A.31.31,0,0,1,67.75,19.62Z" style="fill:#fff"/><path d="M67.5,3.12A.36.36,0,0,1,67.24,3a.34.34,0,0,1-.11-.26.35.35,0,0,1,.11-.27.4.4,0,0,1,.53,0,.44.44,0,0,1,.11.27.43.43,0,0,1-.11.26A.4.4,0,0,1,67.5,3.12Z" style="fill:#fff"/><path d="M64.25,25.37a.37.37,0,0,1-.27-.11.35.35,0,0,1-.1-.26.32.32,0,0,1,.11-.27.38.38,0,0,1,.64.27.35.35,0,0,1-.13.26A.31.31,0,0,1,64.25,25.37Z" style="fill:#fff"/><path d="M24.5,16.62a.37.37,0,0,1-.27-.11.38.38,0,0,1-.1-.27.33.33,0,0,1,.11-.26.4.4,0,0,1,.53,0,.37.37,0,0,1,0,.53A.39.39,0,0,1,24.5,16.62Z" style="fill:#fff"/><path d="M48.5,2.12a.42.42,0,0,1-.26-.1.36.36,0,0,1-.11-.27.33.33,0,0,1,.11-.27.39.39,0,0,1,.53,0,.44.44,0,0,1,.11.27.43.43,0,0,1-.11.26A.4.4,0,0,1,48.5,2.12Z" style="fill:#fff"/><path d="M1.25,16.37A.36.36,0,0,1,1,16.26.37.37,0,0,1,.87,16,.38.38,0,0,1,1,15.73a.39.39,0,0,1,.53,0,.43.43,0,0,1,.1.27.42.42,0,0,1-.1.26A.37.37,0,0,1,1.25,16.37Z" style="fill:#fff"/><path d="M4.5,1.87a.37.37,0,0,1-.27-.11.43.43,0,0,1-.11-.26.39.39,0,0,1,.65-.27.43.43,0,0,1,.1.27.42.42,0,0,1-.1.26A.39.39,0,0,1,4.5,1.87Z" style="fill:#fff"/><path d="M20.25,1.62A.34.34,0,0,1,20,1.5a.3.3,0,0,1-.1-.25A.35.35,0,0,1,20,1a.39.39,0,0,1,.53,0,.44.44,0,0,1,.11.27.33.33,0,0,1-.13.26A.31.31,0,0,1,20.25,1.62Z" style="fill:#fff"/><path d="M61.75,24.37a.36.36,0,0,1-.26-.11.35.35,0,0,1-.11-.27.34.34,0,0,1,.11-.26.38.38,0,0,1,.64.26.41.41,0,0,1-.11.27A.39.39,0,0,1,61.75,24.37Z" style="fill:#fff"/><path d="M55.5,12.37a.36.36,0,0,1-.37-.37.35.35,0,0,1,.11-.27.4.4,0,0,1,.53,0,.37.37,0,0,1,0,.53A.39.39,0,0,1,55.5,12.37Z" style="fill:#fff"/><path d="M41.75,16.37a.36.36,0,0,1-.26-.11.31.31,0,0,1-.11-.26.32.32,0,0,1,.11-.27.39.39,0,0,1,.53,0,.41.41,0,0,1,.11.27.33.33,0,0,1-.13.26A.31.31,0,0,1,41.75,16.37Z" style="fill:#fff"/><path d="M42.75,14.37a.36.36,0,0,1-.26-.11.33.33,0,0,1-.11-.26.33.33,0,0,1,.11-.27.39.39,0,0,1,.53,0,.37.37,0,0,1,0,.53A.39.39,0,0,1,42.75,14.37Z" style="fill:#fff"/><path d="M42.25,11.87a.36.36,0,0,1-.26-.11.33.33,0,0,1-.11-.26.33.33,0,0,1,.11-.27.39.39,0,0,1,.53,0,.41.41,0,0,1,.11.27.41.41,0,0,1-.11.26A.39.39,0,0,1,42.25,11.87Z" style="fill:#fff"/><path d="M44.25,11.87a.36.36,0,0,1-.26-.11.34.34,0,0,1-.11-.26.33.33,0,0,1,.11-.27.39.39,0,0,1,.53,0,.37.37,0,0,1,0,.53A.39.39,0,0,1,44.25,11.87Z" style="fill:#fff"/><path d="M34,1.62a.36.36,0,0,1-.26-.11.33.33,0,0,1-.11-.27A.33.33,0,0,1,33.74,1a.39.39,0,0,1,.53,0,.43.43,0,0,1,.11.26.44.44,0,0,1-.11.27A.39.39,0,0,1,34,1.62Z" style="fill:#fff"/><path d="M37,2.12A.36.36,0,0,1,36.74,2a.33.33,0,0,1-.11-.26.33.33,0,0,1,.11-.27.39.39,0,0,1,.53,0,.44.44,0,0,1,.11.27.43.43,0,0,1-.11.26A.39.39,0,0,1,37,2.12Z" style="fill:#fff"/><path d="M70.75,23.12a.36.36,0,0,1-.37-.37.35.35,0,0,1,.11-.27.39.39,0,0,1,.53,0A.37.37,0,0,1,71,23,.39.39,0,0,1,70.75,23.12Z" style="fill:#fff"/><path d="M70.75,25.62a.37.37,0,0,1-.27-.11.38.38,0,0,1-.1-.27.31.31,0,0,1,.11-.26A.4.4,0,0,1,71,25a.37.37,0,0,1,0,.53A.39.39,0,0,1,70.75,25.62Z" style="fill:#fff"/><path d="M70.75,13.37a.37.37,0,0,1-.27-.11.35.35,0,0,1-.1-.26.35.35,0,0,1,.11-.27.39.39,0,0,1,.53,0,.44.44,0,0,1,.11.27.35.35,0,0,1-.13.26A.31.31,0,0,1,70.75,13.37Z" style="fill:#fff"/><path d="M70.75,18.37a.36.36,0,0,1-.37-.37.33.33,0,0,1,.11-.27.4.4,0,0,1,.53,0,.41.41,0,0,1,.11.27.43.43,0,0,1-.11.26A.39.39,0,0,1,70.75,18.37Z" style="fill:#fff"/><path d="M69.25,1.37A.34.34,0,0,1,69,1.25a.3.3,0,0,1-.1-.25A.33.33,0,0,1,69,.73a.4.4,0,0,1,.53,0,.44.44,0,0,1,.11.27.33.33,0,0,1-.13.26A.31.31,0,0,1,69.25,1.37Z" style="fill:#fff"/><path d="M46.75,1.12A.37.37,0,0,1,46.48,1a.38.38,0,0,1-.1-.27.33.33,0,0,1,.11-.26.37.37,0,0,1,.51,0,.4.4,0,0,1,.13.27A.44.44,0,0,1,47,1,.4.4,0,0,1,46.75,1.12Z" style="fill:#fff"/><path d="M51.25,1.62A.36.36,0,0,1,51,1.51a.35.35,0,0,1-.11-.27A.31.31,0,0,1,51,1a.38.38,0,0,1,.64.26.44.44,0,0,1-.11.27A.39.39,0,0,1,51.25,1.62Z" style="fill:#fff"/><path d="M62.25,1.12A.36.36,0,0,1,62,1a.35.35,0,0,1-.11-.27A.34.34,0,0,1,62,.48a.39.39,0,0,1,.53,0,.39.39,0,0,1,.11.26.41.41,0,0,1-.11.27A.39.39,0,0,1,62.25,1.12Z" style="fill:#fff"/><path d="M60.25,2.12A.36.36,0,0,1,60,2a.34.34,0,0,1-.11-.26A.35.35,0,0,1,60,1.48a.39.39,0,0,1,.53,0,.44.44,0,0,1,.11.27.43.43,0,0,1-.11.26A.4.4,0,0,1,60.25,2.12Z" style="fill:#fff"/><path d="M64.75,2.62a.37.37,0,0,1-.27-.11.38.38,0,0,1-.1-.27A.31.31,0,0,1,64.49,2,.4.4,0,0,1,65,2a.39.39,0,0,1,.11.26.44.44,0,0,1-.11.27A.39.39,0,0,1,64.75,2.62Z" style="fill:#fff"/><path d="M48.75,28.12a.36.36,0,0,1-.26-.11.34.34,0,0,1-.11-.26.33.33,0,0,1,.11-.27.39.39,0,0,1,.53,0,.41.41,0,0,1,.11.27A.33.33,0,0,1,49,28,.31.31,0,0,1,48.75,28.12Z" style="fill:#fff"/><path d="M45.75,28.12a.36.36,0,0,1-.26-.11.33.33,0,0,1-.11-.27.33.33,0,0,1,.11-.26.39.39,0,0,1,.53,0A.37.37,0,0,1,46,28,.39.39,0,0,1,45.75,28.12Z" style="fill:#fff"/><path d="M42.75,27.62a.36.36,0,0,1-.26-.11.33.33,0,0,1-.11-.27.33.33,0,0,1,.11-.26A.39.39,0,0,1,43,27a.37.37,0,0,1,0,.53A.39.39,0,0,1,42.75,27.62Z" style="fill:#fff"/><path d="M41.25,30.12A.36.36,0,0,1,41,30a.33.33,0,0,1-.11-.27.33.33,0,0,1,.11-.26.39.39,0,0,1,.53,0,.37.37,0,0,1,0,.53A.39.39,0,0,1,41.25,30.12Z" style="fill:#fff"/><path d="M44.25,30.12A.36.36,0,0,1,44,30a.31.31,0,0,1-.11-.26.32.32,0,0,1,.11-.27.39.39,0,0,1,.53,0,.41.41,0,0,1,.11.27.33.33,0,0,1-.13.26A.31.31,0,0,1,44.25,30.12Z" style="fill:#fff"/><path d="M47.25,30.62a.36.36,0,0,1-.26-.11.31.31,0,0,1-.11-.26A.32.32,0,0,1,47,30a.39.39,0,0,1,.53,0,.41.41,0,0,1,.11.27.33.33,0,0,1-.13.26A.31.31,0,0,1,47.25,30.62Z" style="fill:#fff"/><path d="M46.25,33.12A.36.36,0,0,1,46,33a.31.31,0,0,1-.11-.26.36.36,0,0,1,.11-.28.41.41,0,0,1,.53,0,.41.41,0,0,1,.11.27.33.33,0,0,1-.13.26A.31.31,0,0,1,46.25,33.12Z" style="fill:#fff"/><path d="M44.25,32.12A.36.36,0,0,1,44,32a.33.33,0,0,1-.11-.26.33.33,0,0,1,.11-.27.39.39,0,0,1,.53,0,.37.37,0,0,1,0,.53A.39.39,0,0,1,44.25,32.12Z" style="fill:#fff"/><path d="M40.25,33.62a.36.36,0,0,1-.26-.11.31.31,0,0,1-.11-.26A.32.32,0,0,1,40,33a.39.39,0,0,1,.53,0,.41.41,0,0,1,.11.27.33.33,0,0,1-.13.26A.31.31,0,0,1,40.25,33.62Z" style="fill:#fff"/><path d="M42.25,34.12A.36.36,0,0,1,42,34a.31.31,0,0,1-.11-.26.32.32,0,0,1,.11-.27.39.39,0,0,1,.53,0,.39.39,0,0,1,.11.27.33.33,0,0,1-.13.26A.31.31,0,0,1,42.25,34.12Z" style="fill:#fff"/><path d="M43.75,36.62a.36.36,0,0,1-.26-.11.33.33,0,0,1-.11-.27.33.33,0,0,1,.11-.26A.39.39,0,0,1,44,36a.37.37,0,0,1,0,.53A.39.39,0,0,1,43.75,36.62Z" style="fill:#fff"/><path d="M45.25,37.62a.36.36,0,0,1-.26-.11.33.33,0,0,1-.11-.27A.33.33,0,0,1,45,37a.39.39,0,0,1,.53,0,.37.37,0,0,1,0,.53A.39.39,0,0,1,45.25,37.62Z" style="fill:#fff"/><path d="M43.25,39.62a.36.36,0,0,1-.26-.11.33.33,0,0,1-.11-.26A.33.33,0,0,1,43,39a.39.39,0,0,1,.53,0,.37.37,0,0,1,0,.53A.39.39,0,0,1,43.25,39.62Z" style="fill:#fff"/><path d="M40.25,37.62a.36.36,0,0,1-.26-.11.33.33,0,0,1-.11-.27A.33.33,0,0,1,40,37a.39.39,0,0,1,.53,0,.37.37,0,0,1,0,.53A.39.39,0,0,1,40.25,37.62Z" style="fill:#fff"/><path d="M38.25,37.62a.36.36,0,0,1-.26-.11.33.33,0,0,1-.11-.27A.33.33,0,0,1,38,37a.39.39,0,0,1,.53,0,.41.41,0,0,1,.11.26.44.44,0,0,1-.11.27A.39.39,0,0,1,38.25,37.62Z" style="fill:#fff"/><path d="M37.25,34.62a.36.36,0,0,1-.26-.11.33.33,0,0,1-.11-.27A.33.33,0,0,1,37,34a.39.39,0,0,1,.53,0,.41.41,0,0,1,.11.26.41.41,0,0,1-.11.27A.39.39,0,0,1,37.25,34.62Z" style="fill:#fff"/><path d="M34.75,40.62a.36.36,0,0,1-.26-.11.33.33,0,0,1-.11-.27.33.33,0,0,1,.11-.26A.39.39,0,0,1,35,40a.37.37,0,0,1,0,.53A.39.39,0,0,1,34.75,40.62Z" style="fill:#fff"/><path d="M37.25,40.12A.36.36,0,0,1,37,40a.33.33,0,0,1-.11-.26.32.32,0,0,1,.11-.27.39.39,0,0,1,.53,0,.39.39,0,0,1,.11.27.41.41,0,0,1-.11.26A.39.39,0,0,1,37.25,40.12Z" style="fill:#fff"/><path d="M40.75,39.62a.36.36,0,0,1-.26-.11.33.33,0,0,1-.11-.26.33.33,0,0,1,.11-.27A.39.39,0,0,1,41,39a.37.37,0,0,1,0,.53A.39.39,0,0,1,40.75,39.62Z" style="fill:#fff"/><path d="M42.75,42.12a.38.38,0,0,1-.26-.11.33.33,0,0,1-.11-.26.35.35,0,0,1,.11-.27.39.39,0,0,1,.53,0A.37.37,0,0,1,43,42,.4.4,0,0,1,42.75,42.12Z" style="fill:#fff"/><path d="M43.25,44.62a.38.38,0,0,1-.26-.11.33.33,0,0,1-.11-.26A.33.33,0,0,1,43,44a.39.39,0,0,1,.53,0,.46.46,0,0,1,.11.27.43.43,0,0,1-.11.26A.4.4,0,0,1,43.25,44.62Z" style="fill:#fff"/><path d="M41.75,44.12a.38.38,0,0,1-.26-.11.33.33,0,0,1-.11-.26.35.35,0,0,1,.11-.27.39.39,0,0,1,.53,0A.37.37,0,0,1,42,44,.4.4,0,0,1,41.75,44.12Z" style="fill:#fff"/><path d="M39.25,42.62a.36.36,0,0,1-.26-.11.32.32,0,0,1-.11-.27A.33.33,0,0,1,39,42a.39.39,0,0,1,.53,0,.43.43,0,0,1,.11.26.35.35,0,0,1-.13.27A.31.31,0,0,1,39.25,42.62Z" style="fill:#fff"/><path d="M38.75,45.62a.42.42,0,0,1-.26-.1.38.38,0,0,1-.11-.27.32.32,0,0,1,.11-.27A.39.39,0,0,1,39,45a.41.41,0,0,1,.11.27.43.43,0,0,1-.11.26A.4.4,0,0,1,38.75,45.62Z" style="fill:#fff"/><path d="M36.25,44.62a.36.36,0,0,1-.26-.11.33.33,0,0,1-.11-.27A.33.33,0,0,1,36,44a.39.39,0,0,1,.53,0,.37.37,0,0,1,0,.53A.39.39,0,0,1,36.25,44.62Z" style="fill:#fff"/><path d="M33.75,43.62a.36.36,0,0,1-.26-.11.33.33,0,0,1-.11-.26.33.33,0,0,1,.11-.27A.39.39,0,0,1,34,43a.37.37,0,0,1,0,.53A.39.39,0,0,1,33.75,43.62Z" style="fill:#fff"/><path d="M34.25,47.62a.36.36,0,0,1-.26-.11.31.31,0,0,1-.11-.26A.32.32,0,0,1,34,47a.39.39,0,0,1,.53,0,.41.41,0,0,1,.11.27.33.33,0,0,1-.13.26A.31.31,0,0,1,34.25,47.62Z" style="fill:#fff"/><path d="M36.75,47.12a.36.36,0,0,1-.26-.11.33.33,0,0,1-.11-.26.33.33,0,0,1,.11-.27.39.39,0,0,1,.53,0A.37.37,0,0,1,37,47,.39.39,0,0,1,36.75,47.12Z" style="fill:#fff"/><path d="M39.25,47.12A.36.36,0,0,1,39,47a.33.33,0,0,1-.11-.27.33.33,0,0,1,.11-.26.39.39,0,0,1,.53,0,.37.37,0,0,1,0,.53A.39.39,0,0,1,39.25,47.12Z" style="fill:#fff"/><path d="M48.75,67.12a.36.36,0,0,1-.26-.11.35.35,0,0,1-.11-.27.37.37,0,0,1,.1-.26.37.37,0,0,1,.52,0,.4.4,0,0,1,.13.27A.44.44,0,0,1,49,67,.39.39,0,0,1,48.75,67.12Z" style="fill:#fff"/><path d="M36.75,49.62a.36.36,0,0,1-.26-.11.33.33,0,0,1-.11-.27.33.33,0,0,1,.11-.26A.39.39,0,0,1,37,49a.37.37,0,0,1,0,.53A.39.39,0,0,1,36.75,49.62Z" style="fill:#fff"/><path d="M32.75,49.62a.44.44,0,0,1-.26-.1.38.38,0,0,1-.11-.27.32.32,0,0,1,.11-.27A.39.39,0,0,1,33,49a.41.41,0,0,1,.11.27.43.43,0,0,1-.11.26A.4.4,0,0,1,32.75,49.62Z" style="fill:#fff"/><path d="M30.75,46.62a.36.36,0,0,1-.26-.11.32.32,0,0,1-.11-.27.33.33,0,0,1,.11-.26A.39.39,0,0,1,31,46a.43.43,0,0,1,.11.26.34.34,0,0,1-.13.27A.31.31,0,0,1,30.75,46.62Z" style="fill:#fff"/><path d="M32.75,51.12a.36.36,0,0,1-.26-.11.33.33,0,0,1-.11-.26.33.33,0,0,1,.11-.27.39.39,0,0,1,.53,0A.37.37,0,0,1,33,51,.39.39,0,0,1,32.75,51.12Z" style="fill:#fff"/><path d="M30.75,52.12a.36.36,0,0,1-.26-.11.33.33,0,0,1-.11-.26.33.33,0,0,1,.11-.27.39.39,0,0,1,.53,0A.37.37,0,0,1,31,52,.39.39,0,0,1,30.75,52.12Z" style="fill:#fff"/><path d="M29.75,49.12a.36.36,0,0,1-.26-.11.31.31,0,0,1-.11-.26.35.35,0,0,1,.11-.27.36.36,0,0,1,.51,0,.41.41,0,0,1,.13.28A.33.33,0,0,1,30,49,.31.31,0,0,1,29.75,49.12Z" style="fill:#fff"/><path d="M28.25,45.62a.36.36,0,0,1-.37-.37A.33.33,0,0,1,28,45a.38.38,0,0,1,.64.27.41.41,0,0,1-.11.26A.39.39,0,0,1,28.25,45.62Z" style="fill:#fff"/><path d="M26.75,47.62a.37.37,0,0,1-.27-.11.34.34,0,0,1-.1-.26.33.33,0,0,1,.11-.27A.39.39,0,0,1,27,47a.44.44,0,0,1,.11.27.33.33,0,0,1-.13.26A.31.31,0,0,1,26.75,47.62Z" style="fill:#fff"/><path d="M27.75,44.12a.36.36,0,0,1-.26-.11.33.33,0,0,1-.11-.26.33.33,0,0,1,.11-.27.39.39,0,0,1,.53,0A.37.37,0,0,1,28,44,.39.39,0,0,1,27.75,44.12Z" style="fill:#fff"/><path d="M25.75,45.12a.36.36,0,0,1-.37-.37.35.35,0,0,1,.11-.27.4.4,0,0,1,.53,0A.37.37,0,0,1,26,45,.39.39,0,0,1,25.75,45.12Z" style="fill:#fff"/><path d="M26.25,42.12A.37.37,0,0,1,26,42a.35.35,0,0,1-.1-.26.32.32,0,0,1,.11-.27.4.4,0,0,1,.53,0,.41.41,0,0,1,.11.27.43.43,0,0,1-.11.26A.39.39,0,0,1,26.25,42.12Z" style="fill:#fff"/><path d="M24.25,43.62a.36.36,0,0,1-.26-.11.33.33,0,0,1-.11-.26A.32.32,0,0,1,24,43a.39.39,0,0,1,.53,0,.41.41,0,0,1,.11.27.43.43,0,0,1-.11.26A.39.39,0,0,1,24.25,43.62Z" style="fill:#fff"/><path d="M25.25,40.62a.36.36,0,0,1-.26-.11.33.33,0,0,1-.11-.26A.33.33,0,0,1,25,40a.39.39,0,0,1,.53,0,.37.37,0,0,1,0,.53A.39.39,0,0,1,25.25,40.62Z" style="fill:#fff"/><path d="M26.25,39.12A.36.36,0,0,1,26,39a.34.34,0,0,1-.11-.26.32.32,0,0,1,.11-.27.4.4,0,0,1,.53,0,.41.41,0,0,1,.11.27.43.43,0,0,1-.11.26A.4.4,0,0,1,26.25,39.12Z" style="fill:#fff"/><path d="M27.25,36.12a.36.36,0,0,1-.37-.37.32.32,0,0,1,.11-.27.4.4,0,0,1,.53,0,.41.41,0,0,1,.11.27.43.43,0,0,1-.11.26A.39.39,0,0,1,27.25,36.12Z" style="fill:#fff"/><path d="M24.75,36.62a.36.36,0,0,1-.37-.37.32.32,0,0,1,.11-.27A.4.4,0,0,1,25,36a.41.41,0,0,1,.11.27.43.43,0,0,1-.11.26A.39.39,0,0,1,24.75,36.62Z" style="fill:#fff"/><path d="M28.25,33.62a.37.37,0,0,1-.27-.11.35.35,0,0,1-.1-.26A.35.35,0,0,1,28,33a.4.4,0,0,1,.53,0,.41.41,0,0,1,.11.27.33.33,0,0,1-.13.26A.31.31,0,0,1,28.25,33.62Z" style="fill:#fff"/><path d="M27.25,36.12a.36.36,0,0,1-.37-.37.32.32,0,0,1,.11-.27.4.4,0,0,1,.53,0,.41.41,0,0,1,.11.27.43.43,0,0,1-.11.26A.39.39,0,0,1,27.25,36.12Z" style="fill:#fff"/><path d="M26.75,33.12a.37.37,0,0,1-.27-.11.34.34,0,0,1-.1-.26.35.35,0,0,1,.11-.27.39.39,0,0,1,.53,0,.44.44,0,0,1,.11.27A.33.33,0,0,1,27,33,.31.31,0,0,1,26.75,33.12Z" style="fill:#fff"/><path d="M29.75,32.62a.36.36,0,0,1-.26-.11.33.33,0,0,1-.11-.26.33.33,0,0,1,.11-.27A.39.39,0,0,1,30,32a.37.37,0,0,1,0,.53A.39.39,0,0,1,29.75,32.62Z" style="fill:#fff"/><path d="M28.25,30.62a.36.36,0,0,1-.37-.37A.33.33,0,0,1,28,30a.38.38,0,0,1,.64.27.41.41,0,0,1-.11.26A.39.39,0,0,1,28.25,30.62Z" style="fill:#fff"/><path d="M31.75,31.12a.36.36,0,0,1-.26-.11.32.32,0,0,1-.11-.27.33.33,0,0,1,.11-.26.39.39,0,0,1,.53,0,.43.43,0,0,1,.11.26A.34.34,0,0,1,32,31,.31.31,0,0,1,31.75,31.12Z" style="fill:#fff"/><path d="M30.75,28.62a.36.36,0,0,1-.26-.11.33.33,0,0,1-.11-.27.33.33,0,0,1,.11-.26A.39.39,0,0,1,31,28a.37.37,0,0,1,0,.53A.39.39,0,0,1,30.75,28.62Z" style="fill:#fff"/><path d="M33.25,28.62a.36.36,0,0,1-.26-.11.32.32,0,0,1-.11-.27A.33.33,0,0,1,33,28a.39.39,0,0,1,.53,0,.43.43,0,0,1,.11.26.35.35,0,0,1-.13.27A.31.31,0,0,1,33.25,28.62Z" style="fill:#fff"/><path d="M35.25,28.62a.36.36,0,0,1-.26-.11.31.31,0,0,1-.11-.26A.32.32,0,0,1,35,28a.39.39,0,0,1,.53,0,.41.41,0,0,1,.11.27.33.33,0,0,1-.13.26A.31.31,0,0,1,35.25,28.62Z" style="fill:#fff"/><path d="M23.25,28.62a.37.37,0,0,1-.27-.11.35.35,0,0,1-.1-.26A.32.32,0,0,1,23,28a.4.4,0,0,1,.53,0,.41.41,0,0,1,.11.27.43.43,0,0,1-.11.26A.39.39,0,0,1,23.25,28.62Z" style="fill:#fff"/><path d="M21.25,28.12A.37.37,0,0,1,21,28a.35.35,0,0,1-.1-.26.33.33,0,0,1,.11-.27.4.4,0,0,1,.53,0,.41.41,0,0,1,.11.27.41.41,0,0,1-.11.26A.39.39,0,0,1,21.25,28.12Z" style="fill:#fff"/><path d="M22.75,30.12a.37.37,0,0,1-.27-.11.35.35,0,0,1-.1-.26.33.33,0,0,1,.11-.27.4.4,0,0,1,.53,0A.37.37,0,0,1,23,30,.39.39,0,0,1,22.75,30.12Z" style="fill:#fff"/><path d="M19.75,30.12a.36.36,0,0,1-.37-.37.35.35,0,0,1,.11-.27.4.4,0,0,1,.53,0,.41.41,0,0,1,.11.27A.43.43,0,0,1,20,30,.39.39,0,0,1,19.75,30.12Z" style="fill:#fff"/><path d="M21.75,33.12a.36.36,0,0,1-.37-.37.32.32,0,0,1,.11-.27.38.38,0,0,1,.64.27A.41.41,0,0,1,22,33,.39.39,0,0,1,21.75,33.12Z" style="fill:#fff"/><path d="M19.25,32.12A.37.37,0,0,1,19,32a.36.36,0,0,1-.1-.27.33.33,0,0,1,.11-.26.4.4,0,0,1,.53,0,.41.41,0,0,1,.11.26.35.35,0,0,1-.13.27A.31.31,0,0,1,19.25,32.12Z" style="fill:#fff"/><path d="M16.25,32.62a.36.36,0,0,1-.37-.37A.33.33,0,0,1,16,32a.4.4,0,0,1,.53,0,.41.41,0,0,1,.11.27.43.43,0,0,1-.11.26A.39.39,0,0,1,16.25,32.62Z" style="fill:#fff"/><path d="M15.25,29.12a.36.36,0,0,1-.37-.37.33.33,0,0,1,.11-.27.4.4,0,0,1,.53,0,.41.41,0,0,1,.11.27.43.43,0,0,1-.11.26A.39.39,0,0,1,15.25,29.12Z" style="fill:#fff"/><path d="M13.75,32.62a.36.36,0,0,1-.37-.37.35.35,0,0,1,.11-.27A.39.39,0,0,1,14,32a.37.37,0,0,1,0,.53A.39.39,0,0,1,13.75,32.62Z" style="fill:#fff"/><path d="M16.75,34.12a.36.36,0,0,1-.37-.37.35.35,0,0,1,.11-.27.4.4,0,0,1,.53,0,.41.41,0,0,1,.11.27A.41.41,0,0,1,17,34,.39.39,0,0,1,16.75,34.12Z" style="fill:#fff"/><path d="M18.75,36.62a.37.37,0,0,1-.27-.11.35.35,0,0,1-.1-.26.33.33,0,0,1,.11-.27A.4.4,0,0,1,19,36a.41.41,0,0,1,.11.27.41.41,0,0,1-.11.26A.39.39,0,0,1,18.75,36.62Z" style="fill:#fff"/><path d="M14.75,37.12a.37.37,0,0,1-.27-.11.35.35,0,0,1-.1-.27.34.34,0,0,1,.11-.26.4.4,0,0,1,.53,0,.43.43,0,0,1,.11.26A.34.34,0,0,1,15,37,.31.31,0,0,1,14.75,37.12Z" style="fill:#fff"/><path d="M17.25,38.62a.37.37,0,0,1-.27-.11.36.36,0,0,1-.1-.27A.34.34,0,0,1,17,38a.4.4,0,0,1,.53,0,.43.43,0,0,1,.11.26.35.35,0,0,1-.13.27A.31.31,0,0,1,17.25,38.62Z" style="fill:#fff"/><path d="M13.75,40.12a.36.36,0,0,1-.37-.37.32.32,0,0,1,.11-.27.38.38,0,0,1,.64.27A.43.43,0,0,1,14,40,.39.39,0,0,1,13.75,40.12Z" style="fill:#fff"/><path d="M12.75,42.12a.37.37,0,0,1-.27-.11.36.36,0,0,1-.1-.27.33.33,0,0,1,.11-.26.4.4,0,0,1,.53,0,.41.41,0,0,1,.11.26A.35.35,0,0,1,13,42,.31.31,0,0,1,12.75,42.12Z" style="fill:#fff"/><path d="M13.25,44.62a.36.36,0,0,1-.37-.37A.35.35,0,0,1,13,44a.39.39,0,0,1,.53,0,.41.41,0,0,1,.11.27.41.41,0,0,1-.11.26A.39.39,0,0,1,13.25,44.62Z" style="fill:#fff"/><path d="M11.25,44.62a.36.36,0,0,1-.37-.37A.35.35,0,0,1,11,44a.4.4,0,0,1,.53,0,.37.37,0,0,1,0,.53A.39.39,0,0,1,11.25,44.62Z" style="fill:#fff"/><path d="M9.25,46.62A.34.34,0,0,1,9,46.5a.38.38,0,0,1-.11-.25A.39.39,0,0,1,9.52,46a.43.43,0,0,1,.1.27.42.42,0,0,1-.1.26A.39.39,0,0,1,9.25,46.62Z" style="fill:#fff"/><path d="M11.75,47.62a.36.36,0,0,1-.37-.37.35.35,0,0,1,.11-.27A.4.4,0,0,1,12,47a.41.41,0,0,1,.11.27.41.41,0,0,1-.11.26A.39.39,0,0,1,11.75,47.62Z" style="fill:#fff"/><path d="M10.75,50.62a.37.37,0,0,1-.27-.11.35.35,0,0,1-.1-.26.33.33,0,0,1,.11-.27A.4.4,0,0,1,11,50a.41.41,0,0,1,.11.27.41.41,0,0,1-.11.26A.39.39,0,0,1,10.75,50.62Z" style="fill:#fff"/><path d="M6.25,48.12A.37.37,0,0,1,6,48a.43.43,0,0,1-.11-.26.39.39,0,0,1,.65-.27.43.43,0,0,1,.1.27.42.42,0,0,1-.1.26A.39.39,0,0,1,6.25,48.12Z" style="fill:#fff"/><path d="M5.25,50.62A.37.37,0,0,1,5,50.51a.43.43,0,0,1-.11-.26A.38.38,0,0,1,5,50a.4.4,0,0,1,.53,0,.41.41,0,0,1,.1.27.42.42,0,0,1-.1.26A.39.39,0,0,1,5.25,50.62Z" style="fill:#fff"/><path d="M7.75,52.12A.37.37,0,0,1,7.48,52a.43.43,0,0,1-.11-.26A.39.39,0,0,1,8,51.48a.43.43,0,0,1,.1.27A.42.42,0,0,1,8,52,.39.39,0,0,1,7.75,52.12Z" style="fill:#fff"/><path d="M4.75,45.12A.37.37,0,0,1,4.48,45a.43.43,0,0,1-.11-.26A.39.39,0,0,1,5,44.48a.43.43,0,0,1,.1.27A.42.42,0,0,1,5,45,.39.39,0,0,1,4.75,45.12Z" style="fill:#fff"/><path d="M3.25,48.12A.37.37,0,0,1,3,48a.43.43,0,0,1-.11-.26.39.39,0,0,1,.65-.27.43.43,0,0,1,.1.27.42.42,0,0,1-.1.26A.39.39,0,0,1,3.25,48.12Z" style="fill:#fff"/><path d="M.75,45.12A.34.34,0,0,1,.48,45a.38.38,0,0,1-.11-.25.4.4,0,0,1,.12-.27.4.4,0,0,1,.53,0,.43.43,0,0,1,.1.27A.42.42,0,0,1,1,45,.39.39,0,0,1,.75,45.12Z" style="fill:#fff"/><path d="M3.75,43.12A.37.37,0,0,1,3.48,43a.44.44,0,0,1-.11-.27A.39.39,0,0,1,4,42.48a.42.42,0,0,1,.1.26A.43.43,0,0,1,4,43,.39.39,0,0,1,3.75,43.12Z" style="fill:#fff"/><path d="M1.25,41.62A.36.36,0,0,1,1,41.51a.36.36,0,0,1-.12-.27A.37.37,0,0,1,1,41a.39.39,0,0,1,.53,0,.42.42,0,0,1,.1.26.33.33,0,0,1-.12.27A.31.31,0,0,1,1.25,41.62Z" style="fill:#fff"/><path d="M5.25,41.62A.37.37,0,0,1,5,41.51a.41.41,0,0,1-.11-.27A.37.37,0,0,1,5,41a.37.37,0,0,1,.63.26.34.34,0,0,1-.12.27A.31.31,0,0,1,5.25,41.62Z" style="fill:#fff"/><path d="M2.75,40.12A.37.37,0,0,1,2.48,40a.43.43,0,0,1-.11-.26A.39.39,0,0,1,3,39.48a.43.43,0,0,1,.1.27A.42.42,0,0,1,3,40,.39.39,0,0,1,2.75,40.12Z" style="fill:#fff"/><path d="M6.25,38.12A.37.37,0,0,1,6,38a.38.38,0,0,1,.54-.53.42.42,0,0,1,.1.26A.33.33,0,0,1,6.5,38,.31.31,0,0,1,6.25,38.12Z" style="fill:#fff"/><path d="M2.75,37.12A.37.37,0,0,1,2.48,37a.41.41,0,0,1-.11-.26A.39.39,0,0,1,3,36.48a.43.43,0,0,1,.1.27A.4.4,0,0,1,3,37,.39.39,0,0,1,2.75,37.12Z" style="fill:#fff"/><path d="M6.25,34.12A.37.37,0,0,1,6,34a.43.43,0,0,1-.11-.26.39.39,0,0,1,.65-.27.43.43,0,0,1,.1.27.42.42,0,0,1-.1.26A.39.39,0,0,1,6.25,34.12Z" style="fill:#fff"/><path d="M8.25,35.62A.37.37,0,0,1,8,35.51a.43.43,0,0,1-.11-.26A.39.39,0,0,1,8.52,35a.43.43,0,0,1,.1.27.42.42,0,0,1-.1.26A.39.39,0,0,1,8.25,35.62Z" style="fill:#fff"/><path d="M8.25,33.12A.37.37,0,0,1,8,33a.44.44,0,0,1-.11-.27.39.39,0,0,1,.65-.26.42.42,0,0,1,.1.26.43.43,0,0,1-.1.27A.39.39,0,0,1,8.25,33.12Z" style="fill:#fff"/><path d="M3.75,32.62a.37.37,0,0,1-.27-.11.43.43,0,0,1-.11-.26A.39.39,0,0,1,4,32a.43.43,0,0,1,.1.27.42.42,0,0,1-.1.26A.39.39,0,0,1,3.75,32.62Z" style="fill:#fff"/><path d="M7.75,30.62a.37.37,0,0,1-.27-.11.43.43,0,0,1-.11-.26A.39.39,0,0,1,8,30a.43.43,0,0,1,.1.27.42.42,0,0,1-.1.26A.39.39,0,0,1,7.75,30.62Z" style="fill:#fff"/><path d="M4.75,28.62a.37.37,0,0,1-.27-.11.43.43,0,0,1-.11-.26A.38.38,0,0,1,4.49,28,.4.4,0,0,1,5,28a.41.41,0,0,1,.1.27.42.42,0,0,1-.1.26A.39.39,0,0,1,4.75,28.62Z" style="fill:#fff"/><path d="M.75,30.62a.34.34,0,0,1-.27-.12.38.38,0,0,1-.11-.25A.4.4,0,0,1,.49,30,.4.4,0,0,1,1,30a.43.43,0,0,1,.1.27.42.42,0,0,1-.1.26A.39.39,0,0,1,.75,30.62Z" style="fill:#fff"/><path d="M67.75,64.12a.36.36,0,0,1-.37-.37.33.33,0,0,1,.11-.27.39.39,0,0,1,.53,0A.37.37,0,0,1,68,64,.39.39,0,0,1,67.75,64.12Z" style="fill:#fff"/><path d="M63.75,65.12a.36.36,0,0,1-.26-.11.34.34,0,0,1-.11-.26.38.38,0,0,1,.1-.27.39.39,0,0,1,.54,0,.41.41,0,0,1,.11.27A.41.41,0,0,1,64,65,.39.39,0,0,1,63.75,65.12Z" style="fill:#fff"/><path d="M67.75,67.12a.36.36,0,0,1-.37-.37.35.35,0,0,1,.11-.27.39.39,0,0,1,.53,0A.37.37,0,0,1,68,67,.39.39,0,0,1,67.75,67.12Z" style="fill:#fff"/><path d="M60.25,45.87a.36.36,0,0,1-.37-.37.35.35,0,0,1,.11-.27.4.4,0,0,1,.53,0,.37.37,0,0,1,0,.53A.39.39,0,0,1,60.25,45.87Z" style="fill:#fff"/><path d="M64.25,45.62a.37.37,0,0,1-.27-.11.35.35,0,0,1-.1-.26A.35.35,0,0,1,64,45a.39.39,0,0,1,.53,0,.41.41,0,0,1,.11.27.35.35,0,0,1-.13.26A.31.31,0,0,1,64.25,45.62Z" style="fill:#fff"/><path d="M57.25,49.37a.36.36,0,0,1-.26-.11.33.33,0,0,1-.11-.27.33.33,0,0,1,.11-.26.39.39,0,0,1,.53,0,.41.41,0,0,1,.11.26.41.41,0,0,1-.11.27A.39.39,0,0,1,57.25,49.37Z" style="fill:#fff"/><path d="M65.75,41.62a.37.37,0,0,1-.27-.11.38.38,0,0,1-.1-.27.33.33,0,0,1,.11-.26A.4.4,0,0,1,66,41a.41.41,0,0,1,.11.26.44.44,0,0,1-.11.27A.4.4,0,0,1,65.75,41.62Z" style="fill:#fff"/><path d="M65.25,38.62a.37.37,0,0,1-.27-.11.35.35,0,0,1-.1-.26A.35.35,0,0,1,65,38a.4.4,0,0,1,.53,0,.44.44,0,0,1,.11.27.35.35,0,0,1-.13.26A.31.31,0,0,1,65.25,38.62Z" style="fill:#fff"/><path d="M63.75,32.62a.36.36,0,0,1-.26-.11.34.34,0,0,1-.11-.26.39.39,0,0,1,.1-.27A.39.39,0,0,1,64,32a.44.44,0,0,1,.11.27.35.35,0,0,1-.13.26A.31.31,0,0,1,63.75,32.62Z" style="fill:#fff"/><path d="M65.25,29.62a.37.37,0,0,1-.27-.11.35.35,0,0,1-.1-.26A.35.35,0,0,1,65,29a.4.4,0,0,1,.53,0,.44.44,0,0,1,.11.27.35.35,0,0,1-.13.26A.31.31,0,0,1,65.25,29.62Z" style="fill:#fff"/><path d="M23,39.62a.36.36,0,0,1-.26-.11.33.33,0,0,1-.11-.26.32.32,0,0,1,.11-.27.39.39,0,0,1,.53,0,.41.41,0,0,1,.11.27.43.43,0,0,1-.11.26A.39.39,0,0,1,23,39.62Z" style="fill:#fff"/><path d="M22.25,52.12A.37.37,0,0,1,22,52a.35.35,0,0,1-.1-.26.35.35,0,0,1,.11-.27.39.39,0,0,1,.53,0,.44.44,0,0,1,.11.27.41.41,0,0,1-.11.26A.39.39,0,0,1,22.25,52.12Z" style="fill:#fff"/><path d="M18.25,51.62a.36.36,0,0,1-.37-.37A.35.35,0,0,1,18,51a.4.4,0,0,1,.53,0,.37.37,0,0,1,0,.53A.39.39,0,0,1,18.25,51.62Z" style="fill:#fff"/><path d="M20.75,50.62a.36.36,0,0,1-.37-.37.35.35,0,0,1,.11-.27A.4.4,0,0,1,21,50a.41.41,0,0,1,.11.27.41.41,0,0,1-.11.26A.39.39,0,0,1,20.75,50.62Z" style="fill:#fff"/><path d="M22.75,49.62a.37.37,0,0,1-.27-.11.35.35,0,0,1-.1-.26.35.35,0,0,1,.11-.27A.4.4,0,0,1,23,49a.37.37,0,0,1,0,.53A.39.39,0,0,1,22.75,49.62Z" style="fill:#fff"/><path d="M18.25,49.62a.36.36,0,0,1-.37-.37A.35.35,0,0,1,18,49a.39.39,0,0,1,.53,0,.37.37,0,0,1,0,.53A.39.39,0,0,1,18.25,49.62Z" style="fill:#fff"/><path d="M15.75,50.12a.37.37,0,0,1-.27-.11.36.36,0,0,1-.1-.27.33.33,0,0,1,.11-.26.4.4,0,0,1,.53,0,.43.43,0,0,1,.11.26A.35.35,0,0,1,16,50,.31.31,0,0,1,15.75,50.12Z" style="fill:#fff"/><path d="M17.25,47.12a.36.36,0,0,1-.37-.37.35.35,0,0,1,.11-.27.4.4,0,0,1,.53,0,.37.37,0,0,1,0,.53A.39.39,0,0,1,17.25,47.12Z" style="fill:#fff"/><path d="M19.75,46.62a.36.36,0,0,1-.37-.37.35.35,0,0,1,.11-.27A.4.4,0,0,1,20,46a.44.44,0,0,1,.11.27.41.41,0,0,1-.11.26A.39.39,0,0,1,19.75,46.62Z" style="fill:#fff"/><path d="M19.25,43.62a.37.37,0,0,1-.27-.11.35.35,0,0,1-.1-.27A.33.33,0,0,1,19,43a.4.4,0,0,1,.53,0,.41.41,0,0,1,.11.26.34.34,0,0,1-.13.27A.31.31,0,0,1,19.25,43.62Z" style="fill:#fff"/><path d="M20.75,41.62a.36.36,0,0,1-.37-.37.33.33,0,0,1,.11-.27.38.38,0,0,1,.64.27.41.41,0,0,1-.11.26A.39.39,0,0,1,20.75,41.62Z" style="fill:#fff"/><path d="M49.75,51.12a.36.36,0,0,1-.26-.11.33.33,0,0,1-.11-.26.33.33,0,0,1,.11-.27.39.39,0,0,1,.53,0,.44.44,0,0,1,.11.27A.35.35,0,0,1,50,51,.31.31,0,0,1,49.75,51.12Z" style="fill:#fff"/><path d="M46.25,52.62a.36.36,0,0,1-.26-.11.33.33,0,0,1-.11-.26A.33.33,0,0,1,46,52a.39.39,0,0,1,.53,0,.37.37,0,0,1,0,.53A.39.39,0,0,1,46.25,52.62Z" style="fill:#fff"/><path d="M43.75,51.12a.36.36,0,0,1-.26-.11.33.33,0,0,1-.11-.26.33.33,0,0,1,.11-.27.39.39,0,0,1,.53,0A.37.37,0,0,1,44,51,.39.39,0,0,1,43.75,51.12Z" style="fill:#fff"/><path d="M48.25,49.62a.36.36,0,0,1-.26-.11.31.31,0,0,1-.11-.26A.32.32,0,0,1,48,49a.39.39,0,0,1,.53,0,.39.39,0,0,1,.11.27.33.33,0,0,1-.13.26A.31.31,0,0,1,48.25,49.62Z" style="fill:#fff"/><path d="M49.75,45.12a.36.36,0,0,1-.26-.11.31.31,0,0,1-.11-.26.32.32,0,0,1,.11-.27.39.39,0,0,1,.53,0,.41.41,0,0,1,.11.27A.33.33,0,0,1,50,45,.31.31,0,0,1,49.75,45.12Z" style="fill:#fff"/><path d="M47.25,44.62a.36.36,0,0,1-.26-.11.32.32,0,0,1-.11-.27A.33.33,0,0,1,47,44a.39.39,0,0,1,.53,0,.41.41,0,0,1,.11.26.35.35,0,0,1-.13.27A.31.31,0,0,1,47.25,44.62Z" style="fill:#fff"/><path d="M45.75,48.12a.36.36,0,0,1-.26-.11.33.33,0,0,1-.11-.26.33.33,0,0,1,.11-.27.39.39,0,0,1,.53,0A.37.37,0,0,1,46,48,.39.39,0,0,1,45.75,48.12Z" style="fill:#fff"/><path d="M50.75,42.62a.36.36,0,0,1-.26-.11.34.34,0,0,1-.11-.26.39.39,0,0,1,.1-.27A.39.39,0,0,1,51,42a.37.37,0,0,1,0,.53A.39.39,0,0,1,50.75,42.62Z" style="fill:#fff"/><path d="M48.25,41.62a.36.36,0,0,1-.26-.11.33.33,0,0,1-.11-.26A.33.33,0,0,1,48,41a.39.39,0,0,1,.53,0,.41.41,0,0,1,.11.27.41.41,0,0,1-.11.26A.39.39,0,0,1,48.25,41.62Z" style="fill:#fff"/><path d="M51.25,40.62a.36.36,0,0,1-.26-.11.31.31,0,0,1-.11-.26A.32.32,0,0,1,51,40a.39.39,0,0,1,.53,0,.39.39,0,0,1,.11.27.33.33,0,0,1-.13.26A.31.31,0,0,1,51.25,40.62Z" style="fill:#fff"/><path d="M48.75,38.62a.36.36,0,0,1-.26-.11.35.35,0,0,1-.11-.27.37.37,0,0,1,.1-.26A.37.37,0,0,1,49,38a.36.36,0,0,1,.13.26.44.44,0,0,1-.11.27A.39.39,0,0,1,48.75,38.62Z" style="fill:#fff"/><path d="M51.25,36.12A.36.36,0,0,1,51,36a.33.33,0,0,1-.11-.26.33.33,0,0,1,.11-.27.39.39,0,0,1,.53,0,.44.44,0,0,1,.11.27.41.41,0,0,1-.11.26A.39.39,0,0,1,51.25,36.12Z" style="fill:#fff"/><path d="M48.75,37.12a.36.36,0,0,1-.26-.11.35.35,0,0,1-.11-.27.37.37,0,0,1,.1-.26.4.4,0,0,1,.54,0A.37.37,0,0,1,49,37,.39.39,0,0,1,48.75,37.12Z" style="fill:#fff"/><path d="M51.75,33.62a.36.36,0,0,1-.26-.11.33.33,0,0,1-.11-.27.33.33,0,0,1,.11-.26A.39.39,0,0,1,52,33a.41.41,0,0,1,.11.26.44.44,0,0,1-.11.27A.39.39,0,0,1,51.75,33.62Z" style="fill:#fff"/><path d="M54.25,31.62a.36.36,0,0,1-.26-.11.34.34,0,0,1-.11-.26A.35.35,0,0,1,54,31a.39.39,0,0,1,.53,0,.37.37,0,0,1,0,.53A.4.4,0,0,1,54.25,31.62Z" style="fill:#fff"/><path d="M54.25,29.12a.36.36,0,0,1-.37-.37.35.35,0,0,1,.11-.27.39.39,0,0,1,.53,0,.37.37,0,0,1,0,.53A.4.4,0,0,1,54.25,29.12Z" style="fill:#fff"/><path d="M23.25,46.62a.37.37,0,0,1-.27-.11.35.35,0,0,1-.1-.26A.32.32,0,0,1,23,46a.4.4,0,0,1,.53,0,.41.41,0,0,1,.11.27.43.43,0,0,1-.11.26A.39.39,0,0,1,23.25,46.62Z" style="fill:#fff"/><path d="M64.75,35.12a.36.36,0,0,1-.26-.11.34.34,0,0,1-.11-.26.35.35,0,0,1,.11-.27.39.39,0,0,1,.53,0A.37.37,0,0,1,65,35,.4.4,0,0,1,64.75,35.12Z" style="fill:#fff"/><path d="M58,51.37a.38.38,0,0,1-.37-.38.37.37,0,0,1,.1-.26.39.39,0,0,1,.65.26.44.44,0,0,1-.11.27A.39.39,0,0,1,58,51.37Z" style="fill:#fff"/><path d="M28.5,38.12a.37.37,0,0,1-.27-.11.38.38,0,0,1-.1-.27.34.34,0,0,1,.11-.26.4.4,0,0,1,.53,0,.41.41,0,0,1,.11.26.41.41,0,0,1-.11.27A.39.39,0,0,1,28.5,38.12Z" style="fill:#fff"/><path d="M4.5,52.62a.37.37,0,0,1-.27-.11.41.41,0,0,1-.11-.27A.39.39,0,0,1,4.77,52a.42.42,0,0,1,.1.26.34.34,0,0,1-.12.27A.31.31,0,0,1,4.5,52.62Z" style="fill:#fff"/><path d="M51.75,38.37a.36.36,0,0,1-.26-.11.35.35,0,0,1-.11-.27.33.33,0,0,1,.11-.26.39.39,0,0,1,.53,0,.37.37,0,0,1,0,.53A.39.39,0,0,1,51.75,38.37Z" style="fill:#fff"/><path d="M54.25,41.37a.36.36,0,0,1-.37-.37.33.33,0,0,1,.11-.27.39.39,0,0,1,.53,0,.41.41,0,0,1,.11.27.43.43,0,0,1-.11.26A.4.4,0,0,1,54.25,41.37Z" style="fill:#fff"/><path d="M54.25,36.37a.36.36,0,0,1-.37-.37.35.35,0,0,1,.11-.27.4.4,0,0,1,.53,0,.37.37,0,0,1,0,.53A.4.4,0,0,1,54.25,36.37Z" style="fill:#fff"/><path d="M48.5,52.87a.38.38,0,0,1-.26-.11.33.33,0,0,1-.11-.26.33.33,0,0,1,.11-.27.39.39,0,0,1,.53,0,.37.37,0,0,1,0,.53A.4.4,0,0,1,48.5,52.87Z" style="fill:#fff"/><path d="M44.5,55.12a.36.36,0,0,1-.26-.11.31.31,0,0,1-.11-.26.32.32,0,0,1,.11-.27.39.39,0,0,1,.53,0,.41.41,0,0,1,.11.27.33.33,0,0,1-.13.26A.31.31,0,0,1,44.5,55.12Z" style="fill:#fff"/><path d="M32.75,53.12a.36.36,0,0,1-.26-.11.33.33,0,0,1-.11-.26.33.33,0,0,1,.11-.27.39.39,0,0,1,.53,0A.37.37,0,0,1,33,53,.39.39,0,0,1,32.75,53.12Z" style="fill:#fff"/><path d="M11.25,38.37a.36.36,0,0,1-.37-.37.35.35,0,0,1,.11-.27.4.4,0,0,1,.53,0,.37.37,0,0,1,0,.53A.39.39,0,0,1,11.25,38.37Z" style="fill:#fff"/><path d="M10.25,40.37a.37.37,0,0,1-.27-.11A.41.41,0,0,1,9.87,40a.39.39,0,0,1,.65-.27.44.44,0,0,1,.11.27.41.41,0,0,1-.11.26A.39.39,0,0,1,10.25,40.37Z" style="fill:#fff"/><path d="M10.75,42.87a.36.36,0,0,1-.37-.37.32.32,0,0,1,.11-.27.38.38,0,0,1,.64.27.43.43,0,0,1-.11.26A.39.39,0,0,1,10.75,42.87Z" style="fill:#fff"/><path d="M8.75,42.87a.37.37,0,0,1-.27-.11.43.43,0,0,1-.11-.26.36.36,0,0,1,.12-.27.4.4,0,0,1,.53,0,.39.39,0,0,1,.1.27.42.42,0,0,1-.1.26A.39.39,0,0,1,8.75,42.87Z" style="fill:#fff"/><path d="M19,53.12a.36.36,0,0,1-.26-.11.33.33,0,0,1-.11-.26.32.32,0,0,1,.11-.27.39.39,0,0,1,.53,0,.41.41,0,0,1,.11.27.43.43,0,0,1-.11.26A.39.39,0,0,1,19,53.12Z" style="fill:#fff"/><path d="M16,52.62a.37.37,0,0,1-.27-.11.38.38,0,0,1-.1-.27.34.34,0,0,1,.11-.26.4.4,0,0,1,.53,0,.37.37,0,0,1,0,.53A.39.39,0,0,1,16,52.62Z" style="fill:#fff"/><path d="M14.5,55.12a.36.36,0,0,1-.37-.37.33.33,0,0,1,.11-.27.4.4,0,0,1,.53,0,.41.41,0,0,1,.11.27.43.43,0,0,1-.11.26A.39.39,0,0,1,14.5,55.12Z" style="fill:#fff"/><path d="M17.5,55.12a.37.37,0,0,1-.27-.11.34.34,0,0,1-.1-.26.35.35,0,0,1,.11-.27.4.4,0,0,1,.53,0,.44.44,0,0,1,.11.27.33.33,0,0,1-.13.26A.31.31,0,0,1,17.5,55.12Z" style="fill:#fff"/><path d="M20.5,55.62a.36.36,0,0,1-.37-.37.33.33,0,0,1,.11-.27.4.4,0,0,1,.53,0,.41.41,0,0,1,.11.27.43.43,0,0,1-.11.26A.39.39,0,0,1,20.5,55.62Z" style="fill:#fff"/><path d="M34.75,58.62a.36.36,0,0,1-.26-.11.33.33,0,0,1-.11-.27.33.33,0,0,1,.11-.26A.39.39,0,0,1,35,58a.37.37,0,0,1,0,.53A.39.39,0,0,1,34.75,58.62Z" style="fill:#fff"/><path d="M30.25,54.62a.36.36,0,0,1-.26-.11.33.33,0,0,1-.11-.26A.33.33,0,0,1,30,54a.39.39,0,0,1,.53,0,.37.37,0,0,1,0,.53A.39.39,0,0,1,30.25,54.62Z" style="fill:#fff"/><path d="M33.25,55.12A.36.36,0,0,1,33,55a.31.31,0,0,1-.11-.26.32.32,0,0,1,.11-.27.39.39,0,0,1,.53,0,.41.41,0,0,1,.11.27.33.33,0,0,1-.13.26A.31.31,0,0,1,33.25,55.12Z" style="fill:#fff"/><path d="M58.25,42.62A.34.34,0,0,1,58,42.5a.3.3,0,0,1-.1-.25A.32.32,0,0,1,58,42a.38.38,0,0,1,.64.27.33.33,0,0,1-.13.26A.31.31,0,0,1,58.25,42.62Z" style="fill:#fff"/><path d="M58.75,40.62a.34.34,0,0,1-.27-.12.3.3,0,0,1-.1-.25.35.35,0,0,1,.11-.27A.4.4,0,0,1,59,40a.44.44,0,0,1,.11.27.35.35,0,0,1-.13.26A.31.31,0,0,1,58.75,40.62Z" style="fill:#fff"/><path d="M58.75,36.12a.37.37,0,0,1-.27-.11.35.35,0,0,1-.1-.26.35.35,0,0,1,.11-.27.4.4,0,0,1,.53,0A.37.37,0,0,1,59,36,.39.39,0,0,1,58.75,36.12Z" style="fill:#fff"/><path d="M59.25,33.62a.36.36,0,0,1-.26-.11.34.34,0,0,1-.11-.26A.39.39,0,0,1,59,33a.4.4,0,0,1,.54,0,.41.41,0,0,1,.11.27.35.35,0,0,1-.13.26A.31.31,0,0,1,59.25,33.62Z" style="fill:#fff"/><path d="M61.75,31.62a.36.36,0,0,1-.26-.11.36.36,0,0,1-.11-.26.39.39,0,0,1,.1-.27A.39.39,0,0,1,62,31a.37.37,0,0,1,0,.53A.39.39,0,0,1,61.75,31.62Z" style="fill:#fff"/><path d="M61.75,29.12a.36.36,0,0,1-.26-.11.36.36,0,0,1-.11-.26.35.35,0,0,1,.11-.27.39.39,0,0,1,.53,0,.39.39,0,0,1,.11.27A.43.43,0,0,1,62,29,.39.39,0,0,1,61.75,29.12Z" style="fill:#fff"/><path d="M59.25,38.37a.36.36,0,0,1-.26-.11.34.34,0,0,1-.11-.26.35.35,0,0,1,.11-.27.39.39,0,0,1,.53,0,.41.41,0,0,1,.11.27.33.33,0,0,1-.13.26A.31.31,0,0,1,59.25,38.37Z" style="fill:#fff"/><path d="M61.75,41.37a.38.38,0,0,1-.37-.38.34.34,0,0,1,.11-.26.38.38,0,0,1,.64.26.44.44,0,0,1-.11.27A.39.39,0,0,1,61.75,41.37Z" style="fill:#fff"/><path d="M61.75,36.37a.38.38,0,0,1-.37-.38.37.37,0,0,1,.1-.26.36.36,0,0,1,.52,0,.35.35,0,0,1,.13.26.41.41,0,0,1-.11.27A.39.39,0,0,1,61.75,36.37Z" style="fill:#fff"/><path d="M55.25,54.87a.36.36,0,0,1-.26-.11.33.33,0,0,1-.11-.27.33.33,0,0,1,.11-.26.39.39,0,0,1,.53,0,.41.41,0,0,1,.11.26.41.41,0,0,1-.11.27A.39.39,0,0,1,55.25,54.87Z" style="fill:#fff"/><path d="M56.25,53.12a.36.36,0,0,1-.37-.37.35.35,0,0,1,.11-.27.39.39,0,0,1,.53,0,.37.37,0,0,1,0,.53A.39.39,0,0,1,56.25,53.12Z" style="fill:#fff"/><path d="M58.75,54.12a.37.37,0,0,1-.27-.11.34.34,0,0,1-.1-.26.35.35,0,0,1,.11-.27.4.4,0,0,1,.53,0,.44.44,0,0,1,.11.27A.35.35,0,0,1,59,54,.31.31,0,0,1,58.75,54.12Z" style="fill:#fff"/><path d="M4.25,54.62A.37.37,0,0,1,4,54.51.38.38,0,0,1,4.52,54a.42.42,0,0,1,.1.26.33.33,0,0,1-.12.27A.31.31,0,0,1,4.25,54.62Z" style="fill:#fff"/><path d="M6.25,56.12A.37.37,0,0,1,6,56a.38.38,0,0,1,.54-.53.42.42,0,0,1,.1.26A.33.33,0,0,1,6.5,56,.31.31,0,0,1,6.25,56.12Z" style="fill:#fff"/><path d="M6.25,53.62A.37.37,0,0,1,6,53.51a.43.43,0,0,1-.11-.26A.39.39,0,0,1,6.52,53a.43.43,0,0,1,.1.27.42.42,0,0,1-.1.26A.39.39,0,0,1,6.25,53.62Z" style="fill:#fff"/><path d="M1.75,53.12A.34.34,0,0,1,1.48,53a.38.38,0,0,1-.11-.25A.39.39,0,0,1,2,52.48a.43.43,0,0,1,.1.27A.42.42,0,0,1,2,53,.39.39,0,0,1,1.75,53.12Z" style="fill:#fff"/><path d="M62.75,68.12a.37.37,0,0,1-.27-.11.38.38,0,0,1-.1-.27.31.31,0,0,1,.11-.26.4.4,0,0,1,.53,0,.39.39,0,0,1,.11.26A.44.44,0,0,1,63,68,.39.39,0,0,1,62.75,68.12Z" style="fill:#fff"/><path d="M64.75,69.62a.37.37,0,0,1-.27-.11.38.38,0,0,1-.1-.27.33.33,0,0,1,.11-.26A.4.4,0,0,1,65,69a.41.41,0,0,1,.11.26.44.44,0,0,1-.11.27A.39.39,0,0,1,64.75,69.62Z" style="fill:#fff"/><path d="M64.75,67.12a.36.36,0,0,1-.37-.37.35.35,0,0,1,.11-.27.39.39,0,0,1,.53,0A.37.37,0,0,1,65,67,.39.39,0,0,1,64.75,67.12Z" style="fill:#fff"/><path d="M60.75,51.87a.36.36,0,0,1-.26-.11.34.34,0,0,1-.11-.26.38.38,0,0,1,.1-.27.4.4,0,0,1,.54,0,.41.41,0,0,1,.11.27.41.41,0,0,1-.11.26A.39.39,0,0,1,60.75,51.87Z" style="fill:#fff"/><path d="M3.25,64.62A.37.37,0,0,1,3,64.51a.43.43,0,0,1-.11-.26A.39.39,0,0,1,3.52,64a.43.43,0,0,1,.1.27.42.42,0,0,1-.1.26A.39.39,0,0,1,3.25,64.62Z" style="fill:#fff"/><path d="M60.25,21.12A.36.36,0,0,1,60,21a.34.34,0,0,1-.11-.26.35.35,0,0,1,.11-.27.39.39,0,0,1,.53,0,.37.37,0,0,1,0,.53A.4.4,0,0,1,60.25,21.12Z" style="fill:#fff"/><path d="M62.25,22.62a.36.36,0,0,1-.26-.11.33.33,0,0,1-.11-.26A.38.38,0,0,1,62,22a.4.4,0,0,1,.54,0,.41.41,0,0,1,.11.27.33.33,0,0,1-.13.26A.31.31,0,0,1,62.25,22.62Z" style="fill:#fff"/><path d="M62.25,20.12A.36.36,0,0,1,62,20a.35.35,0,0,1-.11-.27.37.37,0,0,1,.1-.26.37.37,0,0,1,.52,0,.35.35,0,0,1,.13.26.41.41,0,0,1-.11.27A.39.39,0,0,1,62.25,20.12Z" style="fill:#fff"/><path d="M61.75,17.62a.36.36,0,0,1-.26-.11.36.36,0,0,1-.11-.26.38.38,0,0,1,.1-.27A.39.39,0,0,1,62,17a.41.41,0,0,1,.11.27.43.43,0,0,1-.11.26A.39.39,0,0,1,61.75,17.62Z" style="fill:#fff"/><path d="M71.25,35.12A.37.37,0,0,1,71,35a.38.38,0,0,1-.1-.27.33.33,0,0,1,.11-.26.4.4,0,0,1,.53,0,.41.41,0,0,1,.11.26.41.41,0,0,1-.11.27A.39.39,0,0,1,71.25,35.12Z" style="fill:#fff"/><path d="M70.75,38.12a.33.33,0,0,1-.26-.11.34.34,0,0,1-.11-.26.35.35,0,0,1,.11-.27.39.39,0,0,1,.53,0A.37.37,0,0,1,71,38,.4.4,0,0,1,70.75,38.12Z" style="fill:#fff"/><path d="M67.25,37.12A.37.37,0,0,1,67,37a.38.38,0,0,1-.1-.27.31.31,0,0,1,.11-.26.4.4,0,0,1,.53,0,.41.41,0,0,1,.11.26.44.44,0,0,1-.11.27A.39.39,0,0,1,67.25,37.12Z" style="fill:#fff"/><path d="M67.75,40.12a.34.34,0,0,1-.27-.12.32.32,0,0,1-.1-.25.33.33,0,0,1,.11-.27.4.4,0,0,1,.53,0,.44.44,0,0,1,.11.27A.35.35,0,0,1,68,40,.31.31,0,0,1,67.75,40.12Z" style="fill:#fff"/><path d="M66.75,43.62a.37.37,0,0,1-.27-.11.38.38,0,0,1-.1-.27.31.31,0,0,1,.11-.26A.4.4,0,0,1,67,43a.39.39,0,0,1,.11.26.44.44,0,0,1-.11.27A.39.39,0,0,1,66.75,43.62Z" style="fill:#fff"/><path d="M67.75,46.12a.34.34,0,0,1-.27-.12.3.3,0,0,1-.1-.25.35.35,0,0,1,.11-.27.4.4,0,0,1,.53,0,.44.44,0,0,1,.11.27A.33.33,0,0,1,68,46,.31.31,0,0,1,67.75,46.12Z" style="fill:#fff"/><path d="M67.75,49.62a.37.37,0,0,1-.27-.11.34.34,0,0,1-.1-.26.35.35,0,0,1,.11-.27A.4.4,0,0,1,68,49a.44.44,0,0,1,.11.27.33.33,0,0,1-.13.26A.31.31,0,0,1,67.75,49.62Z" style="fill:#fff"/><path d="M69.5,52.12a.34.34,0,0,1-.27-.12.3.3,0,0,1-.1-.25.33.33,0,0,1,.11-.27.4.4,0,0,1,.53,0,.44.44,0,0,1,.11.27.37.37,0,0,1-.13.27A.34.34,0,0,1,69.5,52.12Z" style="fill:#fff"/><path d="M67.75,40.12a.34.34,0,0,1-.27-.12.32.32,0,0,1-.1-.25.33.33,0,0,1,.11-.27.4.4,0,0,1,.53,0,.44.44,0,0,1,.11.27A.35.35,0,0,1,68,40,.31.31,0,0,1,67.75,40.12Z" style="fill:#fff"/><path d="M69.5,42.37a.34.34,0,0,1-.27-.12.3.3,0,0,1-.1-.25.33.33,0,0,1,.11-.27.4.4,0,0,1,.53,0,.41.41,0,0,1,.11.27.37.37,0,0,1-.13.27A.34.34,0,0,1,69.5,42.37Z" style="fill:#fff"/><path d="M2.25,66.12A.33.33,0,0,1,2,66a.39.39,0,0,1-.12-.26A.44.44,0,0,1,2,65.48a.4.4,0,0,1,.54,0,.41.41,0,0,1,.1.27.42.42,0,0,1-.1.26A.39.39,0,0,1,2.25,66.12Z" style="fill:#fff"/><path d="M63.25,58.62a.37.37,0,0,1-.27-.11.38.38,0,0,1-.1-.27A.34.34,0,0,1,63,58a.39.39,0,0,1,.64.26.44.44,0,0,1-.11.27A.39.39,0,0,1,63.25,58.62Z" style="fill:#fff"/><path d="M64.75,55.12a.37.37,0,0,1-.27-.11.38.38,0,0,1-.1-.27.31.31,0,0,1,.11-.26.4.4,0,0,1,.53,0,.39.39,0,0,1,.11.26A.44.44,0,0,1,65,55,.39.39,0,0,1,64.75,55.12Z" style="fill:#fff"/><path d="M64.75,52.62a.37.37,0,0,1-.27-.11.38.38,0,0,1-.1-.27.34.34,0,0,1,.11-.26.39.39,0,0,1,.64.26.44.44,0,0,1-.11.27A.39.39,0,0,1,64.75,52.62Z" style="fill:#fff"/><path d="M7.25,64.37A.37.37,0,0,1,7,64.26.43.43,0,0,1,6.87,64a.39.39,0,0,1,.65-.27.43.43,0,0,1,.1.27.42.42,0,0,1-.1.26A.39.39,0,0,1,7.25,64.37Z" style="fill:#fff"/><path d="M6.75,61.87a.33.33,0,0,1-.26-.11.37.37,0,0,1-.12-.26.36.36,0,0,1,.12-.27.39.39,0,0,1,.53,0,.35.35,0,0,1,.1.26.4.4,0,0,1-.1.26A.39.39,0,0,1,6.75,61.87Z" style="fill:#fff"/><path d="M8.25,62.37A.37.37,0,0,1,8,62.26.43.43,0,0,1,7.87,62a.39.39,0,0,1,.65-.27.43.43,0,0,1,.1.27.42.42,0,0,1-.1.26A.39.39,0,0,1,8.25,62.37Z" style="fill:#fff"/><path d="M10.75,63.87a.37.37,0,0,1-.27-.11.35.35,0,0,1-.1-.26.33.33,0,0,1,.11-.27.4.4,0,0,1,.53,0,.41.41,0,0,1,.11.27.41.41,0,0,1-.11.26A.39.39,0,0,1,10.75,63.87Z" style="fill:#fff"/><path d="M11.25,60.87a.37.37,0,0,1-.27-.11.36.36,0,0,1-.1-.27.33.33,0,0,1,.11-.26.4.4,0,0,1,.53,0,.41.41,0,0,1,.11.26.35.35,0,0,1-.13.27A.31.31,0,0,1,11.25,60.87Z" style="fill:#fff"/><path d="M13.75,61.87a.36.36,0,0,1-.37-.37.32.32,0,0,1,.11-.27.38.38,0,0,1,.64.27.43.43,0,0,1-.11.26A.39.39,0,0,1,13.75,61.87Z" style="fill:#fff"/><path d="M16.25,62.87a.37.37,0,0,1-.27-.11.35.35,0,0,1-.1-.26.35.35,0,0,1,.11-.27.39.39,0,0,1,.53,0,.44.44,0,0,1,.11.27.41.41,0,0,1-.11.26A.39.39,0,0,1,16.25,62.87Z" style="fill:#fff"/><path d="M15.75,58.87a.37.37,0,0,1-.27-.11.36.36,0,0,1-.1-.27.34.34,0,0,1,.11-.26.4.4,0,0,1,.53,0,.43.43,0,0,1,.11.26.35.35,0,0,1-.13.27A.31.31,0,0,1,15.75,58.87Z" style="fill:#fff"/><path d="M13.25,59.37a.37.37,0,0,1-.27-.11.36.36,0,0,1-.1-.27.33.33,0,0,1,.11-.26.4.4,0,0,1,.53,0,.41.41,0,0,1,.11.26.34.34,0,0,1-.13.27A.31.31,0,0,1,13.25,59.37Z" style="fill:#fff"/><path d="M10.75,59.37a.36.36,0,0,1-.37-.37.35.35,0,0,1,.11-.27.4.4,0,0,1,.53,0,.37.37,0,0,1,0,.53A.39.39,0,0,1,10.75,59.37Z" style="fill:#fff"/><path d="M13.25,56.87a.37.37,0,0,1-.27-.11.35.35,0,0,1-.1-.26.35.35,0,0,1,.11-.27.4.4,0,0,1,.53,0,.44.44,0,0,1,.11.27.41.41,0,0,1-.11.26A.39.39,0,0,1,13.25,56.87Z" style="fill:#fff"/><path d="M17.25,56.87a.36.36,0,0,1-.37-.37.35.35,0,0,1,.11-.27.4.4,0,0,1,.53,0,.37.37,0,0,1,0,.53A.39.39,0,0,1,17.25,56.87Z" style="fill:#fff"/><path d="M19.25,59.87a.36.36,0,0,1-.37-.37.35.35,0,0,1,.11-.27.4.4,0,0,1,.53,0,.37.37,0,0,1,0,.53A.39.39,0,0,1,19.25,59.87Z" style="fill:#fff"/><path d="M20.25,57.37a.36.36,0,0,1-.37-.37.35.35,0,0,1,.11-.27.39.39,0,0,1,.53,0,.37.37,0,0,1,0,.53A.39.39,0,0,1,20.25,57.37Z" style="fill:#fff"/><path d="M21.75,60.87a.34.34,0,0,1-.27-.12.3.3,0,0,1-.1-.25.35.35,0,0,1,.11-.27.39.39,0,0,1,.53,0,.44.44,0,0,1,.11.27.33.33,0,0,1-.13.26A.31.31,0,0,1,21.75,60.87Z" style="fill:#fff"/><path d="M23.25,58.87a.37.37,0,0,1-.27-.11.36.36,0,0,1-.1-.27.33.33,0,0,1,.11-.26.4.4,0,0,1,.53,0,.37.37,0,0,1,0,.53A.39.39,0,0,1,23.25,58.87Z" style="fill:#fff"/><path d="M22.25,62.37a.37.37,0,0,1-.27-.11.35.35,0,0,1-.1-.26.33.33,0,0,1,.11-.27.4.4,0,0,1,.53,0,.37.37,0,0,1,0,.53A.39.39,0,0,1,22.25,62.37Z" style="fill:#fff"/><path d="M24.25,61.37a.36.36,0,0,1-.26-.11.33.33,0,0,1-.11-.26.33.33,0,0,1,.11-.27.39.39,0,0,1,.53,0,.37.37,0,0,1,0,.53A.39.39,0,0,1,24.25,61.37Z" style="fill:#fff"/><path d="M23.75,64.37a.37.37,0,0,1-.27-.11.38.38,0,0,1-.1-.27.34.34,0,0,1,.11-.26.4.4,0,0,1,.53,0,.37.37,0,0,1,0,.53A.39.39,0,0,1,23.75,64.37Z" style="fill:#fff"/><path d="M25.75,62.87a.36.36,0,0,1-.37-.37.33.33,0,0,1,.11-.27.4.4,0,0,1,.53,0,.41.41,0,0,1,.11.27.43.43,0,0,1-.11.26A.39.39,0,0,1,25.75,62.87Z" style="fill:#fff"/><path d="M37.25,64.37a.36.36,0,0,1-.26-.11.33.33,0,0,1-.11-.26.33.33,0,0,1,.11-.27.39.39,0,0,1,.53,0,.41.41,0,0,1,.11.27.41.41,0,0,1-.11.26A.39.39,0,0,1,37.25,64.37Z" style="fill:#fff"/><path d="M52.25,68.62a.36.36,0,0,1-.26-.11.34.34,0,0,1-.11-.26A.39.39,0,0,1,52,68a.39.39,0,0,1,.54,0,.37.37,0,0,1,0,.53A.39.39,0,0,1,52.25,68.62Z" style="fill:#fff"/><path d="M38.75,61.87a.36.36,0,0,1-.26-.11.33.33,0,0,1-.11-.26.33.33,0,0,1,.11-.27.39.39,0,0,1,.53,0,.37.37,0,0,1,0,.53A.39.39,0,0,1,38.75,61.87Z" style="fill:#fff"/><path d="M40.75,59.87a.42.42,0,0,1-.26-.1.36.36,0,0,1-.11-.27.32.32,0,0,1,.11-.27.39.39,0,0,1,.53,0,.41.41,0,0,1,.11.27.43.43,0,0,1-.11.26A.4.4,0,0,1,40.75,59.87Z" style="fill:#fff"/><path d="M38.25,58.87a.36.36,0,0,1-.26-.11.33.33,0,0,1-.11-.26.33.33,0,0,1,.11-.27.39.39,0,0,1,.53,0,.37.37,0,0,1,0,.53A.39.39,0,0,1,38.25,58.87Z" style="fill:#fff"/><path d="M43.75,58.37a.36.36,0,0,1-.26-.11.35.35,0,0,1-.11-.27.33.33,0,0,1,.11-.26.39.39,0,0,1,.53,0,.37.37,0,0,1,0,.53A.39.39,0,0,1,43.75,58.37Z" style="fill:#fff"/><path d="M45.25,61.37a.36.36,0,0,1-.26-.11.35.35,0,0,1-.11-.27.33.33,0,0,1,.11-.26.37.37,0,0,1,.51,0,.4.4,0,0,1,.13.27.44.44,0,0,1-.11.27A.39.39,0,0,1,45.25,61.37Z" style="fill:#fff"/><path d="M46.75,58.37a.34.34,0,0,1-.27-.12.3.3,0,0,1-.1-.25.36.36,0,0,1,.11-.28.41.41,0,0,1,.53,0,.41.41,0,0,1,.11.27.33.33,0,0,1-.13.26A.33.33,0,0,1,46.75,58.37Z" style="fill:#fff"/><path d="M49.25,61.37a.36.36,0,0,1-.26-.11.34.34,0,0,1-.11-.26.39.39,0,0,1,.1-.27.39.39,0,0,1,.54,0,.37.37,0,0,1,0,.53A.39.39,0,0,1,49.25,61.37Z" style="fill:#fff"/><path d="M46.25,63.37a.36.36,0,0,1-.26-.11.31.31,0,0,1-.11-.26.36.36,0,0,1,.11-.28.41.41,0,0,1,.53,0,.41.41,0,0,1,.11.27.33.33,0,0,1-.13.26A.31.31,0,0,1,46.25,63.37Z" style="fill:#fff"/><path d="M55.25,62.87a.36.36,0,0,1-.26-.11.33.33,0,0,1-.11-.27.35.35,0,0,1,.11-.27.41.41,0,0,1,.53,0,.39.39,0,0,1,.11.26.41.41,0,0,1-.11.27A.39.39,0,0,1,55.25,62.87Z" style="fill:#fff"/><path d="M54.25,60.37a.36.36,0,0,1-.37-.37.35.35,0,0,1,.11-.27.39.39,0,0,1,.53,0,.37.37,0,0,1,0,.53A.39.39,0,0,1,54.25,60.37Z" style="fill:#fff"/><path d="M57.75,59.87a.36.36,0,0,1-.26-.11.33.33,0,0,1-.11-.26.33.33,0,0,1,.11-.27.39.39,0,0,1,.53,0,.41.41,0,0,1,.11.27.41.41,0,0,1-.11.26A.39.39,0,0,1,57.75,59.87Z" style="fill:#fff"/><path d="M54.25,56.87a.37.37,0,0,1-.27-.11.38.38,0,0,1-.1-.27.34.34,0,0,1,.11-.26.38.38,0,0,1,.51,0,.4.4,0,0,1,.13.27.44.44,0,0,1-.11.27A.4.4,0,0,1,54.25,56.87Z" style="fill:#fff"/><path d="M62.25,60.37a.36.36,0,0,1-.26-.11.35.35,0,0,1-.11-.27.37.37,0,0,1,.1-.26.37.37,0,0,1,.52,0,.35.35,0,0,1,.13.26.41.41,0,0,1-.11.27A.39.39,0,0,1,62.25,60.37Z" style="fill:#fff"/><path d="M65.25,60.87a.37.37,0,0,1-.27-.11.35.35,0,0,1-.1-.26.35.35,0,0,1,.11-.27.4.4,0,0,1,.53,0,.44.44,0,0,1,.11.27.35.35,0,0,1-.13.26A.31.31,0,0,1,65.25,60.87Z" style="fill:#fff"/><path d="M65.25,56.87a.36.36,0,0,1-.37-.37.35.35,0,0,1,.11-.27.4.4,0,0,1,.53,0,.37.37,0,0,1,0,.53A.39.39,0,0,1,65.25,56.87Z" style="fill:#fff"/><path d="M33.75,61.12a.36.36,0,0,1-.26-.11.33.33,0,0,1-.11-.26.33.33,0,0,1,.11-.27.39.39,0,0,1,.53,0A.37.37,0,0,1,34,61,.39.39,0,0,1,33.75,61.12Z" style="fill:#fff"/><path d="M31.75,56.87a.36.36,0,0,1-.26-.11.33.33,0,0,1-.11-.26.33.33,0,0,1,.11-.27.39.39,0,0,1,.53,0,.37.37,0,0,1,0,.53A.39.39,0,0,1,31.75,56.87Z" style="fill:#fff"/><path d="M31.75,68.12a.36.36,0,0,1-.26-.11.33.33,0,0,1-.11-.26.33.33,0,0,1,.11-.27.39.39,0,0,1,.53,0A.37.37,0,0,1,32,68,.39.39,0,0,1,31.75,68.12Z" style="fill:#fff"/><path d="M28.75,68.87a.36.36,0,0,1-.26-.11.31.31,0,0,1-.11-.26.35.35,0,0,1,.11-.27.36.36,0,0,1,.51,0,.41.41,0,0,1,.13.28.33.33,0,0,1-.13.26A.31.31,0,0,1,28.75,68.87Z" style="fill:#fff"/><path d="M28.25,66.12a.36.36,0,0,1-.37-.37.35.35,0,0,1,.11-.27.4.4,0,0,1,.53,0,.44.44,0,0,1,.11.27.41.41,0,0,1-.11.26A.39.39,0,0,1,28.25,66.12Z" style="fill:#fff"/><path d="M1.75,56.87a.34.34,0,0,1-.27-.12.37.37,0,0,1-.11-.26A.39.39,0,0,1,2,56.23a.42.42,0,0,1,.1.26.34.34,0,0,1-.12.27A.31.31,0,0,1,1.75,56.87Z" style="fill:#fff"/><path d="M2.75,61.87a.37.37,0,0,1-.27-.11.43.43,0,0,1-.11-.26A.39.39,0,0,1,3,61.23a.43.43,0,0,1,.1.27.42.42,0,0,1-.1.26A.39.39,0,0,1,2.75,61.87Z" style="fill:#fff"/><path d="M4.25,58.37A.37.37,0,0,1,4,58.26.41.41,0,0,1,3.87,58,.39.39,0,0,1,4,57.73a.39.39,0,0,1,.53,0,.42.42,0,0,1,.1.26.34.34,0,0,1-.12.27A.31.31,0,0,1,4.25,58.37Z" style="fill:#fff"/><path d="M25.75,66.62a.36.36,0,0,1-.37-.37.35.35,0,0,1,.11-.27A.39.39,0,0,1,26,66a.37.37,0,0,1,0,.53A.39.39,0,0,1,25.75,66.62Z" style="fill:#fff"/><path d="M8.5,71.62a.39.39,0,0,1-.38-.38A.37.37,0,0,1,8.24,71a.39.39,0,0,1,.53,0,.42.42,0,0,1,.1.26.33.33,0,0,1-.12.27A.31.31,0,0,1,8.5,71.62Z" style="fill:#fff"/><path d="M52.5,64.12a.36.36,0,0,1-.26-.11.34.34,0,0,1-.11-.26.38.38,0,0,1,.1-.27.4.4,0,0,1,.54,0,.37.37,0,0,1,0,.53A.39.39,0,0,1,52.5,64.12Z" style="fill:#fff"/><path d="M39.25,63.62a.36.36,0,0,1-.26-.11.31.31,0,0,1-.11-.26A.32.32,0,0,1,39,63a.39.39,0,0,1,.53,0,.41.41,0,0,1,.11.27.33.33,0,0,1-.13.26A.31.31,0,0,1,39.25,63.62Z" style="fill:#fff"/><path d="M41.25,63.62a.36.36,0,0,1-.26-.11.33.33,0,0,1-.11-.26A.33.33,0,0,1,41,63a.39.39,0,0,1,.53,0,.37.37,0,0,1,0,.53A.39.39,0,0,1,41.25,63.62Z" style="fill:#fff"/><path d="M38.5,71.62a.36.36,0,0,1-.26-.11.31.31,0,0,1-.11-.26.32.32,0,0,1,.11-.27.39.39,0,0,1,.53,0,.41.41,0,0,1,.11.27.33.33,0,0,1-.13.26A.31.31,0,0,1,38.5,71.62Z" style="fill:#fff"/><path d="M35.5,71.62a.37.37,0,0,1-.27-.11.36.36,0,0,1-.1-.27.33.33,0,0,1,.11-.26.4.4,0,0,1,.53,0,.41.41,0,0,1,.11.26.41.41,0,0,1-.11.27A.39.39,0,0,1,35.5,71.62Z" style="fill:#fff"/><path d="M32.5,71.12a.36.36,0,0,1-.37-.37.33.33,0,0,1,.11-.27.4.4,0,0,1,.53,0,.41.41,0,0,1,.11.27.43.43,0,0,1-.11.26A.39.39,0,0,1,32.5,71.12Z" style="fill:#fff"/><path d="M25.75,72.12a.37.37,0,0,1-.27-.11.38.38,0,0,1-.1-.27.34.34,0,0,1,.11-.26.4.4,0,0,1,.53,0A.37.37,0,0,1,26,72,.39.39,0,0,1,25.75,72.12Z" style="fill:#fff"/><path d="M22.75,72.12a.37.37,0,0,1-.27-.11.35.35,0,0,1-.1-.26.32.32,0,0,1,.11-.27.4.4,0,0,1,.53,0,.41.41,0,0,1,.11.27A.43.43,0,0,1,23,72,.39.39,0,0,1,22.75,72.12Z" style="fill:#fff"/><path d="M19.75,71.62a.37.37,0,0,1-.27-.11.36.36,0,0,1-.1-.27.34.34,0,0,1,.11-.26A.4.4,0,0,1,20,71a.43.43,0,0,1,.11.26.34.34,0,0,1-.13.27A.31.31,0,0,1,19.75,71.62Z" style="fill:#fff"/><path d="M71.25,63.87a.36.36,0,0,1-.37-.37.35.35,0,0,1,.11-.27.39.39,0,0,1,.53,0,.37.37,0,0,1,0,.53A.39.39,0,0,1,71.25,63.87Z" style="fill:#fff"/><path d="M70.25,71.62a.36.36,0,0,1-.26-.11.33.33,0,0,1-.11-.26A.33.33,0,0,1,70,71a.39.39,0,0,1,.53,0,.41.41,0,0,1,.11.27.35.35,0,0,1-.13.26A.31.31,0,0,1,70.25,71.62Z" style="fill:#fff"/><path d="M66.75,72.37a.37.37,0,0,1-.27-.11.35.35,0,0,1-.1-.26.35.35,0,0,1,.11-.27.4.4,0,0,1,.53,0,.44.44,0,0,1,.11.27.35.35,0,0,1-.13.26A.31.31,0,0,1,66.75,72.37Z" style="fill:#fff"/><path d="M48.75,72.12a.36.36,0,0,1-.26-.11.35.35,0,0,1-.11-.27.33.33,0,0,1,.11-.26.39.39,0,0,1,.53,0,.41.41,0,0,1,.11.26A.44.44,0,0,1,49,72,.39.39,0,0,1,48.75,72.12Z" style="fill:#fff"/><path d="M46.75,70.62a.36.36,0,0,1-.37-.37.35.35,0,0,1,.11-.27A.4.4,0,0,1,47,70a.37.37,0,0,1,0,.53A.4.4,0,0,1,46.75,70.62Z" style="fill:#fff"/><path d="M60.25,71.62a.36.36,0,0,1-.37-.37A.35.35,0,0,1,60,71a.39.39,0,0,1,.53,0,.37.37,0,0,1,0,.53A.39.39,0,0,1,60.25,71.62Z" style="fill:#fff"/><path d="M22.5,70.37a.36.36,0,0,1-.37-.37.35.35,0,0,1,.11-.27.4.4,0,0,1,.53,0,.37.37,0,0,1,0,.53A.39.39,0,0,1,22.5,70.37Z" style="fill:#fff"/><path d="M2.5,70.12A.36.36,0,0,1,2.24,70a.37.37,0,0,1-.12-.26.36.36,0,0,1,.12-.27.39.39,0,0,1,.53,0,.43.43,0,0,1,.1.27.42.42,0,0,1-.1.26A.39.39,0,0,1,2.5,70.12Z" style="fill:#fff"/><path d="M43,71.12a.36.36,0,0,1-.26-.11.31.31,0,0,1-.11-.26.32.32,0,0,1,.11-.27.39.39,0,0,1,.53,0,.41.41,0,0,1,.11.27.33.33,0,0,1-.13.26A.31.31,0,0,1,43,71.12Z" style="fill:#fff"/><path d="M45.75,68.37a.36.36,0,0,1-.26-.11.33.33,0,0,1-.11-.26.33.33,0,0,1,.11-.27.39.39,0,0,1,.53,0,.37.37,0,0,1,0,.53A.39.39,0,0,1,45.75,68.37Z" style="fill:#fff"/><path d="M56,70.87a.36.36,0,0,1-.26-.11.34.34,0,0,1-.11-.26.39.39,0,0,1,.1-.27.4.4,0,0,1,.54,0,.41.41,0,0,1,.11.27.33.33,0,0,1-.13.26A.31.31,0,0,1,56,70.87Z" style="fill:#fff"/><path d="M68.25,69.12a.36.36,0,0,1-.37-.37.35.35,0,0,1,.11-.27.4.4,0,0,1,.53,0,.37.37,0,0,1,0,.53A.39.39,0,0,1,68.25,69.12Z" style="fill:#fff"/><path d="M29.5,71.12a.36.36,0,0,1-.26-.11.33.33,0,0,1-.11-.27.33.33,0,0,1,.11-.26.39.39,0,0,1,.53,0,.41.41,0,0,1,.11.26.44.44,0,0,1-.11.27A.39.39,0,0,1,29.5,71.12Z" style="fill:#fff"/><path d="M16.25,70.62a.37.37,0,0,1-.27-.11.38.38,0,0,1-.1-.27A.34.34,0,0,1,16,70a.4.4,0,0,1,.53,0,.37.37,0,0,1,0,.53A.39.39,0,0,1,16.25,70.62Z" style="fill:#fff"/><path d="M11.75,71.87a.36.36,0,0,1-.37-.37.35.35,0,0,1,.11-.27.39.39,0,0,1,.53,0,.41.41,0,0,1,.11.27.41.41,0,0,1-.11.26A.39.39,0,0,1,11.75,71.87Z" style="fill:#fff"/><path d="M4,71.12A.37.37,0,0,1,3.73,71a.41.41,0,0,1-.11-.27.39.39,0,0,1,.65-.26.42.42,0,0,1,.1.26.34.34,0,0,1-.12.27A.31.31,0,0,1,4,71.12Z" style="fill:#fff"/><path d="M1,6.87a.37.37,0,0,1-.27-.11.44.44,0,0,1-.11-.27.39.39,0,0,1,.12-.26.4.4,0,0,1,.53,0,.4.4,0,0,1,.1.26.34.34,0,0,1-.12.27A.31.31,0,0,1,1,6.87Z" style="fill:#fff"/><path d="M70,8.62a.37.37,0,0,1-.27-.11.36.36,0,0,1-.1-.27A.35.35,0,0,1,69.74,8a.41.41,0,0,1,.53,0,.39.39,0,0,1,.11.26.41.41,0,0,1-.11.27A.39.39,0,0,1,70,8.62Z" style="fill:#fff"/><path d="M70,31.62a.37.37,0,0,1-.27-.11.36.36,0,0,1-.1-.27.35.35,0,0,1,.11-.27.41.41,0,0,1,.53,0,.39.39,0,0,1,.11.26.41.41,0,0,1-.11.27A.39.39,0,0,1,70,31.62Z" style="fill:#fff"/><path d="M1.5,50.62a.37.37,0,0,1-.27-.11.44.44,0,0,1-.11-.27A.39.39,0,0,1,1.24,50a.39.39,0,0,1,.53,0,.42.42,0,0,1,.1.26.34.34,0,0,1-.12.27A.31.31,0,0,1,1.5,50.62Z" style="fill:#fff"/><path d="M70.25,2.87A.37.37,0,0,1,70,2.76a.35.35,0,0,1-.1-.26A.33.33,0,0,1,70,2.23a.4.4,0,0,1,.53,0,.41.41,0,0,1,.11.27.41.41,0,0,1-.11.26A.39.39,0,0,1,70.25,2.87Z" style="fill:#fff"/><path d="M1,2.62a.37.37,0,0,1-.27-.11.43.43,0,0,1-.11-.26A.4.4,0,0,1,.74,2a.4.4,0,0,1,.53,0,.43.43,0,0,1,.1.27.42.42,0,0,1-.1.26A.39.39,0,0,1,1,2.62Z" style="fill:#fff"/><path d="M69.25,28.87a.34.34,0,0,1-.27-.12.3.3,0,0,1-.1-.25.33.33,0,0,1,.11-.27.4.4,0,0,1,.53,0,.44.44,0,0,1,.11.27.33.33,0,0,1-.13.26A.31.31,0,0,1,69.25,28.87Z" style="fill:#fff"/><path d="M66.75.37a.34.34,0,0,1-.27-.12.32.32,0,0,1-.1-.25.35.35,0,0,1,.11-.27.4.4,0,0,1,.53,0,.44.44,0,0,1,.11.27A.35.35,0,0,1,67,.26.31.31,0,0,1,66.75.37Z" style="fill:#fff"/><path d="M25.75.12A.37.37,0,0,1,25.48,0a.38.38,0,0,1-.1-.27.34.34,0,0,1,.11-.26.4.4,0,0,1,.53,0,.43.43,0,0,1,.11.26A.44.44,0,0,1,26,0,.39.39,0,0,1,25.75.12Z" style="fill:#fff"/><path d="M22.75.12A.37.37,0,0,1,22.48,0a.35.35,0,0,1-.1-.26.32.32,0,0,1,.11-.27.4.4,0,0,1,.53,0,.41.41,0,0,1,.11.27A.43.43,0,0,1,23,0,.39.39,0,0,1,22.75.12Z" style="fill:#fff"/><path d="M66.75.37a.37.37,0,0,1-.27-.11.35.35,0,0,1-.1-.26.35.35,0,0,1,.11-.27.4.4,0,0,1,.53,0,.44.44,0,0,1,.11.27A.35.35,0,0,1,67,.26.31.31,0,0,1,66.75.37Z" style="fill:#fff"/><path d="M48.75.12A.36.36,0,0,1,48.49,0a.35.35,0,0,1-.11-.27.33.33,0,0,1,.11-.26.39.39,0,0,1,.53,0,.41.41,0,0,1,.11.26A.44.44,0,0,1,49,0,.39.39,0,0,1,48.75.12Z" style="fill:#fff"/></pattern></defs><title>man</title><g id="_2" data-name=" 2"><g style="clip-path:url(#clip-path)"><path d="M62.12,70.52a44.4,44.4,0,0,1-2.66-12.8c0-2.36-.9-8.95-9.56-8.95s-9.46,9.1-9.46,9.1A28.22,28.22,0,0,1,38.1,70.52S49,78.81,62.12,70.52Z" transform="translate(-8 -1.32)" style="fill:#ffd3b6"/><path d="M59.46,57.72c0-2.36-.9-8.95-9.56-8.95s-9.46,9.1-9.46,9.1a19.15,19.15,0,0,1,0,3.77A15.89,15.89,0,0,0,56.53,63a15.4,15.4,0,0,0,3.21-2.15A23.23,23.23,0,0,1,59.46,57.72Z" transform="translate(-8 -1.32)" style="fill:#f7a894"/><path d="M28.65,43.24c.44.91,3.74,5.51,4.85,3.59.56-1,.12-3.36,0-4.43a25.3,25.3,0,0,0-.8-4.49,5.51,5.51,0,0,0-1.52-2.85c-1.68-1.41-3.34-.13-3.72,1.68A10.57,10.57,0,0,0,28.65,43.24Z" transform="translate(-8 -1.32)" style="fill:#f7a894"/><path d="M70.93,43.24c-.43.91-3.74,5.51-4.84,3.59-.56-1-.13-3.36,0-4.43a25.3,25.3,0,0,1,.8-4.49,5.57,5.57,0,0,1,1.51-2.85c1.68-1.41,3.35-.13,3.73,1.68A10.57,10.57,0,0,1,70.93,43.24Z" transform="translate(-8 -1.32)" style="fill:#f7a894"/><path d="M67.64,37c0,1.27-.12,2.54-.21,3.82A27,27,0,0,1,64.61,52a19.51,19.51,0,0,1-8.08,8.23,15.88,15.88,0,0,1-16.75-1.82A20.31,20.31,0,0,1,33,47.33a29,29,0,0,1-1-10.89s1.09-11.39,3.42-16.29S42,8,49.09,8.2C60.7,8.61,68.39,14.42,67.64,37Z" transform="translate(-8 -1.32)" style="fill:#ffd3b6"/><path d="M67.5,39.76a40.85,40.85,0,0,0-.62-10.12c-.36-1.6-.73-3.2-1.11-4.79-.23-.93-.52-1.86-.81-2.78a3.9,3.9,0,0,0-3.39-2.51c-.11,0-.18-.08-.18-.18A10.19,10.19,0,0,1,61,22.82,3.09,3.09,0,0,1,55.55,24a10.09,10.09,0,0,1-1.79-2.82A8.35,8.35,0,0,1,54,23.94a2.83,2.83,0,0,1-1.4,2.22,3.83,3.83,0,0,1-3.06-.22,17.5,17.5,0,0,1-4.23-2.44,40.42,40.42,0,0,1-3.77-4s-1.19,0-2.55-.06c-2.29-.11-3.79.66-4.3,2.54-1.55,5.79-2.95,11.77-2.64,17.75C31.82,35.21,30,34.53,30,34.53A101.61,101.61,0,0,1,31.49,20.6c.46-2.13,1.59-4.28,1.6-6.44A2.84,2.84,0,0,1,34,11.69a2.79,2.79,0,0,1,1.42-.61,6.11,6.11,0,0,1,1.35.17A19.81,19.81,0,0,1,49.69,2.18,7.57,7.57,0,0,1,54,2.33a3.48,3.48,0,0,1,2.31,3.4A13.55,13.55,0,0,1,65.7,4.48a5.46,5.46,0,0,1,3.17,1.74,2.56,2.56,0,0,1,0,3.35,5.28,5.28,0,0,1,1.59,8.79,10.84,10.84,0,0,0-1.17,1.07c-.76.94-.1,2.05,0,3.11.17,1.28.28,2.57.33,3.85,0,.76.28,7.79-.19,7.9,0,0-1.61.36-1.93,5.47" transform="translate(-8 -1.32)" style="fill:#a8856c;stroke:#a8856c;stroke-linecap:round;stroke-linejoin:round;stroke-width:1.2404600000000001px"/><path d="M45,28.72a13.37,13.37,0,0,0-7.77.33,1.28,1.28,0,0,0-.87,1.53,1.26,1.26,0,0,0,1.53.86A13.19,13.19,0,0,1,39.65,31l.38-.07.18,0c.3,0,.6-.06.9-.08a10.21,10.21,0,0,1,3.25.33,1.26,1.26,0,0,0,1.53-.86A1.27,1.27,0,0,0,45,28.72Z" transform="translate(-8 -1.32)" style="fill:#a8856c"/><path d="M55.34,31.11c.29-.07.59-.14.88-.19l.38-.06.32,0a13.26,13.26,0,0,1,1.67,0l.84.07h0l.25,0,.38.07a11.81,11.81,0,0,1,1.74.48,1.25,1.25,0,0,0,1.53-.86,1.27,1.27,0,0,0-.87-1.53,13.37,13.37,0,0,0-7.77-.33,1.24,1.24,0,0,0,.66,2.39Z" transform="translate(-8 -1.32)" style="fill:#a8856c"/><path d="M58.57,38.49a1.78,1.78,0,1,1,1.73-1.77,1.78,1.78,0,0,1-1.73,1.77Z" transform="translate(-8 -1.32)" style="fill:#a8856c"/><path d="M41.13,38.49a1.78,1.78,0,1,1,1.74-1.77,1.78,1.78,0,0,1-1.74,1.77Z" transform="translate(-8 -1.32)" style="fill:#a8856c"/><path d="M51.31,33a46.79,46.79,0,0,0,.52,12.11,1.24,1.24,0,0,0,1.52.86,1.27,1.27,0,0,0,.87-1.52A44.35,44.35,0,0,1,53.79,33a1.25,1.25,0,0,0-1.24-1.24A1.27,1.27,0,0,0,51.31,33Z" transform="translate(-8 -1.32)" style="fill:#f7a894"/><path d="M52.28,45.62h-.15a.81.81,0,0,0,0,1.61h.15a.81.81,0,0,0,0-1.61Z" transform="translate(-8 -1.32)" style="fill:#f7a894"/><path d="M47.42,47.16h.07a.81.81,0,0,0,0-1.62h-.07a.81.81,0,0,0,0,1.62Z" transform="translate(-8 -1.32)" style="fill:#f7a894"/><path d="M41.75,51a12.16,12.16,0,0,0,10.49,3.47A1.24,1.24,0,0,0,53.11,53a1.28,1.28,0,0,0-1.53-.87h-.09l-.29,0c-.21,0-.43,0-.64,0a11,11,0,0,1-1.15,0,3.3,3.3,0,0,1-.45-.06L48.4,52a12.15,12.15,0,0,1-1.18-.33,9.58,9.58,0,0,1-3.71-2.37c-1.12-1.15-2.87.6-1.76,1.75Z" transform="translate(-8 -1.32)" style="fill:#f7a894"/><path d="M91.23,119.41c-.79-5.43-1.64-10.83-2.46-16l-.27-1.68c-1-6.24-2.21-14-4.6-20.22-1.42-3.67-5-4.94-8.23-6-.87-.31-1.7-.6-2.45-.93a83,83,0,0,1-12-6.29L61,68.08H38.79l-.17.11A78.62,78.62,0,0,1,27,74.49c-.74.34-1.58.63-2.45.93-3.19,1.12-6.81,2.39-8.23,6-2.4,6.21-3.62,14-4.61,20.23l-.31,2c-.81,5.12-1.65,10.42-2.43,15.75l-.12.82,82.49,0Z" transform="translate(-8 -1.32)" style="fill:#4d4d59"/><path d="M91.23,119.41c-.79-5.43-1.64-10.83-2.46-16l-.27-1.68c-1-6.24-2.21-14-4.6-20.22-1.42-3.67-5-4.94-8.23-6-.87-.31-1.7-.6-2.45-.93a83,83,0,0,1-12-6.29L61,68.08H38.79l-.17.11A78.62,78.62,0,0,1,27,74.49c-.74.34-1.58.63-2.45.93-3.19,1.12-6.81,2.39-8.23,6-2.4,6.21-3.62,14-4.61,20.23l-.31,2c-.81,5.12-1.65,10.42-2.43,15.75l-.12.82,82.49,0Z" transform="translate(-8 -1.32)" style="fill:url(#USGS_17A_Arena_volandera)"/><path d="M26.72,73.85c-.73.31-1.54.59-2.4.89-3.18,1.09-7.14,2.46-8.68,6.38C13.21,87.3,12,95,11,101.16l-.32,2c-.81,5-1.64,10.23-2.42,15.46L8,120.26H34.5V70l-1.11.62A72.74,72.74,0,0,1,26.72,73.85Z" transform="translate(-8 -1.32)" style="fill:#aa4d00"/><path d="M92.32,118.62c-.78-5.23-1.62-10.43-2.43-15.51l-.32-2c-1-6.18-2.22-13.86-4.65-20-1.54-3.92-5.5-5.29-8.7-6.39-.84-.29-1.65-.57-2.37-.88a71.71,71.71,0,0,1-6.68-3.28L66.06,70v50.3h26.5Z" transform="translate(-8 -1.32)" style="fill:#aa4d00"/><polygon points="51.51 65.66 54.38 66.97 42.55 92.66 29.88 66.97 32.48 65.66 51.51 65.66" style="fill:#ffd3b6"/><path d="M74.52,94.77l.73,8.31,1.17,13.33.27,3a1.18,1.18,0,0,0,1.14,1.14A1.14,1.14,0,0,0,79,119.46l-.73-8.31L77.06,97.82l-.26-3a1.18,1.18,0,0,0-1.14-1.14,1.15,1.15,0,0,0-1.14,1.14Z" transform="translate(-8 -1.32)" style="fill:#935006"/><path d="M23.42,94.77l-.73,8.31-1.17,13.33-.27,3a1.15,1.15,0,0,0,1.14,1.14,1.17,1.17,0,0,0,1.14-1.14l.73-8.31,1.17-13.33.27-3a1.15,1.15,0,0,0-1.14-1.14,1.17,1.17,0,0,0-1.14,1.14Z" transform="translate(-8 -1.32)" style="fill:#935006"/><polygon points="37.77 76.5 42.55 92.66 35.18 80.06 37.77 76.5" style="fill:#353535"/><polygon points="31.92 62.74 26.95 69.28 32.28 85.15 37.77 76.5 31.92 62.74" style="fill:#262626"/><polygon points="46.39 76.5 42.55 92.66 48.98 80.06 46.39 76.5" style="fill:#353535"/><polygon points="52.24 62.74 57.21 69.28 51.88 85.15 46.39 76.5 52.24 62.74" style="fill:#262626"/><path d="M52,119.68V93.82a1.24,1.24,0,0,0-2.48,0v25.86a1.24,1.24,0,0,0,2.48,0Z" transform="translate(-8 -1.32)" style="fill:#353535"/><path d="M54.93,98.33A1.35,1.35,0,1,1,53.58,97,1.34,1.34,0,0,1,54.93,98.33Z" transform="translate(-8 -1.32)" style="fill:#353535"/><path d="M54.93,104.94a1.35,1.35,0,1,1-1.35-1.36A1.35,1.35,0,0,1,54.93,104.94Z" transform="translate(-8 -1.32)" style="fill:#2600c4"/><path d="M54.93,111.54a1.35,1.35,0,1,1-1.35-1.35A1.34,1.34,0,0,1,54.93,111.54Z" transform="translate(-8 -1.32)" style="fill:#2600c4"/><path d="M54.93,118.15a1.35,1.35,0,1,1-1.35-1.36A1.35,1.35,0,0,1,54.93,118.15Z" transform="translate(-8 -1.32)" style="fill:#2600c4"/></g></g></svg>