<svg id="Слой_1" data-name="Слой 1" xmlns="http://www.w3.org/2000/svg" xmlns:xlink="http://www.w3.org/1999/xlink" viewBox="0 0 78.06 127.62"><defs><clipPath id="clip-path" transform="translate(-10.97 -3.35)"><rect width="100" height="100" style="fill:none"/></clipPath></defs><title>woman</title><g style="clip-path:url(#clip-path)"><path d="M66.2,62.73c1.58-3.31,4-6,6.4-8.8a35.93,35.93,0,0,0,6.29-9.39,25.12,25.12,0,0,0-9.57-30.77C68,12.89,66.74,15,68.07,15.91A22.78,22.78,0,0,1,78.23,32.36,23.52,23.52,0,0,1,76.81,43.1a30.51,30.51,0,0,1-5.7,8.77c-2.59,3-5.33,6-7.06,9.61a1.27,1.27,0,0,0,.45,1.69,1.25,1.25,0,0,0,1.7-.44Z" transform="translate(-10.97 -3.35)" style="fill:#724b46"/><path d="M69.73,13.74A25.53,25.53,0,0,1,78.05,34.8c-.64,6.71-4,12.49-7,18.2s-6,11.85-5.7,18.69c-5-4.89-7.07-12-8.87-18.71C53.7,42.7,51,32.36,49.51,21.8c-.45-3.31-1.5-6.93-.46-10.22C50.46,7.13,56.65,8,60.11,8.84A22.83,22.83,0,0,1,69.73,13.74Z" transform="translate(-10.97 -3.35)" style="fill:#724b46"/><path d="M41.8,72.44c-4.39,2.9-10.1,5-14.72,7.18-1,.45-2.12.84-3.27,1.27-4.22,1.56-7.35,6.12-8,11.68L11,130.43l78.06.41L84.29,92.57c-.69-5.56-3.82-10.12-8-11.68C75.1,80.46,74,80.07,73,79.62c-4.62-2.13-11.32-4.28-15.71-7.18Z" transform="translate(-10.97 -3.35)" style="fill:#dd7622"/><path d="M83.88,90.41c-1.14-4.56-4-8.17-7.63-9.52C75.1,80.46,74,80.07,73,79.62c-4.62-2.13-11.32-4.28-15.71-7.18H41.8c-4.39,2.9-10.1,5-14.72,7.18-1,.45-2.12.84-3.27,1.27-3.66,1.35-6.49,5-7.63,9.52Z" transform="translate(-10.97 -3.35)" style="fill:#ffd3b6"/><path d="M53.42,80.71c0-.27.35-.39.61-.44,3.14-.69,6.49-.45,9.45-1.67" transform="translate(-10.97 -3.35)" style="fill:#f7a894"/><path d="M54.5,81a.64.64,0,0,1-.29.37l.29-.07.53-.1L56.15,81l2.58-.27a19.28,19.28,0,0,0,5.05-1.08,1.16,1.16,0,0,0,.78-1.37,1.12,1.12,0,0,0-1.37-.78,20.05,20.05,0,0,1-5.53,1.11c-1,.1-2,.21-3,.37s-2,.33-2.35,1.4c-.42,1.37,1.73,2,2.15.59Z" transform="translate(-10.97 -3.35)" style="fill:#f7a894"/><path d="M46.94,80.71c0-.27-.35-.39-.61-.44-3.13-.69-6.48-.45-9.45-1.67" transform="translate(-10.97 -3.35)" style="fill:#f7a894"/><path d="M48,80.41c-.31-1-1.32-1.23-2.26-1.39s-2-.28-3-.38a19.91,19.91,0,0,1-5.52-1.11,1.11,1.11,0,0,0-1.37.78,1.14,1.14,0,0,0,.77,1.37,19.46,19.46,0,0,0,5.05,1.08c.83.09,1.67.16,2.5.26.37,0,.75.1,1.12.17l.61.11.29.07a.59.59,0,0,1-.28-.37c.41,1.37,2.57.79,2.14-.59Z" transform="translate(-10.97 -3.35)" style="fill:#f7a894"/><path d="M21.48,98.09a119.67,119.67,0,0,0,1,14.53c.19,1.47.41,2.95.65,4.42A33.71,33.71,0,0,0,25,123.33c.87,2.31,1.84,4.59,2.64,6.93.43,1.26,2.44.72,2-.55-1.42-4.17-3.48-8.17-4.39-12.5A82.31,82.31,0,0,1,24,107.32c-.25-3.07-.38-6.15-.41-9.23a1,1,0,0,0-2.08,0Z" transform="translate(-10.97 -3.35)" style="fill:#aa4d00"/><path d="M19.47,99.57l2,5.34.28.76a1.07,1.07,0,0,0,1.28.73,1.06,1.06,0,0,0,.73-1.28l-2-5.34L21.47,99a1,1,0,1,0-2,.55Z" transform="translate(-10.97 -3.35)" style="fill:#aa4d00"/><path d="M76.93,98.09a118.38,118.38,0,0,1-1,14.46c-.17,1.3-.38,2.68-.6,4a33.22,33.22,0,0,1-1.87,6.22c-.86,2.31-1.84,4.59-2.64,6.93-.43,1.27,1.57,1.81,2,.55,1.43-4.19,3.51-8.22,4.41-12.58a87.87,87.87,0,0,0,1.34-10.36c.25-3.07.38-6.15.42-9.23a1,1,0,0,0-2.08,0Z" transform="translate(-10.97 -3.35)" style="fill:#aa4d00"/><path d="M79,99l-2,5.34-.28.76a1,1,0,0,0,.72,1.28,1.07,1.07,0,0,0,1.28-.73l2-5.34.28-.76a1,1,0,0,0-.72-1.28A1.08,1.08,0,0,0,79,99Z" transform="translate(-10.97 -3.35)" style="fill:#aa4d00"/><path d="M60,76.82V58.38a1.08,1.08,0,0,0-.43-.1l-19,.29a1.08,1.08,0,0,0-.42.09.67.67,0,0,0-.14.09V76.82Z" transform="translate(-10.97 -3.35)" style="fill:#ffd3b6"/><path d="M39.7,58.59l.11,1.25c.1,1.23.27,3.1.24,5.12v.37l.31.24a26.85,26.85,0,0,0,4.22,2.79,11.62,11.62,0,0,0,5.5,1.47c4,0,7.13-2.33,9.39-4.39l.21-.19.25-.23V64.7c0-1.21.09-3.13.35-5.47l.09-.88Z" transform="translate(-10.97 -3.35)" style="fill:#f7a894"/><path d="M28.93,45.25c.48,1,4.17,6.15,5.41,4,.62-1.08.14-3.75,0-4.95a27.55,27.55,0,0,0-.89-5,6.09,6.09,0,0,0-1.69-3.18C29.91,34.53,28.05,36,27.63,38A11.76,11.76,0,0,0,28.93,45.25Z" transform="translate(-10.97 -3.35)" style="fill:#f7a894"/><path d="M72,45.25c-.49,1-4.18,6.15-5.42,4-.62-1.08-.13-3.75,0-4.95a28.46,28.46,0,0,1,.9-5,6.09,6.09,0,0,1,1.69-3.18C71,34.53,72.84,36,73.27,38A11.83,11.83,0,0,1,72,45.25Z" transform="translate(-10.97 -3.35)" style="fill:#f7a894"/><path d="M35.61,53.24a1.55,1.55,0,1,1-1.55-1.55A1.55,1.55,0,0,1,35.61,53.24Z" transform="translate(-10.97 -3.35)" style="fill:#d4145a"/><path d="M69.13,53.18a1.56,1.56,0,1,1-1.56-1.55A1.55,1.55,0,0,1,69.13,53.18Z" transform="translate(-10.97 -3.35)" style="fill:#d4145a"/><path d="M67.51,48.93a3.11,3.11,0,0,1-.21.5,1.68,1.68,0,0,0-.07.5c0,.36-.08.71-.11,1.07a7.28,7.28,0,0,0,.08,1,1.89,1.89,0,0,0,.13.52,2.13,2.13,0,0,1,.18.5c0,.09.16.09.18,0,.08-.34.28-.61.33-1A6,6,0,0,0,68.16,51c0-.34,0-.69-.06-1a2,2,0,0,0-.06-.54,2.34,2.34,0,0,1-.19-.5c0-.17-.3-.16-.34,0Z" transform="translate(-10.97 -3.35)" style="fill:#d4145a"/><path d="M48.46,5.83c-18.64,0-18,31.11-18,31.11,1,10.6,4.79,21.24,14.82,26.91,5.22,2.95,9.43.91,13.32-2.87,4.72-4.59,8.79-10.45,10.51-16.81a44.75,44.75,0,0,0,1.4-7.73S73.87,5.83,48.46,5.83Z" transform="translate(-10.97 -3.35)" style="fill:#ffd3b6"/><path d="M55.55,33.35a10.55,10.55,0,0,1,6.28.32,1.1,1.1,0,0,0,1.32-.75,1.11,1.11,0,0,0-.75-1.32A12.69,12.69,0,0,0,55,31.29a1.08,1.08,0,0,0-.75,1.31,1.1,1.1,0,0,0,1.32.75Z" transform="translate(-10.97 -3.35)" style="fill:#825b54"/><path d="M58.69,40.57a1.71,1.71,0,1,1,1.67-1.7,1.71,1.71,0,0,1-1.67,1.7Z" transform="translate(-10.97 -3.35)" style="fill:#825b54"/><path d="M45.61,31.29a12.69,12.69,0,0,0-7.42.31,1.07,1.07,0,1,0,.57,2.07A10.55,10.55,0,0,1,45,33.35a1.07,1.07,0,0,0,.57-2.06Z" transform="translate(-10.97 -3.35)" style="fill:#825b54"/><path d="M41.9,40.57a1.69,1.69,0,0,1-1.67-1.7,1.67,1.67,0,1,1,1.67,1.7Z" transform="translate(-10.97 -3.35)" style="fill:#825b54"/><path d="M51.82,35.26a45.32,45.32,0,0,0,.5,11.63,1.07,1.07,0,0,0,2.06-.57A43.12,43.12,0,0,1,54,35.26a1.08,1.08,0,0,0-1.07-1.07,1.1,1.1,0,0,0-1.07,1.07Z" transform="translate(-10.97 -3.35)" style="fill:#f7a894"/><path d="M52.91,47.4h-.15a.78.78,0,0,0,0,1.55h.15a.78.78,0,0,0,0-1.55Z" transform="translate(-10.97 -3.35)" style="fill:#f7a894"/><path d="M49.09,48.88h.07a.78.78,0,0,0,0-1.56h-.07a.78.78,0,0,0,0,1.56Z" transform="translate(-10.97 -3.35)" style="fill:#f7a894"/><path d="M54.23,53.93a4.16,4.16,0,0,1-1.74,1.42,5.1,5.1,0,0,1-2,.44,5,5,0,0,1-2-.37,4,4,0,0,1-1.78-1.36,6.84,6.84,0,0,1,2-.8A8,8,0,0,1,50.42,53a8.63,8.63,0,0,1,1.8.17A7.28,7.28,0,0,1,54.23,53.93Z" transform="translate(-10.97 -3.35)" style="fill:#d4145a"/><path d="M49.9,54.55l.07-.11-.15.2a2.27,2.27,0,0,1,.31-.31l-.19.15a2.22,2.22,0,0,1,.42-.25l-.23.1a2.9,2.9,0,0,1,.42-.12l-.25,0a1.85,1.85,0,0,1,.47,0l-.26,0a2.13,2.13,0,0,1,.61.17l-.23-.1a1.41,1.41,0,0,1,.34.19L51,54.33l.16.16-.15-.19.08.12a1,1,0,0,0,1.32.35,1,1,0,0,0,.35-1.32,2.6,2.6,0,0,0-2.17-1.14,2.75,2.75,0,0,0-2.4,1.27,1,1,0,0,0,.35,1.31,1,1,0,0,0,1.32-.34Z" transform="translate(-10.97 -3.35)" style="fill:#d4145a"/><path d="M47.11,54.66c.27,1.55,2.11,2.17,3.48,2.06a3.82,3.82,0,0,0,2.17-.82,2.37,2.37,0,0,0,.83-1.37,1,1,0,0,0-.67-1.18,1,1,0,0,0-1.19.67c0,.07,0,.13,0,.2s0-.06,0-.1a.52.52,0,0,0-.06.13.86.86,0,0,0-.07.1c-.1.16.12-.13,0-.06l-.2.2c-.14.14.13-.07,0,0l-.15.1-.15.08c-.16.09.21-.07,0,0l-.37.11a.86.86,0,0,1-.21,0l.11,0-.15,0a3.85,3.85,0,0,1-.48,0h-.22c-.25,0,.2,0,0,0l-.38-.1c-.21-.07,0,0,0,0s-.12-.07-.15-.08l-.15-.09c-.16-.1.15.14,0,0L49,54.33c.18.16.08.11,0,0s-.09-.19,0,0,0,0,0,0a.83.83,0,0,1,0-.15,1,1,0,0,0-1.18-.67,1,1,0,0,0-.67,1.18Z" transform="translate(-10.97 -3.35)" style="fill:#d4145a"/><path d="M71.7,22.62C70.52,12.27,60.88,3.35,51,3.35h-.31A20.85,20.85,0,0,0,34.41,12c-7.3,10-4.82,23.6-3.86,35C40.43,38.84,41,31.66,46.61,26a21.29,21.29,0,0,1,14-6.28,10.68,10.68,0,0,0,3.7,9.84c1.34,1.1,3.23,2,3.93,3.7.81,1.9.69,4.17,1.41,6.13a.44.44,0,0,0,.42.3.46.46,0,0,0,.42-.29C70.55,39.09,72.87,32.9,71.7,22.62Z" transform="translate(-10.97 -3.35)" style="fill:#825b54"/><path d="M58.34,19.63C58.61,23.17,59,26.94,61,30c1.76,2.69,4.74,4.79,8.07,4.6,1.59-.09,1.6-2.57,0-2.48a7,7,0,0,1-6.13-3.69c-1.57-2.63-1.88-5.8-2.11-8.79a1.29,1.29,0,0,0-1.24-1.24,1.25,1.25,0,0,0-1.24,1.24Z" transform="translate(-10.97 -3.35)" style="fill:#825b54"/></g></svg>