<svg xmlns="http://www.w3.org/2000/svg" xmlns:xlink="http://www.w3.org/1999/xlink" viewBox="0 0 1489 1023.12"><defs><clipPath id="clip-path" transform="translate(191.13 -0.56)"><rect x="-1.13" y="0.56" width="1283" height="1023" style="fill:none"/></clipPath><linearGradient id="linear-gradient" x1="441.46" y1="397.47" x2="1340.54" y2="1331.46" gradientUnits="userSpaceOnUse"><stop offset="0" stop-color="#fff"/><stop offset="0.12" stop-color="#fffdf8"/><stop offset="0.3" stop-color="#fff7e3"/><stop offset="0.52" stop-color="#ffeec2"/><stop offset="0.76" stop-color="#ffe295"/><stop offset="1" stop-color="#ffd461"/></linearGradient><linearGradient id="linear-gradient-2" x1="1335.77" y1="672.05" x2="1340.56" y2="538.7" gradientUnits="userSpaceOnUse"><stop offset="0" stop-color="#fff"/><stop offset="0.14" stop-color="#f4f4f6"/><stop offset="0.38" stop-color="#d7d7dd"/><stop offset="0.7" stop-color="#a7a7b5"/><stop offset="1" stop-color="#75758a"/></linearGradient><linearGradient id="linear-gradient-3" x1="1335.77" y1="748.97" x2="1340.56" y2="615.63" xlink:href="#linear-gradient-2"/><linearGradient id="linear-gradient-4" x1="1158.8" y1="810.65" x2="1156.57" y2="746.15" gradientUnits="userSpaceOnUse"><stop offset="0" stop-color="#fff"/><stop offset="0.64" stop-color="#ababab"/></linearGradient><linearGradient id="linear-gradient-5" x1="586.49" y1="785.46" x2="796.87" y2="785.46" gradientUnits="userSpaceOnUse"><stop offset="0" stop-color="#fff"/><stop offset="1" stop-color="#2e2e2e"/></linearGradient><linearGradient id="linear-gradient-6" x1="1205.76" y1="913.14" x2="1219.2" y2="912.9" gradientTransform="matrix(-0.75, -0.66, -0.66, 0.75, 2157.42, 880.29)" gradientUnits="userSpaceOnUse"><stop offset="0.18" stop-color="#545454"/><stop offset="0.2" stop-color="#464646"/><stop offset="0.26" stop-color="#212121"/><stop offset="0.3"/><stop offset="0.33"/><stop offset="0.55"/><stop offset="0.57" stop-color="#0b0b0b"/><stop offset="0.63" stop-color="#333"/><stop offset="0.68" stop-color="#4b4b4b"/><stop offset="0.71" stop-color="#545454"/></linearGradient><linearGradient id="linear-gradient-7" x1="1222.67" y1="860.43" x2="1222.67" y2="869.17" gradientTransform="matrix(-0.75, -0.66, -0.66, 0.75, 2157.42, 880.29)" gradientUnits="userSpaceOnUse"><stop offset="0" stop-color="#bdbdbd"/><stop offset="0.16" stop-color="#b8b8b8"/><stop offset="0.34" stop-color="#aaa"/><stop offset="0.47" stop-color="#9c9c9c"/><stop offset="0.93" stop-color="#afafaf"/></linearGradient><linearGradient id="linear-gradient-8" x1="1228.37" y1="867.12" x2="1217.26" y2="857.35" gradientTransform="matrix(-0.75, -0.66, -0.66, 0.75, 2157.42, 880.29)" gradientUnits="userSpaceOnUse"><stop offset="0" stop-color="#d6d6d6"/><stop offset="0.65" stop-color="#c7c7c7"/><stop offset="0.72" stop-color="#c2c2c2"/><stop offset="0.8" stop-color="#b4b4b4"/><stop offset="0.88" stop-color="#9c9c9c"/><stop offset="0.97" stop-color="#7b7b7b"/><stop offset="1" stop-color="#707070"/></linearGradient><linearGradient id="linear-gradient-9" x1="-140.26" y1="888.85" x2="-140.26" y2="862.23" gradientTransform="matrix(-1, 0, 0, 1, 1218.88, -0.56)" gradientUnits="userSpaceOnUse"><stop offset="0.24" stop-color="#fff"/><stop offset="0.46" stop-color="#ebebeb"/><stop offset="0.86" stop-color="#bebebe"/></linearGradient><linearGradient id="linear-gradient-10" x1="-144.25" y1="838.35" x2="-144.25" y2="811.73" xlink:href="#linear-gradient-9"/><linearGradient id="Безымянный_градиент_29" x1="190" y1="278.5" x2="1489" y2="278.5" gradientUnits="userSpaceOnUse"><stop offset="0" stop-color="#fffdb6"/><stop offset="0.22" stop-color="#fffdb6"/><stop offset="0.43" stop-color="#fff8a8"/><stop offset="0.76" stop-color="#ffef8f"/><stop offset="1" stop-color="#ffe980"/></linearGradient></defs><title>404</title><g style="isolation:isolate"><g id="Слой_1" data-name="Слой 1"><g style="clip-path:url(#clip-path)"><rect y="532.12" width="1473" height="491" style="fill:#ffffba"/><rect y="532.12" width="1473" height="343.7" style="mix-blend-mode:multiply;fill:url(#linear-gradient)"/><path d="M1154.76,598.69s-2.39-2-1.3-10.16,4.58-12.83,5.12-22.1-7.16-10-2.73-12.48c9-5,32.74,4.37,32.74,4.37s-2.73,4.36-6.55,9.82-2.73,19.09.54,26.18c0,0,1.78,1.5.69,2s-6.28,1.23-6.28,1.23Z" transform="translate(191.13 -0.56)" style="fill:#b79d8b"/><path d="M1162.67,584.78c4.91-6.28,13.91-5.19,15.55.81A85.92,85.92,0,0,0,1182,596.5l-27.55.55Z" transform="translate(191.13 -0.56)" style="fill:#a5826a"/><path d="M1177.4,558c-3.27,6.14-3.27,10.23-3.27,16.37s-.41,16.37,2,17.18,5.87,4.91,5.87,4.91-6.28-16.36-1.78-24.14,7.37-12.68,7.37-12.68Z" transform="translate(191.13 -0.56)" style="fill:#a5826a;opacity:0.7000000000000001"/><path d="M1115.83,594.32c3.28-7.09,4.36-20.73.55-26.18s-6.55-9.82-6.55-9.82,24-9.83,32.73-4.37-2.94,4.84-2.39,14.12,3.41,13.5,4.5,21.68-1,8.94-1,8.94-25.45-.28-27-.82S1115.83,594.32,1115.83,594.32Z" transform="translate(191.13 -0.56)" style="fill:#b79d8b"/><path d="M1135.75,584.78c-4.91-6.28-13.92-5.19-15.55.81a85.92,85.92,0,0,1-3.82,10.91l27.55.55Z" transform="translate(191.13 -0.56)" style="fill:#a5826a"/><path d="M1121,558c3.27,6.14,3.27,10.23,3.27,16.37s.41,16.37-2,17.18-5.86,4.91-5.86,4.91,6.27-16.36,1.77-24.14-7.36-12.68-7.36-12.68Z" transform="translate(191.13 -0.56)" style="fill:#a5826a;opacity:0.7000000000000001"/><polygon points="1473 608.5 1473 688.15 1197.49 685.14 1285.29 605.77 1473 608.5" style="opacity:0.7000000000000001;mix-blend-mode:multiply;fill:url(#linear-gradient-2)"/><polygon points="1473 609.89 1279.53 609.89 1265.15 604.49 1268.98 598.33 1473 598.33 1473 609.89" style="fill:#aa633f"/><rect x="1265.15" y="595.24" width="207.85" height="9.25" style="fill:#cc8a5e"/><polygon points="1473 685.42 1473 765.07 1197.49 762.07 1285.29 682.69 1473 685.42" style="opacity:0.7000000000000001;mix-blend-mode:multiply;fill:url(#linear-gradient-3)"/><polygon points="1379.28 676.77 1380.47 677.23 1391.31 674.78 1378.35 666.19 1379.28 676.77" style="fill:#151823"/><path d="M1229.17,676.15c1.11,1.86.44,3.13-1.31,3.83s-20,1.77-26.18.68c-4.07-.73-4.68-6.65-7.23-8s-4.72-3-5.36-2.49.25,7.67.25,7.67l-8.9-1s-1.24-8.14-1.2-9.18c.16-3.24,45.51,7.51,47.59,8.09S1229.17,676.15,1229.17,676.15Z" transform="translate(191.13 -0.56)" style="fill:#282a35"/><path d="M1228.73,677.81c-1.27,2.32-25,2.73-28.83.88s-7.51-9.55-12.08-9.79a31.34,31.34,0,0,1-7.3-1.15s-2.86-7.19-.32-10.43,1.06-20.81,1.06-20.81,14.65-1.72,17.19.6,11.38,30.95,16.46,31.41,9.38,3.73,11.92,4.65S1228.73,677.81,1228.73,677.81Z" transform="translate(191.13 -0.56)" style="fill:#756c6c"/><path d="M1194,637.83c2.32,1.37,1.37,1,1.37,2.59s5.86,26.33,8.59,29.06,12.68,4.9,16.09,5.18,7.78-.28,6-1.23-14.32-5-15.82-8.18-11.32-26.46-12.41-27.42S1194,637.83,1194,637.83Z" transform="translate(191.13 -0.56)" style="fill:#fff;opacity:0.33;mix-blend-mode:soft-light"/><polygon points="1356.74 677.04 1355.55 677.51 1344.71 675.06 1357.67 666.47 1356.74 677.04" style="fill:#151823"/><path d="M1124.6,676.43c-1.12,1.85-.44,3.13,1.3,3.82s20,1.78,26.19.68c4.07-.72,4.67-6.65,7.22-8s4.72-3,5.36-2.49-.25,7.67-.25,7.67l8.9-1s1.25-8.13,1.2-9.18c-.15-3.24-45.5,7.52-47.58,8.1S1124.6,676.43,1124.6,676.43Z" transform="translate(191.13 -0.56)" style="fill:#282a35"/><path d="M1125,678.08c1.27,2.32,25,2.74,28.82.89s7.51-9.55,12.08-9.79a31,31,0,0,0,7.3-1.16s2.87-7.18.32-10.43-1.06-20.8-1.06-20.8-14.65-1.72-17.19.6-11.38,30.94-16.45,31.41-9.38,3.72-11.92,4.65S1125,678.08,1125,678.08Z" transform="translate(191.13 -0.56)" style="fill:#756c6c"/><path d="M1159.72,638.11c-2.31,1.36-1.36.95-1.36,2.59s-5.87,26.32-8.59,29-12.69,4.91-16.1,5.18-7.77-.27-6-1.23,14.32-5,15.82-8.18,11.32-26.46,12.41-27.41S1159.72,638.11,1159.72,638.11Z" transform="translate(191.13 -0.56)" style="fill:#fff;opacity:0.33;mix-blend-mode:soft-light"/><polygon points="1473 688.15 1279.53 688.15 1265.15 685.23 1268.98 679.07 1473 679.07 1473 688.15" style="fill:#aa633f"/><rect x="1265.15" y="675.98" width="207.85" height="9.25" style="fill:#cc8a5e"/><path d="M1254.6,911.83c0,4.52-37.13,8.19-82.93,8.19s-82.92-3.67-82.92-8.19,37.13-8.18,82.92-8.18S1254.6,907.31,1254.6,911.83Z" transform="translate(191.13 -0.56)" style="fill:#c9a993;opacity:0.62;mix-blend-mode:multiply"/><path d="M825.07,634.3c1.77-12.47,2.72-22.21,7.61-29,8-11.15,3.2-17.09,3.2-17.09S823.51,579,811.8,589.5c-6.89,6.21-2.26,10.46-2.3,17.63s-9.91,13.2,1.16,31.47S825.07,634.3,825.07,634.3Z" transform="translate(191.13 -0.56)" style="fill:#cc8a5e"/><g style="opacity:0.30000000000000004;mix-blend-mode:multiply"><path d="M812.22,589.78c-6.89,6.21-2.27,10.46-2.31,17.62s-9.9,13.2,1.16,31.48c3.09,5.09,6.53,7.29,9.71,5.24a95.67,95.67,0,0,1-4.49-12.26c-3.44-13.36-1.49-24.39,2.7-32.77,3.67-7.31,9.44-11.08,8.78-14.42A19.2,19.2,0,0,0,812.22,589.78Z" transform="translate(191.13 -0.56)" style="fill:#cc8a5e"/></g><path d="M833.94,587.61c-6.24.58-7.4,7.23-7.6,12.31s1.91,14.23,2.92,10.6,9.08-15.11,7.22-19.76A10,10,0,0,0,833.94,587.61Z" transform="translate(191.13 -0.56)" style="fill:#cc8a5e;mix-blend-mode:multiply"/><path d="M832.51,685.4c.29-5.72,1-30.45,1-52.5h0c.06-18.38-.62-35.39-1.91-36.76h0l.17-.13v-.2l.21.31-.72-1.06a1,1,0,0,1,.51-.15h0c1.43.38,1.32,1.64,1.77,3.6h0c.32,2,.56,4.83.74,8.28h0c.37,6.9.51,16.24.51,26.12h0c0,22.08-.68,46.79-1,52.56h0l-1.28-.06Zm-1-89.27h0Z" transform="translate(191.13 -0.56)" style="fill:#cc8a5e"/><path d="M848.91,648.1h0Zm-1-.08c.25-3.07.73-15.3.73-27.16h0c0-11.24-.49-22.35-1.83-24.6h0c-.16-.28-.25-.32-.27-.32h0v-.15l.07.13-.41-.89a.91.91,0,0,1,.35-.07h0c1.86.41,2,3.55,2.54,8.31h0c.41,4.77.55,11.13.55,17.59h0c0,11.89-.48,24.11-.74,27.24h0l-1-.08Z" transform="translate(191.13 -0.56)" style="fill:#cc8a5e"/><path d="M869.05,688.34c-6.63-10.71-12.15-18.8-12.75-27.16-1-13.69-8.22-16.24-8.22-16.24s-15.69,1.89-17.92,17.5c-1.31,9.18,5,9.48,9.52,15s.85,16.48,21.06,23.42S869.05,688.34,869.05,688.34Z" transform="translate(191.13 -0.56)" style="fill:#cc8a5e"/><g style="opacity:0.30000000000000004;mix-blend-mode:multiply"><path d="M830.66,662.39c-1.31,9.18,5,9.48,9.51,15s.86,16.47,21.06,23.42c5.64,1.94,9.68,1.41,10.81-2.2a95,95,0,0,1-11.3-6.54c-11.2-8-16.77-17.77-18.91-26.88-1.87-8,.14-14.56-2.5-16.7A19.22,19.22,0,0,0,830.66,662.39Z" transform="translate(191.13 -0.56)" style="fill:#cc8a5e"/></g><path d="M846,646.8c-2.74,2.53-1.05,10.29,2,14.32s10.58,9.71,9,6.27-5.67-18.89-7.11-19.8A8.43,8.43,0,0,0,846,646.8Z" transform="translate(191.13 -0.56)" style="fill:#cc8a5e;mix-blend-mode:multiply"/><path d="M816.37,729c4-11.93,7.58-21.06,6.27-29.34C820.51,686.12,827,682,827,682s15.71-1.7,21.41,13c3.36,8.65-2.69,10.36-5.87,16.78s2.9,16.24-15.22,27.58S816.37,729,816.37,729Z" transform="translate(191.13 -0.56)" style="fill:#cc8a5e"/><g style="opacity:0.30000000000000004;mix-blend-mode:multiply"><path d="M847.9,695c3.35,8.65-2.69,10.36-5.88,16.78s2.9,16.24-15.21,27.58c-5,3.16-9.11,3.57-11,.31a95.29,95.29,0,0,0,9.53-8.93c9.09-10.37,12.32-21.11,12.34-30.47,0-8.18-3.43-14.15-1.34-16.83A19.27,19.27,0,0,1,847.9,695Z" transform="translate(191.13 -0.56)" style="fill:#cc8a5e"/></g><path d="M829.47,683.32c3.24,1.84,3.35,9.79,1.24,14.42s-8.1,11.85-7.37,8.15,1.24-19.69,2.44-20.89A8.42,8.42,0,0,1,829.47,683.32Z" transform="translate(191.13 -0.56)" style="fill:#cc8a5e;mix-blend-mode:multiply"/><path d="M874,912.38V617.78a17.7,17.7,0,0,0-17.67-17.68H828.11a2,2,0,0,1-2-2h0a2,2,0,0,1,2-2h28.23a21.59,21.59,0,0,1,21.6,21.6h0v294.6a2,2,0,0,1-2,2h0a2,2,0,0,1-2-2Z" transform="translate(191.13 -0.56)" style="fill:#b79a86"/><path d="M845.45,646.8v-.47h0c0-5.87-1.67-25.11-1.67-38.22h0c.18-7.39.11-12.78,2.67-13.27h0a1.67,1.67,0,0,1,1,.34h0l-.56.81a.65.65,0,0,0-.4-.17h0c-.23,0-.94.92-1.22,3.21h0a65.73,65.73,0,0,0-.47,9.08h0c0,13,1.68,32.25,1.68,38.22h0v.47h-1Z" transform="translate(191.13 -0.56)" style="fill:#cc8a5e"/><path d="M830,683.31v-.78h0c0-10-1.73-43.19-1.73-65.62h0c0-9.35.29-16.78,1.16-20.09h0c.34-1.06.56-2,1.65-2.1h0a1.58,1.58,0,0,1,1.15.65h0l-1,.83a1.42,1.42,0,0,0-.14-.18h0l-.07.1h0a4.16,4.16,0,0,0-.39,1h0a28.91,28.91,0,0,0-.65,4.39h0c-.33,3.79-.47,9.17-.47,15.38h0c0,22.38,1.73,55.56,1.73,65.62h0v.78H830Z" transform="translate(191.13 -0.56)" style="fill:#edb188"/><path d="M920.69,648.22c0-16.84.32-33.29,1.34-40.56h0c.51-2.41.36-3.87,1.9-4.31h0a1.21,1.21,0,0,1,.46.12h0l-.61,1.12.15-.26v.17l.15.11a2,2,0,0,0-.24.56h0a16.11,16.11,0,0,0-.54,2.66h0c-.34,2.36-.6,5.78-.8,9.89h0c-.39,8.24-.53,19.29-.53,30.5h0c0,20.62.48,41.81.74,47h0l-1.27.06c-.26-5.24-.75-26.41-.75-47.06Z" transform="translate(191.13 -0.56)" style="fill:#cc8a5e"/><path d="M912.64,617.18c.18-6.94.13-13.06,2.9-13.54h0a1.61,1.61,0,0,1,.46.07h0l-.32.93-.14,0h0c-.34,0-1.11,1.11-1.42,3.52h0a64.85,64.85,0,0,0-.49,9h0c0,6.8.52,14.38.78,17.54h0l-1,.08c-.26-3.19-.79-10.77-.79-17.62Z" transform="translate(191.13 -0.56)" style="fill:#cc8a5e"/><path d="M955.33,654.51c-11-6.15-19.19-11.18-25-17.19-11-11.36-17.8-9.11-17.8-9.11s-7.47,8.8-3.75,22.53c2.43,9,8.94,5.88,15.61,8.5s8.75,14,29.79,10.26S955.33,654.51,955.33,654.51Z" transform="translate(191.13 -0.56)" style="fill:#bf7847"/><g style="opacity:0.5;mix-blend-mode:multiply"><path d="M909.16,650.46c3.31,8.66,8.94,5.88,15.61,8.5s8.75,14,29.78,10.25c5.87-1,9.15-3.47,8.39-7.17a95.18,95.18,0,0,1-13.06-.23c-13.7-1.6-23.29-7.39-29.59-14.32-5.5-6-7.61-11.63-11-12.22C907.79,639.57,906.6,643.75,909.16,650.46Z" transform="translate(191.13 -0.56)" style="fill:#cc8a5e"/></g><path d="M915,629.4c-1.17,3.54,4.08,9.51,8.75,11.53s14,3.35,10.94,1.1S920.78,631,918.53,630A8.53,8.53,0,0,0,915,629.4Z" transform="translate(191.13 -0.56)" style="fill:#cc8a5e;opacity:0.6000000000000001;mix-blend-mode:multiply"/><path d="M939.54,701.52c-4-11.93-5-13-5.18-24.68-.28-16.78-7.09-17.05-7.09-17.05s-14.73-2.42-20.43,12.28c-3.36,8.64,2.69,10.36,5.87,16.77s-5.81,18.19,13.19,28C946.44,727.36,939.54,701.52,939.54,701.52Z" transform="translate(191.13 -0.56)" style="fill:#cc8a5e"/><g style="opacity:0.30000000000000004;mix-blend-mode:multiply"><path d="M907.33,672.13c-3.35,8.65,2.69,10.36,5.88,16.78s-5.56,16.42,12.55,27.75c5,3.16,8.72,2.45,10.64-.81-3.84-2.85-10.64-8.05-10.64-8.05-9.09-10.37-9.76-21.94-9.79-31.3,0-8.18,4.35-12.87,2.26-15.55C913.9,662.55,909.94,665.44,907.33,672.13Z" transform="translate(191.13 -0.56)" style="fill:#cc8a5e"/></g><path d="M924.77,661.15c-6.14,3-5.18,11.43-3.07,16.06s11.57,8.82,10.85,5.12,1.22-12.58-3.1-20.25C928.61,660.61,924.77,661.15,924.77,661.15Z" transform="translate(191.13 -0.56)" style="fill:#cc8a5e;opacity:0.49;mix-blend-mode:multiply"/><path d="M887.1,912V627.6A21.61,21.61,0,0,1,908.71,606h29.46a2,2,0,0,1,2,2h0a2,2,0,0,1-2,2H908.71A17.7,17.7,0,0,0,891,627.6h0V912a2,2,0,0,1-2,2h0a2,2,0,0,1-2-2Z" transform="translate(191.13 -0.56)" style="fill:#b79a86"/><path d="M913.7,630.67c0-6.25,3.22-18.7,3.21-24.12h0c0-1.74-.4-2.28-.62-2.28h0a1.59,1.59,0,0,0-.88.41h0l-.58-.8a2.51,2.51,0,0,1,1.46-.59h0c1.39.12,1.59,1.57,1.61,3.26h0c0,5.67-3.23,18.1-3.22,24.12h0c0,.08,0,.18,0,.29h0l-1,0a3.11,3.11,0,0,1,0-.32Z" transform="translate(191.13 -0.56)" style="fill:#cc8a5e"/><path d="M882.74,943.4c0,6.45,62.73,11.68,140.11,11.68S1163,949.85,1163,943.4s-62.73-11.67-140.11-11.67S882.74,937,882.74,943.4Z" transform="translate(191.13 -0.56)" style="fill:#c9a993;opacity:0.62;mix-blend-mode:multiply"/><path d="M801.48,931c0,6.45,62.74,11.68,140.12,11.68s140.11-5.23,140.11-11.68S1019,919.33,941.6,919.33,801.48,924.56,801.48,931Z" transform="translate(191.13 -0.56)" style="fill:#c9a993;opacity:0.62;mix-blend-mode:multiply"/><rect x="1033.29" y="786.61" width="9.66" height="143.87" style="fill:#995233"/><rect x="1134.72" y="783.18" width="9.66" height="141.5" style="fill:#995233"/><polygon points="1286.72 882.17 1132.08 871.97 1037.15 876.93 1168 895.51 1286.72 882.17" style="fill:#aa633f"/><polygon points="1166.04 904.14 1285.89 895.93 1285.47 882.17 1166.04 889.48 1166.04 904.14" style="fill:#995233"/><polygon points="1037.64 890.63 1165.22 903.98 1165.22 890.3 1037.64 876.93 1037.64 890.63" style="fill:#ba734a"/><path d="M1004.5,851.71l6-5.17a.62.62,0,0,1-.5-.61v-2a.63.63,0,0,1,.63-.64h.87l.92-2.13a.58.58,0,0,1,.62-.5h.64a.59.59,0,0,1,.64.5l.83,2.13h.86a.64.64,0,0,1,.63.64v2a.63.63,0,0,1-.61.62l6,5.16h0a1.28,1.28,0,0,1,.28.78v27.62a1.27,1.27,0,0,1-1.26,1.27H1005.6a1.27,1.27,0,0,1-1.26-1.27V852.49A1.5,1.5,0,0,1,1004.5,851.71Z" transform="translate(191.13 -0.56)" style="fill:#e8a56d"/><path d="M962,862.17c4.9,0,8.83.47,8.83,1.05v20.41H953.11V863.22C953.11,862.64,957.06,862.17,962,862.17Z" transform="translate(191.13 -0.56)" style="fill:#a7aebc"/><path d="M968.6,864.23a55.48,55.48,0,0,1-6.65.34h0a55.48,55.48,0,0,1-6.65-.34h0c-1.71-.31-2.75-.26-3-1.12h0c.27-.86,1.31-.82,3-1.13h0a57.94,57.94,0,0,1,6.65-.33h0a57.94,57.94,0,0,1,6.65.33h0c1.72.31,2.76.27,3,1.13h0c-.26.86-1.3.81-3,1.12Zm1.88-1a2.48,2.48,0,0,0,.41-.15h0c-.71-.36-4.56-.87-8.94-.83h0a55.65,55.65,0,0,0-6.57.34h0a14.11,14.11,0,0,0-2,.36h0a2,2,0,0,0-.41.15h0c.71.35,4.57.86,8.94.82h0a56,56,0,0,0,6.58-.34h0a13.55,13.55,0,0,0,2-.35Z" transform="translate(191.13 -0.56)" style="fill:#879fc1"/><path d="M954.71,875.91V870c2.19.21,4.68.33,7.34.33s5-.11,7.14-.32v5.81a73.3,73.3,0,0,1-7.46.35C959.21,876.21,956.82,876.11,954.71,875.91Z" transform="translate(191.13 -0.56)" style="fill:#fff;mix-blend-mode:soft-light"/><rect x="1133.38" y="851.29" width="7.95" height="28.09" style="fill:#879fc1"/><path d="M942.25,851.81c0,.29,1.78.52,4,.52s4-.23,4-.52-1.78-.52-4-.52S942.25,851.52,942.25,851.81Z" transform="translate(191.13 -0.56)" style="fill:#a7aebc"/><rect x="1136.08" y="849.68" width="2.54" height="1.45" style="fill:#a7aebc"/><rect x="1135.81" y="848.49" width="3.08" height="1.63" style="fill:#879fc1"/><path d="M918.55,851.12l5.55-4.75a.6.6,0,0,1-.47-.58V844a.59.59,0,0,1,.58-.58h.8l.86-2a.53.53,0,0,1,.58-.46H927a.52.52,0,0,1,.56.46l.77,2h.79a.58.58,0,0,1,.57.58v1.84a.57.57,0,0,1-.55.58l5.54,4.75h0a1.1,1.1,0,0,1,.25.71v25.44a1.15,1.15,0,0,1-1.15,1.16H919.57a1.16,1.16,0,0,1-1.16-1.16V851.84A1.44,1.44,0,0,1,918.55,851.12Z" transform="translate(191.13 -0.56)" style="fill:#879fc1"/><rect x="1280.03" y="791.07" width="11.57" height="147.17" style="fill:#ba734a"/><rect x="1161.61" y="794.4" width="11.57" height="156.87" style="fill:#ba734a"/><polygon points="1033.1 800.83 1164.06 817.93 1167.93 768.12 1033.1 765.21 1033.1 800.83" style="fill:#ba734a"/><polygon points="1161.89 817.62 1291.52 813.56 1291.52 772.47 1161.61 772.32 1161.89 817.62" style="fill:#995233"/><polygon points="1023.64 772.6 1164.06 817.62 1291.52 811.98 1291.52 778.08 1164.07 777.93 1023.64 772.6" style="mix-blend-mode:multiply;fill:url(#linear-gradient-4)"/><polygon points="1142.58 767.54 1152.5 769.86 1314.44 767.14 1314.44 764.78 1139.6 758.28 1008.71 760.03 1142.58 767.54" style="fill:#aa633f"/><polygon points="1168.4 788.16 1314.44 781.86 1314.44 765.31 1168.09 767.4 1168.4 788.16" style="fill:#ba734a"/><polygon points="1009.07 774.17 1168.71 788.16 1168.82 767.4 1009.07 760.03 1009.07 774.17" style="fill:#cc8a5e"/><path d="M785.58,815l-14.8-.17c-2.19-22-9.4-32.43-9.4-32.43-.82-2.94-5.08-5.66-8.71-9,8.15-1,19.08-3.26,25.15-8,3-3.36,2.47-32.6-.45-34.86-2-2.18-34.65-46.67-35-46.83-3.18-1.32-5.9-2.47-8.23-3.48-1.55-1.27-4.78-3.86-6.19-4.43,0,0,.27.79.55,2-4.19-1.88-5.93-2.76-5.93-2.76a5.4,5.4,0,0,1-.22,2.13,10.56,10.56,0,0,1-3.74-4.24c1.23-2.69.82-6,1.62-11,1.75-1.69,4.84-6.78,6.34-9.89,1.33-2.77.46-4.1-1.26-4.32l.14-.17s.19-.94,2.15-8.38c1.18-4.4-6-20.67-15.74-20.25-1.59-.78-3.48-1.46-5.46-2.55-6.82-3.72-28.59,5.11-28.54,16.48.07,9.13-1.29,11.77-1.06,12.21-1.27.19-2.25.71-2.39,1.88-.29,2.56,4.21,11.7,7,14.31.3,4.31,1,8.27,2.65,11.35a12.92,12.92,0,0,1-2.69,2.6,11.46,11.46,0,0,1-.21-1.62s-3,1.24-13.7,4.86a5.18,5.18,0,0,1,.23-1.34s-4.86-3.21-6.33,2.49c-.06.25-.11.58-.16.93l-4.05,1.33c-2.79.92-3.85,2.35-4.15,4.21-12.21,5.4-49.79,48-52.42,61.05-1.89,9.5,8.27,24.32,16.84,25.61,5.39.8,14.35-5,18.16-7.64a127.14,127.14,0,0,1,13.93-1.62l.79.53c0,.39-.06.78-.08,1.16-.94,1-1.83,1.92-2.62,2.81-4.85,5.43-6.36,7.34-8,8.39,0,0-3,2-3.37,2.25a1.75,1.75,0,0,0-.34,2.9l.27.23,0,0,.12.11,1.42,1.26a21.65,21.65,0,0,0-4.93,7.81c-.92,2.88-2.24,11.55-3.65,22.38l-34.87-.38-7.53,10.26-.22,9.25,27.2.26L594.43,940.38l7.1.24,23.21-90.36c-1.73,15.72-3,28.34-3,28.34s1.81,4.69,4.74,3.77,9.73-2.75,12.11-1.34a2.85,2.85,0,0,0,.49.22c1,11.55,2.32,21.28,3.59,26.65.09-.14.18-.25.26-.38,1,2.73,2.71,3.34,5.48,3.07.12,2.5.24,5,.37,7.37.09,1.7-1,6-1.66,9.83a8.8,8.8,0,0,0-2.19.76c-4.38,2.29-2.5,12.51.05,13.46,10.94,4,7.48,7.07,19.25,11s22.32.93,25.1-.39a3.32,3.32,0,0,0,1.14-1.07l.09.15c3.08,3.29,16.68,6.39,29.25-.25,11.06-5.86,9.62-5.18,20.73-7.43,2.54-.51,6.08-11.57,2.55-14.16.35-4.6-2.85-5.49-2.56-8,.43-3.95,1.09-8.71,1.79-13.52,8.39,1.8,12.25,4.05,14-2.89l-.17-.67c1.48-6.11,3.14-15.71,4.71-26.77,7.63,1.59,13,2.83,13,2.83s-4.29-2.89-3.46-29.67l11.27,81.08,7-.9L783,834.24l13.53.13.33-9.1ZM644.53,746l9-10.51c.06.34.11.7.17,1a73.91,73.91,0,0,1,1.11,10.63l-1.32.2C651.3,747.09,648.12,746.68,644.53,746ZM719,914.91c-.17.42-.37.84-.56,1.25a19.81,19.81,0,0,0-3,1c-5,5.86-4,5.49-8.69,9,0,0-12.68,8.67-15.37,12,0,0,0,0,0,0h0a18.92,18.92,0,0,0-.94-1.81c-1.73-2.93-8.63-9.62-8.63-9.62-3.07-4-1-2.73-5.67-8.64,0,0-.53-.19-1.38-.44a25.13,25.13,0,0,1-1.62-4.88c-.32-1.75-.63-3.56-.94-5.41,8.71-1.08,13.77-3.18,13.51-11.31a14.45,14.45,0,0,0-.45-2.9c0-3.55,0-8.71,0-14.73,10.25-2.17,19-4.85,21.82-6.16,1.78-.84,5.17-1.06,9.48-.89-.49,9.41-1,17.52-1.31,22.2a14.62,14.62,0,0,0-.26,1.59,15.39,15.39,0,0,0-.05,2.12,1.38,1.38,0,0,1,0,.2s0-.08,0-.12c.21,4.75,2.88,7,7.4,8.22C721.34,908.75,720.23,911.94,719,914.91Z" transform="translate(191.13 -0.56)" style="opacity:0.8;mix-blend-mode:multiply;fill:url(#linear-gradient-5)"/><ellipse cx="894.16" cy="934.19" rx="156.57" ry="13.64" style="fill:#c9a993;opacity:0.62;mix-blend-mode:multiply"/><path d="M648.92,680.36c-6.55-3.77-50,47.94-52.54,62.49-1.61,9.55,8.65,24.3,17.06,25.47,6.85.94,19.32-9.31,19.32-9.31s-1.29-5.49,5.56-16.76l13-16.37Z" transform="translate(191.13 -0.56)" style="fill:#bd0000"/><polygon points="775.79 819 782.91 808.55 972.63 808.55 984.37 819 984.37 823.08 777.24 823.08 775.79 819" style="fill:#7b3804"/><polygon points="793.14 938.56 786.14 938.33 803.35 822.14 818.99 822.49 793.14 938.56" style="fill:#7b3804"/><polygon points="972.85 929.7 979.95 928.75 969.44 814.42 953.56 816.33 972.85 929.7" style="fill:#7b3804"/><rect x="775.79" y="819" width="208.57" height="9.35" style="fill:#a55016"/><path d="M654.72,776.61c-21.13,16.46-16.5,34.26-18.47,46.61s34.19,9.39,34.19,9.39l26.47-5.53c7.27,0,23.17,5,33.09,5s33.47,1.76,31.5-8.54-15.85-43.88-25.76-46.64S654.72,776.61,654.72,776.61Z" transform="translate(191.13 -0.56)" style="fill:#151823"/><path d="M679.63,689l-16.1-16.26s8.31,0,12.62-6.2c1.92-4.43,2.74-3.6,2.67-10.42L707.25,654c.53,16.47,8.76,17.26,8.76,17.26L712,692.83Z" transform="translate(191.13 -0.56)" style="fill:#cc9483"/><path d="M672.57,646.71c.36,8.4.67,17.22,4.82,22,2.48,2.9,10.93,8.76,13.34,9.1,5.19.74,11.65-3.87,17.22-8.8,4.48-4,1.7-8.46,4.11-18.2,3.41-13.79-.44-29.33-17.95-30C667.31,619.8,671.93,632.67,672.57,646.71Z" transform="translate(191.13 -0.56)" style="fill:#d8a798"/><path d="M674.13,639.69c-2.21-.32-8.06-1.41-8.32,1.6s6.25,15,8.59,14.79S674.13,639.69,674.13,639.69Z" transform="translate(191.13 -0.56)" style="fill:#d8a798"/><path d="M713,641.35c3.24-1.31,6.06-.37,4.24,3.79s-6.28,11.83-7.07,10.48S713,641.35,713,641.35Z" transform="translate(191.13 -0.56)" style="fill:#d8a798"/><path d="M699.6,632.47c11.74-5.33,15.27,3.66,11.28,13.29a31.07,31.07,0,0,0,5.09-5.09s.15-.94,1.85-8.42c1.15-5-8.51-24.65-19.73-18.78S699.6,632.47,699.6,632.47Z" transform="translate(191.13 -0.56)" style="fill:#bdc2c9"/><path d="M706.4,631.72c-2.63,2.78-12.64,7.92-16,5.39-5.74-4.24-13.42-6.91-14.78-5.13-3.28,4.37-1.28,14.7-1.28,14.7l-3.08-5.23s-.68-2.35-2.93-2c-.83.12.86-1.89.5-12.25-.37-11.3,20.67-20.64,27.48-17.12,5,2.59,9.44,2.67,9.61,8.08S706.4,631.72,706.4,631.72Z" transform="translate(191.13 -0.56)" style="fill:#afafbc"/><path d="M698.79,633.66c-6.82.44-2.89-1.8-11.52-3.2-5.25-.84-8.23,4.07-8.23,4.07s5.17-8.78,12.21-5.28,8.39.94,8.39.94-12.89-5.79-18-.35a11,11,0,0,1,15-4c1.3-.09-5.86-3.42-7-2.73,1.82-2.61,12.77-4.84,16.22.57s1.1,6.32-.72,7.41A46.2,46.2,0,0,1,698.79,633.66Z" transform="translate(191.13 -0.56)" style="fill:#bdc2c9"/><path d="M733.84,676.53c-14.53-5.73-19.87-8.31-19.87-8.31s1.15,5.15-7.66,11.72a20.78,20.78,0,0,1-12.66,4.33c-19.55-1.12-20.45-16.56-20.45-16.56s-4.57,2.08-23.29,8.79c-7.09,2.56-2.49,8.4-3.07,16.51-.44,6.24-.52,31.44,1.18,38.27s2.41,24.88,1.59,37.19c-.47,6.89,89.78,6.85,90,5.09C742.56,740.48,743.05,680.15,733.84,676.53Z" transform="translate(191.13 -0.56)" style="fill:#bd0000"/><path d="M755.22,902.54c-1.9,8.91-7.52,3.23-20.88,2s-21.6-1.75-21-12.56,14-22.4,24.15-19.22S755.22,902.54,755.22,902.54Z" transform="translate(191.13 -0.56)" style="fill:#151823"/><path d="M689.87,938.94c-1.51.76-1.24,9.35.83,11.58,3.19,3.41,16.9,6.62,29.3-.27,10.94-6.08,9.52-5.38,20.62-7.72,2.67-.56,6.07-13.21,1.51-15C739.2,926.32,692.18,937.79,689.87,938.94Z" transform="translate(191.13 -0.56)" style="fill:#151823"/><path d="M724.4,869.6c1.68,12.51-1.65,29.68-6.33,42.8-2.12,6-6.38,10.92-7.32,14.53-3,11.52,4.57,12.77,4.57,12.77s25.21-3.94,26.2-6.62c3.58-9.65-1.92-10.17-1.65-13.51,1-12.86,3.85-34.12,3.85-38.33C743.72,874.56,724.4,869.6,724.4,869.6Z" transform="translate(191.13 -0.56)" style="fill:#7d88a0"/><path d="M714.57,914.69c-4.85,6.07-3.87,5.68-8.41,9.33,0,0-13.5,9.76-15.31,12.78s-3.52,11.71,10.34,12c6.82.14,16.38-3.36,25-7.45,6.61-3.13,12.74-5.68,15.92-6.83,1.72-.61-7.7,3.54-12.41-4.34,0,0,9.64-8.22-3.09-15.72C721.48,911.43,714.57,914.69,714.57,914.69Z" transform="translate(191.13 -0.56)" style="fill:#441800"/><path d="M726.72,767.83c-9.54,4.47-14.3,12.4-14.3,16.86s1.75,13.1,2.37,18.82S714,888,713.37,894.33c1.6-11.13,11.75-10.17,11.75-10.17S738.8,797.08,735,785,726.72,767.83,726.72,767.83Z" transform="translate(191.13 -0.56)" style="fill:#282a35"/><path d="M725.76,771c-6.36-6.66,28.61-8.25,35.27,20.36,4.31,18.48-1.91,94.37-6.66,113.45-10.49-19.08-29.25-20.66-35-17.48C722.9,842.21,734.34,780,725.76,771Z" transform="translate(191.13 -0.56)" style="fill:#151823"/><path d="M641.51,903.22c1.94,8.9,7.43,3.59,21.14,2.33s22.2-1.75,21.54-12.55-14.36-22.41-24.8-19.23S641.51,903.22,641.51,903.22Z" transform="translate(191.13 -0.56)" style="fill:#151823"/><path d="M691.13,936.37c3.2,3.41,1.09,13.74-1.64,15.1s-13.2,4.5-25,.41S656,944.63,645,940.5c-2.55-1-4.7-11.48-.42-13.84C654.33,921.26,691.13,936.37,691.13,936.37Z" transform="translate(191.13 -0.56)" style="fill:#151823"/><path d="M668.26,866.4c-1.64,12.21,1,30,3.92,43.83,1.4,6.8,10.79,21.3,11.8,25.1,2,7.77-12.69,17.79-30.33.55-1.43-1.38-5.48-1.12-6.91-3-1.56-2.12,1.63-13.93,1.39-17.1-1-12.84-2.06-28.73-2.06-33.28C646.07,875.81,668.26,866.4,668.26,866.4Z" transform="translate(191.13 -0.56)" style="fill:#7d88a0"/><path d="M675.31,915.7c4.84,6.07,2.73,4.78,5.91,8.89,0,0,7.08,6.88,8.89,9.91S699,950.85,675.85,949c-7.29-.59-10.46-3.4-18.42-8.7a41.41,41.41,0,0,0-12-5.79c-1.73-.6,8.32,4.59,13-3.3,0,0-10.2-8.39,2.54-15.89C666.15,912.27,675.31,915.7,675.31,915.7Z" transform="translate(191.13 -0.56)" style="fill:#441800"/><path d="M668.52,770.17c9.38,1.64,16,11.55,16,16s-1.44,12.28-2.08,18,.82,84.46,1.46,90.81c-1.62-11.12-12.07-10.17-12.07-10.17s-14-87.07-10.11-99.15S668.52,770.17,668.52,770.17Z" transform="translate(191.13 -0.56)" style="fill:#282a35"/><path d="M670.47,773.47c6.52-6.67-28.45-6.82-35.31,21.78-4.43,18.49,1.75,91.13,6.65,110.21,10.78-19.08,30-20.66,35.9-17.48C670.74,845.16,661.66,782.47,670.47,773.47Z" transform="translate(191.13 -0.56)" style="fill:#151823"/><path d="M650.09,699c-.09,5.84.87,22.91-1.19,27.73s-11.42,16.5-13,15.92-14.76-2.21-20.78.57,6.49-6.42,12.3-5.45c-6.36-.29-9.27.22-10.54-.08-2.06-.46,5.3-1.56,9.32-2.13s8.3-6.64,15.12-20.3S650.09,699,650.09,699Z" transform="translate(191.13 -0.56)" style="fill:#8c0000"/><path d="M734.82,687.34c10.85-5.68,17.35,14.49,38.71,35.79,11.5,11.48,9.24,22.35-.19,34.69-2.37,3.12-24-1.88-24-1.88l-5.74-19.69-5.9-9.22Z" transform="translate(191.13 -0.56)" style="fill:#8c0000"/><path d="M730.69,677c12.78-1.26,21.11,19.53,25.06,23.24s11.11,17.65,15.19,20.5c3.69,2.58,9.75,13.75,8.68,12.6-5.73-6.14-16.65-3.7-22.45.78-6.42,5-9.2,5.57-4.56,1.68s8.19-12.48,8.19-12.48-13.27,10.39-10.84,8.59c2.8-2.09,1.51-6.16.61-7.16s-16.4-38.18-19.63-37.39S730.69,677,730.69,677Z" transform="translate(191.13 -0.56)" style="fill:#bd0000"/><path d="M660.1,671.53c-1.91,5.72,9.85,48,9.85,48l-13.35-4.84s-3.89-34.81-2.63-40.53S660.1,671.53,660.1,671.53Z" transform="translate(191.13 -0.56)" style="fill:#2543bf"/><path d="M656.28,709.67c8.26,5.72,52.46,17.16,71.2-2.54,13,44.42,12,40.63,14,51.49,1.49,8.11,13,12.39,14.61,17.48,0,0,13,18,11.61,57.54S772,877,772,877s-57.7-13.35-67.23-8.57c-3,1.5-13.2,4.76-24.64,7.14-3,.64-5.76-.35-9,0-5.31.56-9,.22-14.31.64-1.93.15-3.86,1.94-5.73,2.07-16,1.09-20.09-3.81-19.55-5.56,2.39-7.63-6.35-69.62-2.06-77.73s12.56-19.86,14.46-25.58.8-5.88.8-5.88,10.49-32.42,11-40.53S656.28,709.67,656.28,709.67Z" transform="translate(191.13 -0.56)" style="fill:#2543bf"/><path d="M639.44,793.58s24.32-11,45.77-2.86,28.61-.47,43.38-2.85,23.84,1.42,26.71,4.29-6.67-9.55-13.82-14.78-28.15,4.29-42.44,2.85-26.7-7.63-47.21-.47C646.58,781.58,639.44,793.58,639.44,793.58Z" transform="translate(191.13 -0.56)" style="fill:#10228c"/><path d="M719.31,668.9c1.9.72,7.14,5,7.14,5s2.38,34.33-1.2,42.2-8.1.71-8.1.71a376.87,376.87,0,0,0,3.58-40.05A23,23,0,0,0,719.31,668.9Z" transform="translate(191.13 -0.56)" style="fill:#2543bf"/><path d="M657.32,709c-.49,9.54,2.34,46.83,5.82,48.33s8.41,7.54,17,10.87,14.2-2.23,12.72,1.6c-.79,2.06-9.06,7.63-20.5,5.72s-15.26-.64-20,3.65-3.82,6.84-6.2,12.08-1.43,62.46,1.91,74.86l3.33,12.4s-11.91.95-14.3-.48-9.06.48-11.92,1.43-4.76-3.82-4.76-3.82,5.72-79.15,8.57-89.16,15.74-15.89,16.21-22.09,0-12.71,2.87-16.05S657.32,709,657.32,709Z" transform="translate(191.13 -0.56)" style="fill:#10228c"/><path d="M670.27,811.7c1,11.45-.32,63.9-.32,63.9s7,1.91,9.85.32S670.27,811.7,670.27,811.7Z" transform="translate(191.13 -0.56)" style="fill:#10228c"/><path d="M725.74,801.69c3.34,3.81,1.91,67.23,1.91,67.23s-11-3.34-16.21-2.39,11-47.68,9-58.64S725.74,801.69,725.74,801.69Z" transform="translate(191.13 -0.56)" style="fill:#10228c"/><path d="M731.72,753.21c-1.6-1-10.39-1.92-12.27-2.83a14,14,0,0,1-5.51-5.38c-.56-1.1-2.84,2.91-1.15,5.46a41.59,41.59,0,0,0,4.3,4.67s-4.59,4.12-6.8,5a53.34,53.34,0,0,1-7.71,2.75c-1.49.43-.36,2.9,5.6,1.46a24.56,24.56,0,0,0,5.11-1.72c.27-.12-1.16,1.34-4.21,2.07s-7.76.92-8,2.2c-.34,2.09,5.3,2.28,8.46,1.83s5.85-.75,5.85-.75-3.89.86-6.48,1.24-6.27.15-5.4,2.07,5.05,1.63,7.36,1.29,6.62-.79,6.62-.79a47.22,47.22,0,0,1-5.9,1.71c-1.71.25-6.84-.67-5.44.89s6.12,1.84,9.72,1.05c4.59-1.05,18-4.63,20.81-7.37,0,0,32.5-1.39,38.55-13.57-2.08-18.73-9.53-16.33-18.38-12.73S731.72,753.21,731.72,753.21Z" transform="translate(191.13 -0.56)" style="fill:#d8a798"/><path d="M688.63,756.24l2,1.9s-2.54,9-6,12.32C682,773,672,778.92,670.43,786c-.9,4-.17,6.36,1.12,4.93S698.87,762,696,753.69c-.43-1.21-6.12-1.19-6.12-1.19Z" transform="translate(191.13 -0.56)" style="fill:#282a35"/><path d="M676,793.47c9.87-9.49,17.77-10.3,17.77-10.3l9.19-2.7s1.36-9.69,4.65-17.08c1.9-4.29,8-6,9.59-6.19,2.12-.2-1.2-7.64-8.64-11.61s-13,3.93-14.92,11.9-3.55,13.39-11.14,17.5a19,19,0,0,0-10.23,15.19C671.94,794.44,676,793.47,676,793.47Z" transform="translate(191.13 -0.56)" style="fill:#af6a3c"/><path d="M694.79,782.5c5-.57,9.3,1.54,11.69-1.48s-.57-3-1.63-4.4-4.07-2.2-6.29-1.3S694.79,782.5,694.79,782.5Z" transform="translate(191.13 -0.56)" style="fill:#af6a3c"/><path d="M672.48,790.27c.33-4.25,3.55-11.49,11.15-15.6s8.43-8.52,11.27-16.21a23.72,23.72,0,0,1,13-13.26c-1.3-.67-6.14-4.22-6.14-4.22s-11.72,9.41-12.15,12.16c1.92,1.79,3,3.06,3,3.06s-3.36,12-6.55,14.32-18,13.09-15.23,20.77c1.23,3.43,4.4,2,5.39,2.27C676.22,793.56,672.15,794.53,672.48,790.27Z" transform="translate(191.13 -0.56)" style="fill:#151823"/><path d="M650.64,742.32c-2.62,0-16.93-1.18-27.41-6-4.18-1.9-18.43,8.26-12.72,17.8s11.29,8.19,16.53,7,16.21-2.87,18.6-2.63S650.64,742.32,650.64,742.32Z" transform="translate(191.13 -0.56)" style="fill:#ddac9e"/><path d="M658.87,741c1.69-.12,10.63,5.15,11.6,5.66s1.74,1-.94,1.83-11.94-2.76-12.23-4.14S658.87,741,658.87,741Z" transform="translate(191.13 -0.56)" style="fill:#d8a798"/><path d="M687.46,737.7a5.16,5.16,0,0,0-1.62-3,5.22,5.22,0,0,0-4.13-1.33,5.39,5.39,0,0,0-2.5,1.48c-.57.51-1.52,1.59-1.89,1.54a1.17,1.17,0,0,1-.76-.56A30.61,30.61,0,0,1,680,732.7a6.73,6.73,0,0,1,3.08-.24,7,7,0,0,1,3.57,2.27,9,9,0,0,1,1.36,2.56Z" transform="translate(191.13 -0.56)" style="fill:#7d88a0"/><path d="M671.87,731.83s-.34-.27-.39-.41.1-.4.86-1.22,2.35-3,2.35-3c.66-.86.27-1.59-.35-2.2-.82-.82-1.94-1.36-4.34-1.65s-7.65.68-7.92.69-1.64-.08-1.64-.08a3.23,3.23,0,0,1-.08-.32c-.05-.2.26-.12.38-.2s-.56,0-.35-.5c.06-.18.31.1,1.4,0,.73,0,1.63-.36,3.42-.45,6-.31,8.24.2,9.74,1.51s1.27,2.06-1.74,5.8a12.46,12.46,0,0,0-1.07,1.23c-.17.28-.13.39,0,.45S671.87,731.83,671.87,731.83Z" transform="translate(191.13 -0.56)" style="fill:#7d88a0"/><path d="M632,774c.37-.21,3.25-2.31,3.25-2.31,1.57-1.1,3-3,7.6-8.59,5-6,13.45-14.26,18.41-19.52,7.19-7.64,7.39-8.6,8.17-9.53a13.9,13.9,0,0,1,2.85-2.65l.1,0,4.79,4.24,0,.11a13.41,13.41,0,0,1-2.25,3.15c-.82.87-1.88,1.08-8.51,9.21-4.58,5.59-11.65,15-17,20.78-4.9,5.3-6.66,7-7.53,8.65,0,0-1.71,3.14-1.86,3.54a1.78,1.78,0,0,1-2.87.62l-5.39-4.74A1.76,1.76,0,0,1,632,774Z" transform="translate(191.13 -0.56)" style="fill:#ff8c03"/><path d="M637.67,771.7a353.86,353.86,0,0,1,24.26-27.08c7.81-7.92,9.86-10.53,9.86-10.53l.84-2.22,4.16,3.67-2.08,1.12s-2.81,2.07-9.64,10.85a358.91,358.91,0,0,1-23.67,27.6c-2.36,2.33-2.07,4.7-3.48,4.25-.81-.26-3.83-2.82-4.11-3.62S635.66,774.36,637.67,771.7Z" transform="translate(191.13 -0.56)" style="fill:#f8b306"/><polygon points="862.96 733.57 863.8 731.35 867.97 735.02 865.88 736.14 862.96 733.57" style="fill:#ffbc8a;mix-blend-mode:soft-light"/><path d="M656,761.18c-2.27,2.82-4.52,5.51-6.53,7.67-4.9,5.3-6.66,7-7.53,8.65,0,0-1.71,3.14-1.86,3.54a1.78,1.78,0,0,1-2.87.62l-5.39-4.74A1.76,1.76,0,0,1,632,774c.37-.21,3.25-2.31,3.25-2.31,1.57-1.1,3-3,7.6-8.59,2.5-3,5.83-6.54,9.18-10a20.22,20.22,0,0,0,1.07,3.28A20.56,20.56,0,0,0,656,761.18Z" transform="translate(191.13 -0.56)" style="fill:#151823"/><path d="M656,761.17c-.19-.13,0,0-.14-.15-2.28,2.8-4.63,5.43-6.63,7.6-4.89,5.31-6.58,7-7.49,8.65,0,0-1.76,3.05-2,3.46a1.85,1.85,0,0,1-2.83.68l.25.23a1.79,1.79,0,0,0,2.88-.62c.15-.39,1.87-3.52,1.87-3.52.87-1.69,2.61-3.36,7.51-8.67C651.44,766.67,653.7,764,656,761.17Zm-24.19,15.74.26.23a1.86,1.86,0,0,1,.29-2.9c.37-.24,3.18-2.38,3.18-2.38,1.53-1.12,3-3.05,7.65-8.58,2.45-2.93,5.71-6.42,9-9.83,0-.14,0-.21-.07-.36-3.35,3.46-6.68,7-9.18,10-4.61,5.55-6,7.49-7.61,8.58,0,0-2.87,2.11-3.24,2.32A1.77,1.77,0,0,0,631.78,776.91Z" transform="translate(191.13 -0.56)" style="mix-blend-mode:soft-light;fill:url(#linear-gradient-6)"/><path d="M657.08,759.81c.5-.59.43-.54,1.2-1.51a18.83,18.83,0,0,1-2.68-4.65,17.45,17.45,0,0,1-1-3.18c-1,1-1.19,1.19-1.32,1.34a21.56,21.56,0,0,0,1,3.28A19.83,19.83,0,0,0,657.08,759.81Z" transform="translate(191.13 -0.56)" style="fill:#151823"/><path d="M695.1,734.39l-5,5.66a1.72,1.72,0,0,0,.76,0c.72-.18,4.22-4.22,4.28-4.77A2.07,2.07,0,0,0,695.1,734.39Z" transform="translate(191.13 -0.56)" style="fill:#7d88a0"/><path d="M694.53,735.06a1.15,1.15,0,0,1-.18,1.42,1.11,1.11,0,0,0-.09-1.12Z" transform="translate(191.13 -0.56)" style="fill:#363636;opacity:0.54;mix-blend-mode:soft-light"/><path d="M690.7,739.43c.08,0,.62.43,1.39-.39a1.09,1.09,0,0,1-1.12.08C690.85,739.24,690.7,739.43,690.7,739.43Z" transform="translate(191.13 -0.56)" style="fill:#363636;opacity:0.54;mix-blend-mode:soft-light"/><rect x="687.51" y="734.26" width="7.54" height="3.58" transform="translate(-126.87 766.99) rotate(-48.58)" style="fill:#a7aebc"/><path d="M687.86,737.39c-.21,0-.49-1.77-1.55-2.89a5.75,5.75,0,0,0-2.51-1.58,17.64,17.64,0,0,0-2.73-.58s2.95-1.73,3.57-1.5,1.49.64,4.36,3.81l.69.89C689.81,735.68,688.89,737.34,687.86,737.39Z" transform="translate(191.13 -0.56)" style="fill:#7d88a0"/><path d="M692.44,732c-.29-.26-1.55.11-2.88-.94a5.25,5.25,0,0,1-1.93-2.34c-.34-1-.48-1.9-.56-2.06a1.77,1.77,0,0,0-.31-.41s-1,2.57-.7,3.16a10.47,10.47,0,0,0,4.27,3.68,5.83,5.83,0,0,0,1.09.39C691.6,733.5,693,732.53,692.44,732Z" transform="translate(191.13 -0.56)" style="fill:#7d88a0"/><path d="M686.66,727.17a9.54,9.54,0,0,0-.32,2.43,8,8,0,0,0,4.12,3.5,7,7,0,0,0,1,.36.77.77,0,0,0,.29-.17c-.32-.06-1-.29-1-.29A6.15,6.15,0,0,1,686.66,727.17Z" transform="translate(191.13 -0.56)" style="fill:#363636;opacity:0.52;mix-blend-mode:soft-light"/><path d="M686.67,727.09c-.37-.41-3.49-3.89-6.36-4.92s-7.69-2.82-13.88-1.27a44.83,44.83,0,0,0-6,2c-.16-.11,1.41-.95,4.6-1.9,2.84-.82,9.07-2.2,15.31.6a17.82,17.82,0,0,1,6.59,4.78Z" transform="translate(191.13 -0.56)" style="fill:#7d88a0"/><path d="M686.34,729.51a7.53,7.53,0,0,0,2.36,2.68,7.21,7.21,0,0,0,1.55.86c.84.36,1.3.39,1.26.47h0a4.53,4.53,0,0,1-.82,1.33,4.15,4.15,0,0,1-1.08.91h0s-.07,0-.83-1a31.76,31.76,0,0,0-2.47-2.39,10.63,10.63,0,0,0-2.43-1.42S685.29,730.11,686.34,729.51Z" transform="translate(191.13 -0.56)" style="fill:#a7aebc"/><path d="M671.69,731.55c.07.12,5.19,4.55,5.35,4.64s.38.23,1.17-.61a18.88,18.88,0,0,1,6.28-4.51c2.1-.78,2.15-1,2.15-1a10.4,10.4,0,0,1,.13-3.35,20.11,20.11,0,0,0-12.52-6.56,30.81,30.81,0,0,0-6.25.28,25.72,25.72,0,0,0-4.62,1.2c-.52.21-2.16.74-2.43.9s-.55.3-.54.33A5.41,5.41,0,0,0,662,723a33.3,33.3,0,0,1,7.89-.49c3.43.36,4.27,1.07,4.73,1.51a2,2,0,0,1,.66,2.73s-1.57,2.19-2,2.77-1.33,1.5-1.44,1.59A.52.52,0,0,0,671.69,731.55Z" transform="translate(191.13 -0.56)" style="fill:#c7c6cc"/><path d="M661.94,722.8a13.76,13.76,0,0,1-1.38,0c-.13.06-.19.14-.17.17A4.84,4.84,0,0,0,662,723a34.58,34.58,0,0,1,7.94-.48c3.46.35,4.29,1.06,4.77,1.52a2.88,2.88,0,0,1,.85,1.27,2.53,2.53,0,0,0-.91-1.49c-.48-.45-1.31-1.16-4.76-1.51A33.51,33.51,0,0,0,661.94,722.8Z" transform="translate(191.13 -0.56)" style="mix-blend-mode:multiply;fill:url(#linear-gradient-7)"/><path d="M676.29,723.66c-1-1.23-3.46-2.74-9.89-1.5-3.32.47-4.39.65-4.39.65l-1.49,0s5.7-2.63,10.27-2.64c3.12,0,5,.1,7,.82,1.22.47,2,2.56,2,2.56Z" transform="translate(191.13 -0.56)" style="opacity:0.67;mix-blend-mode:overlay;fill:url(#linear-gradient-8)"/><path d="M638.64,754.64c2,1.22,8,5.23,8.82,5.7,6.41,3.53,9.23,3.14,11.38,2.54s1.92-1.39,2.88-1.48c2.9-.29,3.38-3.5,3.79-3.65,3-1.14,1.9-4.78,1.9-4.78,3.13-3.86,1.47-4.44,1.47-4.44s-6.82-2.6-9.64-4.94c-1.69-1.41,1.69-1.45.22-2.45-.62-.43-11.23.58-14.59,1.88Z" transform="translate(191.13 -0.56)" style="fill:#d8a798"/><ellipse cx="446.26" cy="933.64" rx="175.67" ry="13.09" style="fill:#c9a993;opacity:0.62;mix-blend-mode:multiply"/><path d="M590.11,929.29c0,4.52-36.64,8.19-81.83,8.19s-81.84-3.67-81.84-8.19,36.64-8.18,81.84-8.18S590.11,924.77,590.11,929.29Z" transform="translate(191.13 -0.56)" style="fill:#c9a993;opacity:0.62;mix-blend-mode:multiply"/><polygon points="622.44 824.63 620.78 821.72 620.78 780.31 625.95 780.31 622.44 824.63" style="fill:#9c9cb5"/><rect x="622.38" y="783.17" width="5.16" height="41.42" style="fill:#6f7687"/><polygon points="604.11 774.27 635.51 774.27 635.51 770.93 620.53 769.56 603.36 770.32 604.11 774.27" style="fill:#d69350"/><polygon points="335.94 922.14 333.67 923.49 333.67 798.87 335.94 798.87 335.94 922.14" style="fill:#d69350"/><rect x="324.32" y="798.87" width="9.54" height="124.63" style="fill:#995233"/><polygon points="318.16 936.21 315.41 937.71 315.41 798.45 318.16 798.45 318.16 936.21" style="fill:#d69350"/><rect x="303.57" y="798.45" width="12.38" height="139.26" style="fill:#ba734a"/><polygon points="534.75 917.16 537.02 918.53 537.02 793.89 534.75 793.89 534.75 917.16" style="fill:#d69350"/><rect x="536.83" y="793.89" width="9.54" height="124.64" style="fill:#995233"/><polygon points="552.53 931.23 555.28 932.74 555.28 793.48 552.53 793.48 552.53 931.23" style="fill:#d69350"/><rect x="554.74" y="793.47" width="12.39" height="139.26" style="fill:#ba734a"/><rect x="303.57" y="785.6" width="263.55" height="25.28" style="fill:#ba734a"/><polygon points="249.13 779.38 249.13 784.21 649.32 782.01 649.95 778.93 643.25 775.24 612.19 775.11 607.28 771.27 635.41 770.93 629.04 767.42 284.44 767.42 249.13 779.38" style="fill:#ba734a"/><rect x="249.07" y="779.05" width="400.94" height="11.1" style="fill:#cc8a5e"/><polygon points="622.44 773.23 620.78 770.32 620.78 728.9 625.95 728.9 622.44 773.23" style="fill:#9c9cb5"/><path d="M420.26,763.71V728.38c0-.82.19-1.5.89-1.39l10.33,3,4.61-.64c-.06-1.08-.46-2-1.45-2.16l-10.29-2.42c-.7-.12-6.2-.39-6.2,1.57v38.47a3.57,3.57,0,0,0,1.27,2.57l11.83,8.4c.76,0,5.22-.26,5.22-.26l-15-9.45A3.14,3.14,0,0,1,420.26,763.71Z" transform="translate(191.13 -0.56)" style="fill:#9c9cb5"/><path d="M422,762.91V729.37c0-.78.19-1.42.89-1.32l10.32,2.83,2.89-.28c-.06-1,.33-2.24-.67-2.4l-9.34-2.28c-.7-.11-6.2-.37-6.2,1.5v36.52a3.32,3.32,0,0,0,1.26,2.44l11.84,8a12.92,12.92,0,0,0,3-1.07l-12.73-8.15A3,3,0,0,1,422,762.91Z" transform="translate(191.13 -0.56)" style="fill:#6f7687"/><path d="M450.4,768c0,1.3-20.1,3.56-20.5,3.56l-2.78-1.69c-.4,0-.72-1.05-.72-2.35h0c0-1.29.32-2.34.72-2.34h20.17c.4,0,4.12.85,4.12,2.14Z" transform="translate(191.13 -0.56)" style="fill:#9c9cb5"/><path d="M451.92,769.32c0,1.29-.32,2.34-.72,2.34H430c-.39,0-.72-1-.72-2.34h0c0-1.3.33-2.35.72-2.35H451.2c.4,0,.72,1,.72,2.35Z" transform="translate(191.13 -0.56)" style="fill:#6f7687"/><rect x="622.38" y="728.12" width="5.16" height="47.14" style="fill:#6f7687"/><path d="M421.08,726.81l10.32,3,5-.84a2.11,2.11,0,0,0-1.87-2l-10.28-2.42c-.7-.12-6.2-.4-6.2,1.57C418.08,726.14,420.38,726.7,421.08,726.81Z" transform="translate(191.13 -0.56)" style="fill:#9c9cb5"/><path d="M447.23,738.05a1.07,1.07,0,0,1-.46,1.44l-23.21,12a1.07,1.07,0,0,1-1.44-.45h0a1.07,1.07,0,0,1,.46-1.44l23.21-12a1.07,1.07,0,0,1,1.44.45Z" transform="translate(191.13 -0.56)" style="fill:#798393"/><path d="M446,738.47c.12.23-.18.62-.67.87l-21.69,11.24c-.49.26-1,.28-1.1,0h0c-.12-.23.19-.61.68-.87l21.68-11.24c.49-.25,1-.27,1.1,0Z" transform="translate(191.13 -0.56)" style="fill:#9c9cb5"/><path d="M430.1,745a4.27,4.27,0,1,1,4.26,4.27A4.27,4.27,0,0,1,430.1,745Z" transform="translate(191.13 -0.56)" style="fill:#9c9cb5"/><path d="M431.39,745a3,3,0,1,1,3,3A3,3,0,0,1,431.39,745Z" transform="translate(191.13 -0.56)" style="fill:#798393"/><path d="M326.13,710.72,319.75,741h27.87s-8.75-15.14-.78-28.68S326.13,710.72,326.13,710.72Z" transform="translate(191.13 -0.56)" style="fill:#586275"/><path d="M269.3,739a4,4,0,0,1-.07,1.06h-.39a4,4,0,0,1-.07-1.06V725.19a4,4,0,0,1,.07-1.06h.39a4,4,0,0,1,.07,1.06Z" transform="translate(191.13 -0.56)" style="fill:#70798e"/><path d="M268.91,736.86V724.53h0a3.48,3.48,0,0,0-.07,1v12.89a3.54,3.54,0,0,0,.07,1h.37a4.39,4.39,0,0,0,.06-1v-.56H269A4.39,4.39,0,0,1,268.91,736.86Z" transform="translate(191.13 -0.56)" style="fill:#9fa8bc;opacity:0.65;mix-blend-mode:multiply"/><path d="M270.36,735.94c0,.59-.17,1.07-.37,1.07h-2.18c-.2,0-.37-.48-.37-1.07v-13.8c0-.59.17-1.07.37-1.07H270c.2,0,.37.48.37,1.07Z" transform="translate(191.13 -0.56)" style="fill:#70798e"/><path d="M268.22,733.8V721.47H268c-.2,0-.35.44-.35,1v12.89c0,.55.15,1,.35,1h2c.2,0,.35-.44.35-1v-.56h-1.79C268.37,734.79,268.22,734.35,268.22,733.8Z" transform="translate(191.13 -0.56)" style="fill:#9fa8bc;opacity:0.65;mix-blend-mode:multiply"/><path d="M345.64,692c-30.27-35.06-73.29-21.51-80.46-19.92l.4,32.66s2.76.56,7.27,1.37l-.1-30.93c6.31-1.51,44.18-11.51,70.83,21.79,3.56,4.45,4.87,7.9,4.57,10.58C352.21,704.54,352.24,699.63,345.64,692Z" transform="translate(191.13 -0.56)" style="fill:#70798e"/><path d="M361.18,705.14c.53,13.81-7.86,15.14-34.26,15.14-19.79,0-45.74-2.27-57.48-7.7-3.91-1.82-6.25-5.35-6.25-7.44s2.33-4.83,6.24-6.64c11.74-5.43,37.69-8.5,57.49-8.5C353.32,690,360.63,690.81,361.18,705.14Z" transform="translate(191.13 -0.56)" style="fill:#70798e"/><path d="M341.26,701.16c1.35-1.44.4-5.78,4-7.37-4.72-2.62-7.6-1.66-20.45-1.66-19.8,0-45.75,3.06-57.49,8.5a14.73,14.73,0,0,0-4.14,2.78A73.47,73.47,0,0,0,275,706.57c13.26-3.82,33.91-5.94,50.35-5.94C335.46,700.63,336.43,699.45,341.26,701.16Z" transform="translate(191.13 -0.56)" style="fill:#9fa8bc;opacity:0.5700000000000001"/><path d="M277.13,726c0,2.42-3.51,4.38-7.83,4.38s-7.84-2-7.84-4.38,3.51-4.38,7.84-4.38S277.13,723.57,277.13,726Z" transform="translate(191.13 -0.56)" style="fill:#586275"/><path d="M276.73,773.65c.8-2.39.8-9.56,8-9.56s53.38-9.56,53.38-9.56h8v19.92Z" transform="translate(191.13 -0.56)" style="fill:#586275"/><path d="M287.36,766c7.17,0,53.37-9.56,53.37-9.56h5.58v-2h-8S292.14,764,285,764s-7.17,7.17-8,9.56l2.85,0C280.49,770.49,281.63,766,287.36,766Z" transform="translate(191.13 -0.56)" style="fill:#9fa8bc;opacity:0.75"/><path d="M285.89,745.77c0,2.79-2.78,5.58,1.2,6.37s60.94,7.17,62.54,7.17h3.18V743.18Z" transform="translate(191.13 -0.56)" style="fill:#9fa8bc"/><path d="M286.29,747.72c0,2.11-1.14,3.82-2.54,3.82H264.94c-1.4,0-2.55-1.71-2.55-3.82v-3.11c0-2.11,1.15-3.82,2.55-3.82h18.81c1.4,0,2.54,1.71,2.54,3.82Z" transform="translate(191.13 -0.56)" style="fill:#70798e"/><path d="M355.6,745.12c0,1.32-3.58,2.39-8,2.39H288.7c-4.41,0-8-1.07-8-2.39v-1.94c0-1.32,3.57-2.39,8-2.39h58.92c4.4,0,8,1.07,8,2.39Z" transform="translate(191.13 -0.56)" style="fill:#70798e"/><rect x="450.47" y="686.26" width="19.92" height="38.24" rx="2.55" style="fill:#9fa8bc"/><path d="M264.63,717.37v-29.6h-1.58a2.38,2.38,0,0,0-2.38,2.38v30.93a2.37,2.37,0,0,0,2.38,2.38h13.83a2.38,2.38,0,0,0,2.38-2.38v-1.33H267A2.39,2.39,0,0,1,264.63,717.37Z" transform="translate(191.13 -0.56)" style="fill:#9fa8bc;opacity:0.65;mix-blend-mode:multiply"/><path d="M356.93,672.75A31.07,31.07,0,1,0,388,703.81,31.07,31.07,0,0,0,356.93,672.75Zm0,55.92a24.86,24.86,0,1,1,24.86-24.86A24.86,24.86,0,0,1,356.93,728.67Z" transform="translate(191.13 -0.56)" style="fill:#70798e"/><path d="M360.91,700.1s16.47-10.1,11.16-19.66c9,4.78,9,6.91,9,6.91s-12.21,14.34-18,14.87S360.91,700.1,360.91,700.1Z" transform="translate(191.13 -0.56)" style="fill:#70798e"/><path d="M355.19,707.63s-17,9.13-12.27,19c-8.74-5.29-8.61-7.41-8.61-7.41s13-13.62,18.88-13.81S355.19,707.63,355.19,707.63Z" transform="translate(191.13 -0.56)" style="fill:#8e99ad"/><path d="M361.6,707.73s5.91,18.38,16.45,15.49c-6.78,7.63-8.84,7.13-8.84,7.13s-11-15.26-10.18-21.06S361.6,707.73,361.6,707.73Z" transform="translate(191.13 -0.56)" style="fill:#70798e"/><path d="M355.63,700.38S350.8,681.68,340.1,684c7.21-7.24,9.24-6.62,9.24-6.62s10.15,15.88,9,21.62S355.63,700.38,355.63,700.38Z" transform="translate(191.13 -0.56)" style="fill:#8e99ad"/><path d="M358.79,671.68a31.87,31.87,0,1,0,31.87,31.87A31.87,31.87,0,0,0,358.79,671.68Zm0,57.36a25.5,25.5,0,1,1,25.49-25.49A25.49,25.49,0,0,1,358.79,729Z" transform="translate(191.13 -0.56)" style="fill:#9fa8bc"/><path d="M349.23,704.34a8,8,0,1,1,8,8A8,8,0,0,1,349.23,704.34Z" transform="translate(191.13 -0.56)" style="fill:#9fa8bc"/><path d="M394.1,681.25a3.71,3.71,0,1,1-4.24-3.1A3.72,3.72,0,0,1,394.1,681.25Z" transform="translate(191.13 -0.56)" style="fill:#70798e"/><path d="M390.83,685.26c-4.75-.34-12.73,3.72-13.43,4.37s-3.53-4.13.49-4.65c10.4-1.35,11-6.14,11-6.14Z" transform="translate(191.13 -0.56)" style="fill:#70798e"/><path d="M482.09,837.5c-3.69-1.91-7.27-.41-5-2.56s16-2.62,21.27-2.74,10.61-2,10.73-.48-1.43,4.17-2.14,4.41S482.09,837.5,482.09,837.5Z" transform="translate(191.13 -0.56)" style="fill:#a55016"/><path d="M453.34,927c0-1.91-1.9-7,4.46-7.63s15.38-2.12,20.66-7.31c7.27-7.15,6.6-43.47,3.74-58.72-.43-1.54-1.65-6.64-2.15-8-1.15-3.25-2.23-7.39-3.67-9.49,8.26,1.26,29-.94,32.84-4.12-.76,9.71-.49,44.75-1.52,53.81-1.6,14.09-3.54,20.42-1.42,24.64,2,4-.25,17.24-1.43,18.27-1.41,1.21-11,.41-11.61.25-3.93-1-.1-5.67-7.32-2.47-11.43,5.08-16.52,4.14-24.15,3.51S453.34,927,453.34,927Z" transform="translate(191.13 -0.56)" style="fill:#7b3804"/><path d="M456.92,919.8c-.47,3.34,7.87,2.31,7.87,2.31s20-2.31,23.37-12.47c5.24-15.74-5.05-73.19-8-72.8a4.68,4.68,0,0,1-2.78-.31s13.25,49,4.45,72.15C477.74,919.33,456.92,919.8,456.92,919.8Z" transform="translate(191.13 -0.56)" style="fill:#a55016"/><path d="M544.49,839.17c3.69-1.91,7.27-.41,5-2.56s-16-2.62-21.27-2.74-10.62-2-10.73-.48,1.43,4.17,2.14,4.41S544.49,839.17,544.49,839.17Z" transform="translate(191.13 -0.56)" style="fill:#a55016"/><path d="M573.23,928.63c0-1.92,1.92-7-4.45-7.63s-15.37-2.12-20.65-7.31c-7.28-7.15-6.61-23.45-3.75-38.7.43-1.54,1.65-26.66,2.16-28,1.14-3.25,2.22-7.39,3.67-9.49-8.27,1.26-29-.94-32.84-4.12.74,9.71.48,44.74,1.51,53.81,1.61,14.09,3.54,20.42,1.43,24.64-2,4,.24,17.24,1.43,18.27,1.39,1.2,11,.41,11.61.25,3.93-1,.1-5.67,7.31-2.47,11.44,5.08,16.52,4.13,24.15,3.51S573.23,928.63,573.23,928.63Z" transform="translate(191.13 -0.56)" style="fill:#7b3804"/><path d="M569.66,921.47c.48,3.34-7.87,2.31-7.87,2.31s-20-2.31-23.35-12.48c-5.26-15.73,5-73.18,8-72.79a4.73,4.73,0,0,0,2.79-.31s-13.25,49-4.46,72.15C548.84,921,569.66,921.47,569.66,921.47Z" transform="translate(191.13 -0.56)" style="fill:#a55016"/><polygon points="579.21 938 580.4 938.64 589.46 936.73 582.31 930.85 579.21 938" style="fill:#151823"/><path d="M433.73,931.84c1.12,2.54.44,4.29-1.31,5.24s-24.25,4.69-28.37,4.53-4.93-1.46-7.48-3.38-6.5-3.09-7.14-2.45-.16,3.41-.16,3.41l-8.9-1.35a38.89,38.89,0,0,1-.79-5.48c.16-4.44,49.74-1.91,51.81-1.12S433.73,931.84,433.73,931.84Z" transform="translate(191.13 -0.56)" style="fill:#151823"/><path d="M382.75,909.63c2.23-1.59,12.41-3.49,18.12-1.59s5.09,2.23,6,5.4,5.1,6.68,7.31,10.81S382.75,909.63,382.75,909.63Z" transform="translate(191.13 -0.56)" style="fill:#151823"/><path d="M433.29,934.11c-1.27,3.18-29.24,7-33.05,4.45a24.08,24.08,0,0,0-12.08-4.45,23.74,23.74,0,0,1-7.3-1.59s-2.86-9.86-.32-14.31a11.5,11.5,0,0,0,.63-9.21s15.26-1.59,17.8,1.59,12.08,14.62,17.16,15.25,12.72.64,15.26,1.91S433.29,934.11,433.29,934.11Z" transform="translate(191.13 -0.56)" style="fill:#282a35"/><path d="M410.49,924.81c-5.18-2.89-11.12-8.5-11.12-8.5-.16-2.87,3.09-6,5.95-2.55s11.12,11.77,13,13C419.27,927.41,415.22,927.44,410.49,924.81Z" transform="translate(191.13 -0.56)" style="fill:#151823"/><polygon points="532.5 944.12 533.68 944.75 542.75 942.85 535.59 936.97 532.5 944.12" style="fill:#151823"/><path d="M387,938c1.12,2.54.44,4.29-1.31,5.24s-24.25,4.69-28.37,4.53-4.93-1.46-7.48-3.38-6.5-3.09-7.14-2.45-.16,3.41-.16,3.41l-8.9-1.35a38.89,38.89,0,0,1-.79-5.48c.15-4.45,49.73-1.91,51.8-1.12S387,938,387,938Z" transform="translate(191.13 -0.56)" style="fill:#282a35"/><path d="M336,915.74c2.22-1.58,12.4-3.48,18.12-1.58s5.09,2.22,6,5.39,5.09,6.69,7.31,10.82S336,915.74,336,915.74Z" transform="translate(191.13 -0.56)" style="fill:#282a35"/><path d="M386.58,940.23c-1.27,3.18-29.24,7-33.05,4.44a24.1,24.1,0,0,0-12.08-4.44,23.86,23.86,0,0,1-7.31-1.59s-2.86-9.86-.32-14.31a11.47,11.47,0,0,0,.64-9.21s15.25-1.6,17.79,1.58,12.09,14.63,17.16,15.26,12.73.64,15.26,1.91S386.58,940.23,386.58,940.23Z" transform="translate(191.13 -0.56)" style="fill:#151823"/><path d="M363.78,930.92c-5.18-2.89-11.13-8.5-11.13-8.5-.16-2.87,3.1-6,6-2.54s11.12,11.77,13,13C372.55,933.52,368.51,933.56,363.78,930.92Z" transform="translate(191.13 -0.56)" style="fill:#151823"/><path d="M999.55,693c-3.69-1.91-7.27-.42-5-2.57s16-2.61,21.27-2.73,10.62-2,10.73-.48-1.43,4.17-2.14,4.41S999.55,693,999.55,693Z" transform="translate(191.13 -0.56)" style="fill:#282a35"/><path d="M970.81,762.39c0-1.91-1.91-7,4.45-7.63s15.38-2.11,20.66-7.31c7.28-7.15,6.6-23.44,3.74-38.69-.43-1.55-1.65-6.64-2.15-8-1.15-3.26-2.23-7.39-3.67-9.5,8.26,1.27,29-.93,32.83-4.11-.75,9.71-.48,24.72-1.51,33.79-1.6,14.08-3.54,20.41-1.42,24.63,2,4-.25,17.25-1.43,18.28-1.41,1.2-11,.4-11.61.24-3.93-1-.1-5.66-7.32-2.46-11.43,5.08-16.52,4.13-24.14,3.5S970.81,762.39,970.81,762.39Z" transform="translate(191.13 -0.56)" style="fill:#151823"/><path d="M974.38,755.24c-.47,3.34,7.87,2.3,7.87,2.3s20-2.3,23.37-12.47c5.24-15.74-5-53.17-8-52.77a4.67,4.67,0,0,1-2.77-.32s13.24,29,4.44,52.14C995.21,754.76,974.38,755.24,974.38,755.24Z" transform="translate(191.13 -0.56)" style="fill:#282a35"/><path d="M1033,693.77c-3.69-1.9-7.27-.41-5-2.56s16-2.62,21.27-2.73,10.62-2,10.73-.49-1.42,4.18-2.14,4.42S1033,693.77,1033,693.77Z" transform="translate(191.13 -0.56)" style="fill:#282a35"/><path d="M1004.26,763.21c0-1.91-1.91-7,4.45-7.63s15.36-2.11,20.66-7.31c7.27-7.15,6.6-23.44,3.74-38.69-.43-1.55-1.65-6.64-2.15-8-1.15-3.26-2.23-7.39-3.67-9.5,8.26,1.27,29-.93,32.83-4.11-.75,9.7-.48,24.72-1.51,33.78-1.61,14.09-3.54,20.42-1.43,24.64,2,4-.24,17.25-1.43,18.28-1.39,1.2-11,.4-11.61.24-3.93-1-.1-5.67-7.31-2.46-11.44,5.08-16.52,4.13-24.15,3.5S1004.26,763.21,1004.26,763.21Z" transform="translate(191.13 -0.56)" style="fill:#151823"/><path d="M1007.83,756.05c-.48,3.35,7.87,2.31,7.87,2.31s20-2.3,23.36-12.47c5.25-15.74-5-53.17-8-52.77a4.8,4.8,0,0,1-2.79-.32s13.26,29,4.46,52.14C1028.65,755.58,1007.83,756.05,1007.83,756.05Z" transform="translate(191.13 -0.56)" style="fill:#282a35"/><polygon points="1141.1 761.86 1139.91 762.5 1130.84 760.6 1138 754.71 1141.1 761.86" style="fill:#151823"/><path d="M904.32,755.7c-1.12,2.54-.44,4.29,1.3,5.25s24.25,4.68,28.38,4.53,4.93-1.47,7.48-3.39,6.5-3.09,7.14-2.45.16,3.41.16,3.41l8.9-1.35a38.65,38.65,0,0,0,.79-5.48c-.15-4.44-49.73-1.91-51.81-1.11S904.32,755.7,904.32,755.7Z" transform="translate(191.13 -0.56)" style="fill:#282a35"/><path d="M955.3,733.49c-2.23-1.59-12.4-3.49-18.12-1.59s-5.09,2.23-6,5.4-5.1,6.69-7.31,10.81S955.3,733.49,955.3,733.49Z" transform="translate(191.13 -0.56)" style="fill:#282a35"/><path d="M904.76,758c1.27,3.18,29.24,7,33,4.45A24.08,24.08,0,0,1,949.89,758a23.39,23.39,0,0,0,7.3-1.59s2.87-9.85.32-14.3a11.52,11.52,0,0,1-.63-9.22s-15.26-1.59-17.79,1.59S927,749.07,921.93,749.71s-12.73.63-15.27,1.9S904.76,758,904.76,758Z" transform="translate(191.13 -0.56)" style="fill:#151823"/><path d="M927.56,748.67c5.18-2.89,11.12-8.5,11.12-8.5.16-2.87-3.09-6-5.95-2.55s-11.12,11.77-13,13C918.78,751.27,922.83,751.3,927.56,748.67Z" transform="translate(191.13 -0.56)" style="fill:#151823"/><path d="M925.8,661.4c0-7.74.62-23.09.62-36h0c0-8.92-.31-16.74-1.29-19.93h0c-.3-1.1-.73-1.4-.79-1.38h0c-.05,0-.28.07-.58.46h0l-.77-.62a1.82,1.82,0,0,1,1.35-.82h0c1.8.31,2,2.91,2.54,6.87h0c.39,4,.53,9.45.53,15.42h0c0,13-.63,28.33-.63,36h0c0,.44,0,.85,0,1.24h0l-1,0c0-.39,0-.81,0-1.26Z" transform="translate(191.13 -0.56)" style="fill:#cc8a5e"/><polygon points="1415.05 864.06 1415.77 859.55 1380.71 856.34 1302.7 856.34 1303.07 859.41 1415.05 864.06" style="fill:#ba734a"/><polygon points="1306.74 905.75 1343.69 914.48 1346.45 861.51 1306.74 861.67 1306.74 905.75" style="fill:#db8c56"/><polygon points="1343.26 914.42 1409.71 912.91 1410.29 861.47 1343.26 861.51 1343.26 914.42" style="fill:#efa878"/><path d="M1173.85,889.22a1.16,1.16,0,0,0,1.14,1.18h24.59a1.16,1.16,0,0,0,1.13-1.18v-5.05a1.16,1.16,0,0,0-1.13-1.19H1175a1.16,1.16,0,0,0-1.14,1.19Z" transform="translate(191.13 -0.56)" style="fill:#96a6bc;opacity:0.55;mix-blend-mode:multiply"/><polygon points="1410.12 870.5 1403.76 882.29 1343.26 882.29 1307.45 888.29 1307.45 861.67 1410.83 867.17 1410.12 870.5" style="mix-blend-mode:multiply;fill:url(#linear-gradient-9)"/><path d="M1110.94,868a1.15,1.15,0,0,0,1.12,1.18l36.74,2.52a1.17,1.17,0,0,0,1.14-1.19v-9.87a1.16,1.16,0,0,0-1.14-1.19L1112.06,857a1.15,1.15,0,0,0-1.12,1.18Z" transform="translate(191.13 -0.56)" style="fill:#db8c56"/><path d="M1148.53,870.7a1.16,1.16,0,0,0,1.15,1.18l74.71,0a1.17,1.17,0,0,0,1.15-1.18v-9.88a1.17,1.17,0,0,0-1.15-1.19l-74.71,0a1.17,1.17,0,0,0-1.15,1.19Z" transform="translate(191.13 -0.56)" style="fill:#efa878"/><polygon points="1322.02 856.18 1355.36 860.67 1357.28 807.7 1323.24 811.37 1322.02 856.18" style="fill:#db8c56"/><polygon points="1355.05 860.61 1400.58 857.81 1401.6 807.89 1355.05 807.7 1355.05 860.61" style="fill:#e09868"/><path d="M1179.07,835.4c0,.66.36,1.19.79,1.19H1197c.44,0,.79-.53.79-1.19v-5c0-.66-.35-1.2-.79-1.2h-17.15c-.43,0-.79.54-.79,1.2Z" transform="translate(191.13 -0.56)" style="fill:#96a6bc;opacity:0.55;mix-blend-mode:multiply"/><polygon points="1401.19 816.49 1397.24 831.37 1355.05 831.37 1322.84 837.79 1322.84 811.17 1403.42 813.64 1401.19 816.49" style="mix-blend-mode:multiply;fill:url(#linear-gradient-10)"/><path d="M1127.43,817.09a1.11,1.11,0,0,0,1,1.19l32.94-.37a1.12,1.12,0,0,0,1-1.19v-9.88a1.11,1.11,0,0,0-1-1.18l-32.94,1.57a1.1,1.1,0,0,0-1,1.18Z" transform="translate(191.13 -0.56)" style="fill:#db8c56"/><path d="M1161.41,816.89c0,.65.36,1.18.81,1.18h53.71c.44,0,.8-.53.8-1.18v-8.64c0-.65-.36-1.18-.8-1.18l-53.71-1.25c-.45,0-.81.53-.81,1.18Z" transform="translate(191.13 -0.56)" style="fill:#efa878"/><rect x="190" width="1299" height="557" style="fill:url(#Безымянный_градиент_29)"/><path d="M229.47,273.64h34.42V222.08a177.08,177.08,0,0,0-28.42-1.91q-32.52,0-59.18,13.62-2.34-1-2.34-4.24,0-7.19,7.91-21.68T204,176.08q8.49-10.4,19-23.44a247.3,247.3,0,0,0,18.24-25.49,177.52,177.52,0,0,0,14-28.56A169,169,0,0,0,264.48,63a69.78,69.78,0,0,0,25.19,4.54,83.23,83.23,0,0,0,25.2-3.66,166.93,166.93,0,0,1-18.39,39.92A160.93,160.93,0,0,1,273,132.72a222.16,222.16,0,0,1-24.68,20.65Q235.91,162.46,221,173.3q-30.61,23.58-36.62,44.38a137.13,137.13,0,0,1,37.21-5.27q23.87,0,42.33,4.1V166.12q26.81-6.6,42-27.25v80.72a66.4,66.4,0,0,0,7.47.58q12.6,0,12.6-6.59,0-1.17-4-5.13a11.86,11.86,0,0,1-2.93-8,16,16,0,0,1,4.11-10.77,14.19,14.19,0,0,1,20.8-.44q3.94,4.32,4,12.38,0,12.88-11.35,18.45a53.31,53.31,0,0,1-23.8,5.57,65.49,65.49,0,0,1-6.89-.58v48.63h26.95v5.42H229.47Z" transform="translate(191.13 -0.56)" style="fill:#7c4509"/><path d="M441,63q18.45,0,37.5,14.51,18.9,14.79,31.2,40.35T522,174a129.82,129.82,0,0,1-7.26,43.65,121.69,121.69,0,0,1-19.26,35.6q-12,15.09-26.44,23.43T441,285.06q-18.6,0-37.57-14.64t-31.13-40.29q-12.45-25.49-12.45-56.1t12.45-56.25q12.15-25.48,31.2-40.28Q422.39,63,441,63Zm0,216.65q15.83,0,23.73-16.4t10.11-38.38q2-22.12,2.05-50.83t-2.05-50.83q-2.06-22.12-10.11-38.53T441,68.41q-15.83,0-23.8,16.26t-10.11,38.38Q405,145.18,405,174q0,21,1,37.79a199.82,199.82,0,0,0,4.46,32.52q3.53,15.53,10.92,25.42A23.39,23.39,0,0,0,441,279.64Z" transform="translate(191.13 -0.56)" style="fill:#7c4509"/><path d="M589.52,273.64H624V222.08a177.08,177.08,0,0,0-28.42-1.91q-32.52,0-59.18,13.62-2.34-1-2.34-4.24,0-7.19,7.91-21.68T564,176.08q8.49-10.4,19-23.44a247.3,247.3,0,0,0,18.24-25.49,177.52,177.52,0,0,0,14-28.56A168.42,168.42,0,0,0,624.53,63a69.84,69.84,0,0,0,25.2,4.54,83.12,83.12,0,0,0,25.19-3.66,166.53,166.53,0,0,1-18.38,39.92,161.36,161.36,0,0,1-23.44,28.93,223.07,223.07,0,0,1-24.68,20.65Q596,162.46,581,173.3q-30.62,23.58-36.62,44.38a137.12,137.12,0,0,1,37.2-5.27q23.88,0,42.34,4.1V166.12q26.81-6.6,42-27.25v80.72a66.4,66.4,0,0,0,7.47.58q12.6,0,12.6-6.59,0-1.17-4-5.13a11.86,11.86,0,0,1-2.93-8,16.06,16.06,0,0,1,4.1-10.77,14.2,14.2,0,0,1,20.81-.44q3.95,4.32,3.95,12.38,0,12.88-11.35,18.45a53.32,53.32,0,0,1-23.81,5.57A65.35,65.35,0,0,1,666,225v48.63h27v5.42H589.52Z" transform="translate(191.13 -0.56)" style="fill:#7c4509"/><path d="M292.85,320.16h-12v31.4h-3.27v-31.4h-12v-2.78h27.27Z" transform="translate(191.13 -0.56)"/><path d="M312.24,339.32c0,8-4.46,13-11.61,13s-11.77-5.09-11.77-13.06,4.61-13.06,11.77-13.06S312.24,331.25,312.24,339.32Zm-20.3-.1c0,6.48,3.31,10.56,8.73,10.56,5.24,0,8.55-4.08,8.55-10.51s-3.36-10.56-8.64-10.56S291.94,332.84,291.94,339.22Z" transform="translate(191.13 -0.56)"/><path d="M327,336l11.28,15.6h-3.8L324.67,338l-4.89,4.18v9.36H316.9V317.38h2.88v21.55l13.77-12.05h4Z" transform="translate(191.13 -0.56)"/><path d="M343.87,322.18h-3v-4.94h3Zm0,29.38h-3V326.88h3Z" transform="translate(191.13 -0.56)"/><path d="M371.81,339.32c0,8-4.46,13-11.62,13s-11.76-5.09-11.76-13.06,4.61-13.06,11.76-13.06S371.81,331.25,371.81,339.32Zm-20.31-.1c0,6.48,3.32,10.56,8.74,10.56,5.23,0,8.55-4.08,8.55-10.51s-3.36-10.56-8.64-10.56S351.5,332.84,351.5,339.22Z" transform="translate(191.13 -0.56)"/><path d="M392.59,331.64a9.12,9.12,0,0,1,8.84-5.48c6.72,0,11.13,5.24,11.13,13.16s-4.41,13-11,13a9.05,9.05,0,0,1-8.74-5.33v13.77h-2.92V326.88h2.73Zm.1,7.63c0,6.48,3.26,10.51,8.45,10.51s8.35-4.13,8.35-10.46c0-6.48-3.26-10.66-8.45-10.66S392.69,332.64,392.69,339.27Z" transform="translate(191.13 -0.56)"/><path d="M437.19,351.56H434.4V347a9,9,0,0,1-8.69,5.28c-5.13,0-8.49-3-8.49-9V326.88h3V342c0,4.84,1.49,7.63,6.24,7.63,4.95,0,7.73-4.13,7.73-9.12V326.88h3Z" transform="translate(191.13 -0.56)"/><path d="M457.82,334.08c-.28-3.74-2.68-5.37-6.67-5.37-3.55,0-5.76,1.58-5.76,4.08,0,3.07,2.4,3.6,7.06,4.65,4,.92,9.17,2.16,9.17,7.3,0,4.51-3.94,7.59-9.8,7.59-6.33,0-10-3.17-10.12-8.84h2.92c0,4.13,2.74,6.34,7.3,6.34,4,0,6.72-1.92,6.72-4.8,0-3.46-4.18-4.22-6.77-4.85-4-1-9.5-1.58-9.5-7,0-4.32,3.45-7,9.07-7,5.42,0,9.31,2.59,9.31,7.87Z" transform="translate(191.13 -0.56)"/><path d="M469.2,351.56h-3V317.38h3Z" transform="translate(191.13 -0.56)"/><path d="M496.66,351.41a6.79,6.79,0,0,1-2.4.39c-2.93,0-3.22-2.26-3.22-4.51a10.35,10.35,0,0,1-9.31,4.94c-5,0-8.07-2.59-8.07-6.91,0-4.51,3.07-7,9.17-7.63,3.89-.39,6-.48,7.2-1.3.63-.43.87-1.11.87-2.35,0-4.08-2.5-5.33-6.44-5.33-4.17,0-6.33,1.82-6.72,5.81h-2.88c.24-5.28,3.84-8.31,9.94-8.31,5.57,0,9.07,2.45,9.07,7.11v13.44c0,1.49-.05,2.49,1.63,2.49a3.71,3.71,0,0,0,1.16-.14Zm-12.48-11.56c-3.12.43-7.35,1.15-7.35,5.18,0,2.88,2.21,4.7,5.67,4.7,4.51,0,8.4-2.88,8.4-7.58v-4C489.94,339.17,487.49,339.41,484.18,339.85Z" transform="translate(191.13 -0.56)"/><path d="M502.8,331.64a9.1,9.1,0,0,1,8.83-5.48c6.72,0,11.14,5.24,11.14,13.16s-4.42,13-11,13A9,9,0,0,1,503,347v13.77h-2.93V326.88h2.74Zm.09,7.63c0,6.48,3.27,10.51,8.45,10.51s8.36-4.13,8.36-10.46c0-6.48-3.27-10.66-8.45-10.66S502.89,332.64,502.89,339.27Z" transform="translate(191.13 -0.56)"/><path d="M530.54,322.18h-3v-4.94h3Zm0,29.38h-3V326.88h3Z" transform="translate(191.13 -0.56)"/><path d="M558.48,339.32c0,8-4.46,13-11.62,13s-11.76-5.09-11.76-13.06,4.61-13.06,11.76-13.06S558.48,331.25,558.48,339.32Zm-20.31-.1c0,6.48,3.32,10.56,8.74,10.56,5.23,0,8.55-4.08,8.55-10.51s-3.36-10.56-8.65-10.56S538.17,332.84,538.17,339.22Z" transform="translate(191.13 -0.56)"/><path d="M579.21,331.54c2-3.5,4.47-5.33,8.74-5.33,4.8,0,8.55,2.5,8.55,8.55v16.8h-3V335.72c0-5.09-2.54-6.87-6.29-6.87-4.51,0-7.77,3-7.77,9.36v13.35h-3V326.88h2.83Z" transform="translate(191.13 -0.56)"/><path d="M605.13,340.71c.1,5.71,3.75,8.06,8,8.06a15.19,15.19,0,0,0,6.44-1.2l.72,3a18.89,18.89,0,0,1-7.73,1.44c-7.16,0-11.43-4.71-11.43-11.71s4.13-12.53,10.9-12.53c7.58,0,9.6,6.67,9.6,10.94a18,18,0,0,1-.14,2Zm12.39-3c.05-2.69-1.1-6.87-5.86-6.87-4.27,0-6.14,3.94-6.48,6.87Zm-8.45-15.94a2.45,2.45,0,0,1,2.45-2.5,2.48,2.48,0,0,1,0,4.95A2.43,2.43,0,0,1,609.07,321.75Z" transform="translate(191.13 -0.56)"/><path d="M638.83,329.57c-.34,0-.62-.05-.82-.05a8,8,0,0,0-7.87,5.86,22.57,22.57,0,0,0-.57,6.1v10.08h-3V326.88h2.83v5.91c2.07-4.51,4.42-6.19,9.41-6.29Z" transform="translate(191.13 -0.56)"/><path d="M663,351.41a6.72,6.72,0,0,1-2.4.39c-2.92,0-3.21-2.26-3.21-4.51a10.35,10.35,0,0,1-9.32,4.94c-5,0-8.06-2.59-8.06-6.91,0-4.51,3.07-7,9.17-7.63,3.89-.39,6-.48,7.2-1.3.62-.43.86-1.11.86-2.35,0-4.08-2.49-5.33-6.43-5.33-4.17,0-6.33,1.82-6.72,5.81h-2.88c.24-5.28,3.84-8.31,9.94-8.31,5.57,0,9.07,2.45,9.07,7.11v13.44c0,1.49-.05,2.49,1.63,2.49a3.62,3.62,0,0,0,1.15-.14Zm-12.48-11.56c-3.12.43-7.34,1.15-7.34,5.18,0,2.88,2.21,4.7,5.66,4.7,4.52,0,8.4-2.88,8.4-7.58v-4C656.25,339.17,653.81,339.41,650.49,339.85Z" transform="translate(191.13 -0.56)"/></g></g></g></svg>