<svg id="Слой_1" data-name="Слой 1" xmlns="http://www.w3.org/2000/svg" viewBox="0 0 77.61 92.47"><title>l_boot</title><path d="M17.63,3.77S13,6.4,11.19,7.77c2.91,3.73,6.89,9.63,6.89,13.9l5.37-.45S23,8.69,17.63,3.77Z" transform="translate(-11.19 -3.77)" style="fill:#c98663"/><path d="M88.81,92.39C80.3,100,15,94.18,14.05,92.84c-.34-.52-.47-2.68-.49-5.13,0-1.89,0-3.95.07-5.56s.11-2.88.11-2.88l74.31-.45.3,5.49.23,4Z" transform="translate(-11.19 -3.77)" style="fill:#c9b4ad"/><path d="M88.05,78.82C80.72,83,57.17,83.06,38.52,82c-13.25-.73-24-2-24.78-2.76S12.65,68,12.58,55.75c-.1-17.5.38-38.41,1.16-38.7,6.28-2.36,19.75-1.8,29.86-.94,7.19.61,12.67,1.39,12.67,1.39C48.21,52.41,59.4,56.89,59.4,56.89c11.75.68,18.71,4,22.82,7.89A18,18,0,0,1,88.05,78.82Z" transform="translate(-11.19 -3.77)" style="fill:#c98663"/><path d="M82.22,64.78C73.55,69.52,55.89,67.66,49,64.2S42.87,30.14,43.6,16.11c7.19.61,12.67,1.39,12.67,1.39C48.21,52.41,59.4,56.89,59.4,56.89,71.15,57.57,78.11,60.91,82.22,64.78Z" transform="translate(-11.19 -3.77)" style="fill:#a97253"/><path d="M38.52,82c-13.25-.73-24-2-24.78-2.76S12.65,68,12.58,55.75C20.16,57.87,35.31,64.28,38.52,82Z" transform="translate(-11.19 -3.77)" style="fill:#a96a51"/><path d="M88.58,88.31c-21.61,5.5-57.82,1.71-75-.6,0-1.89,0-3.95.07-5.56,42,6.65,63.58,5.37,74.72,2.16Z" transform="translate(-11.19 -3.77)" style="fill:#ece1e3"/><path d="M57.85,25.1a13.37,13.37,0,0,0-2.39-.18c1.24-2.66,1.26-6.08-.55-8-2.13-2.2-5,.21-6.1,2.19a9.16,9.16,0,0,0-1,4.12,12.82,12.82,0,0,0,.58,3.5c-1.76,0-4.69-.12-5.22-1.57-.37-1-2-.57-1.61.44,1,2.61,4.75,2.77,7.13,2.79a.85.85,0,0,0,.42.64c1.31,2,4.15,3.11,6.24,3.67,2.7.71,7.11.9,7.79-2.63C63.78,27,60.32,25.51,57.85,25.1Zm-8.3-2.26c.05-1.59,1.46-5.95,3.82-4.94,1.88.81,1.4,3.76.9,5.24a8.75,8.75,0,0,1-1,2,4.87,4.87,0,0,0-2.83,1.56l-.34,0A15.24,15.24,0,0,1,49.55,22.84ZM51,28.63a4.78,4.78,0,0,0,1.55-.45c.45-.08.89-.16,1.33-.26,1-.22,2.08-.42,2.23-1.46,2.73,0,5.59,1.15,5.51,3.22C61.43,33.09,53.58,31.43,51,28.63Z" transform="translate(-11.19 -3.77)" style="fill:#374365"/><path d="M55.15,35.35a.86.86,0,0,0-1.62,0l-.38.11a11.51,11.51,0,0,1-1.45.21c-1.09.11-2.18.14-3.27.15a10.36,10.36,0,0,1-6.49-1.54c-.91-.58-1.75.87-.85,1.44,2.87,1.82,5.58,1.86,8.85,1.74C51,37.39,55.87,37.48,55.15,35.35Z" transform="translate(-11.19 -3.77)" style="fill:#374365"/><path d="M54.22,43.8C53.59,45,50.71,45,49.55,45.12a13.38,13.38,0,0,1-6.67-.86A2.09,2.09,0,0,0,42.8,44a.83.83,0,0,0-.95-.39.79.79,0,0,1-.26.08.82.82,0,0,0-.22,1.48.71.71,0,0,0,.32.34,15.34,15.34,0,0,0,8.48,1.2c1.71-.15,4.59-.35,5.5-2.09C56.16,43.69,54.72,42.85,54.22,43.8Z" transform="translate(-11.19 -3.77)" style="fill:#374365"/><path d="M55.42,50.37a4,4,0,0,0-.7.6c-1.63.5-3.23,1.11-4.9,1.48-2.27.5-4.38-.27-6.59-.67-1-.2-1.5,1.41-.44,1.61,2.58.47,4.83,1.16,7.47.67a31,31,0,0,0,3.89-1.15,9,9,0,0,0,1.52-.5,1.07,1.07,0,0,0,.3-.3L56,52l.23-.17C57.1,51.16,56.27,49.71,55.42,50.37Z" transform="translate(-11.19 -3.77)" style="fill:#374365"/><path d="M59.66,56.46c-.07-1.07-1.75-1.08-1.67,0,0,.68-.87,1.37-1.31,1.78a24.56,24.56,0,0,1-3.07,2.3q-1.2.8-2.46,1.5c-1.52.84-3.49.47-5.16.45a.84.84,0,0,0,0,1.67c1.82,0,3.95.38,5.65-.49A32.52,32.52,0,0,0,55,61.6C56.54,60.58,59.81,58.65,59.66,56.46Z" transform="translate(-11.19 -3.77)" style="fill:#374365"/></svg>