<svg id="Слой_1" data-name="Слой 1" xmlns="http://www.w3.org/2000/svg" viewBox="0 0 78.06 93"><title>r_boot</title><path d="M17.45,3.5s-4.68,2.65-6.48,4c2.92,3.75,6.93,9.68,6.93,14l5.4-.45S22.85,8.45,17.45,3.5Z" transform="translate(-10.97 -3.5)" style="fill:#c98663"/><path d="M89,92.64c-8.56,7.65-74.28,1.8-75.19.45-.34-.53-.47-2.7-.49-5.17,0-1.89,0-4,.07-5.59s.11-2.89.11-2.89L88.27,79l.31,5.52.22,4Z" transform="translate(-10.97 -3.5)" style="fill:#c9b4ad"/><path d="M88.27,79c-7.38,4.21-31.06,4.26-49.82,3.23-13.33-.74-24.17-2-24.92-2.78s-1.1-11.37-1.17-23.65c-.1-17.61.39-38.64,1.17-38.93,6.32-2.37,19.87-1.81,30-.95,7.22.62,12.73,1.4,12.73,1.4-8.1,35.11,3.15,39.62,3.15,39.62,11.82.68,18.82,4,23,7.93A18.1,18.1,0,0,1,88.27,79Z" transform="translate(-10.97 -3.5)" style="fill:#c98663"/><path d="M82.4,64.86c-8.71,4.77-26.47,2.9-33.44-.58S42.83,30,43.57,15.91c7.22.62,12.73,1.4,12.73,1.4-8.1,35.11,3.15,39.62,3.15,39.62C71.27,57.61,78.27,61,82.4,64.86Z" transform="translate(-10.97 -3.5)" style="fill:#a97253"/><path d="M38.45,82.22c-13.33-.74-24.17-2-24.92-2.78s-1.1-11.37-1.17-23.65C20,57.92,35.22,64.36,38.45,82.22Z" transform="translate(-10.97 -3.5)" style="fill:#a96a51"/><path d="M88.8,88.53c-21.74,5.53-58.15,1.72-75.45-.61,0-1.89,0-4,.07-5.59,42.2,6.7,64,5.41,75.16,2.18Z" transform="translate(-10.97 -3.5)" style="fill:#ece1e3"/><path d="M57.9,25a14.7,14.7,0,0,0-2.41-.18c1.25-2.67,1.27-6.11-.56-8-2.13-2.21-5,.21-6.13,2.2a9.14,9.14,0,0,0-.95,4.14,13,13,0,0,0,.58,3.53c-1.77,0-4.72-.12-5.25-1.58-.37-1-2-.58-1.62.44.95,2.62,4.77,2.78,7.18,2.81a.81.81,0,0,0,.42.64c1.32,2,4.17,3.13,6.27,3.69,2.72.72,7.15.91,7.83-2.64C63.86,26.88,60.38,25.36,57.9,25Zm-8.36-2.27c.06-1.6,1.48-6,3.85-5,1.89.81,1.4,3.78.91,5.26a9,9,0,0,1-1,2,4.89,4.89,0,0,0-2.84,1.57l-.34,0A15.94,15.94,0,0,1,49.54,22.68ZM51,28.5a4.67,4.67,0,0,0,1.56-.45c.45-.07.89-.15,1.33-.26,1-.22,2.1-.42,2.25-1.46,2.74,0,5.62,1.15,5.54,3.23C61.5,33,53.6,31.32,51,28.5Z" transform="translate(-10.97 -3.5)" style="fill:#374365"/><path d="M55.18,35.26a.87.87,0,0,0-1.63,0,1.86,1.86,0,0,1-.38.11,10.29,10.29,0,0,1-1.46.22c-1.09.11-2.19.14-3.29.15a10.57,10.57,0,0,1-6.53-1.55c-.92-.58-1.76.87-.85,1.45,2.88,1.83,5.61,1.87,8.9,1.74C51,37.32,55.9,37.4,55.18,35.26Z" transform="translate(-10.97 -3.5)" style="fill:#374365"/><path d="M54.25,43.77C53.61,45,50.71,45,49.54,45.09a13.4,13.4,0,0,1-6.7-.87c0-.07-.05-.15-.08-.23a.82.82,0,0,0-.95-.38.83.83,0,0,1-.27.07.82.82,0,0,0-.22,1.49.73.73,0,0,0,.32.35,15.55,15.55,0,0,0,8.54,1.2c1.71-.15,4.6-.35,5.52-2.11C56.2,43.66,54.75,42.8,54.25,43.77Z" transform="translate(-10.97 -3.5)" style="fill:#374365"/><path d="M55.45,50.37a3.64,3.64,0,0,0-.7.61c-1.65.5-3.25,1.11-4.93,1.48-2.29.51-4.41-.26-6.63-.68-1.06-.19-1.51,1.43-.45,1.63,2.6.47,4.86,1.17,7.52.67a27.87,27.87,0,0,0,3.91-1.16,8.06,8.06,0,0,0,1.53-.5.79.79,0,0,0,.3-.3.57.57,0,0,0,.07-.13l.23-.17C57.14,51.17,56.31,49.71,55.45,50.37Z" transform="translate(-10.97 -3.5)" style="fill:#374365"/><path d="M59.72,56.5c-.08-1.08-1.76-1.09-1.68,0,0,.68-.88,1.37-1.32,1.78a24,24,0,0,1-3.09,2.32c-.8.54-1.63,1-2.48,1.51-1.53.85-3.51.47-5.18.45a.84.84,0,0,0,0,1.68c1.83,0,4,.38,5.68-.49a32.89,32.89,0,0,0,3.4-2.08C56.57,60.64,59.87,58.7,59.72,56.5Z" transform="translate(-10.97 -3.5)" style="fill:#374365"/></svg>