<?xml version="1.0" encoding="utf-8"?>
<!-- Generator: Adobe Illustrator 23.1.0, SVG Export Plug-In . SVG Version: 6.00 Build 0)  -->
<svg version="1.1" id="Слой_1" xmlns="http://www.w3.org/2000/svg" xmlns:xlink="http://www.w3.org/1999/xlink" x="0px" y="0px"
	 viewBox="0 0 100 100" style="enable-background:new 0 0 100 100;" xml:space="preserve">
<style type="text/css">
	.st0{fill:#DDDDDD;}
</style>
<g>
	<path class="st0" d="M86,23H14c-0.6,0-1-0.4-1-1v-3c0-0.6,0.4-1,1-1h36h36c0.6,0,1,0.4,1,1v3C87,22.6,86.6,23,86,23z"/>
</g>
<g>
	<path class="st0" d="M86,50.5H58.5H14c-0.6,0-1-0.4-1-1v-3c0-0.6,0.4-1,1-1h72c0.6,0,1,0.4,1,1v3C87,50.1,86.6,50.5,86,50.5z"/>
</g>
<g>
	<path class="st0" d="M86,78H14c-0.6,0-1-0.4-1-1v-3c0-0.6,0.4-1,1-1h72c0.6,0,1,0.4,1,1v3C87,77.6,86.6,78,86,78z"/>
</g>
</svg>
