<?xml version="1.0"?>
<svg xmlns="http://www.w3.org/2000/svg" xmlns:xlink="http://www.w3.org/1999/xlink" version="1.1" viewBox="0 0 192 192" width="128px" height="128px"><g transform=""><g fill="none" fill-rule="nonzero" stroke="none" stroke-width="1" stroke-linecap="butt" stroke-linejoin="miter" stroke-miterlimit="10" stroke-dasharray="" stroke-dashoffset="0" font-family="none" font-weight="none" font-size="none" text-anchor="none" style="mix-blend-mode: normal"><path d="M0,192v-192h192v192z" fill="none"/><g id="two_x5F_tone" fill="#ffffff"><g opacity="0.3"><path d="M167.384,87.008l-0.88,-7.008h-70.504v40h21.128c-5.728,5.056 -13.192,8 -21.128,8c-17.648,0 -32,-14.352 -32,-32c0,-17.648 14.352,-32 32,-32c7.6,0 14.784,2.728 20.76,7.88l5.632,4.848l28.248,-28.248l-6.192,-5.64c-13.32,-12.152 -30.528,-18.84 -48.448,-18.84c-39.696,0 -72,32.304 -72,72c0,39.696 32.304,72 72,72c39.696,0 72,-32.304 72,-72c0,-2.768 -0.192,-5.632 -0.616,-8.992z"/></g><path d="M175.32,86.016l-1.744,-14.016h-35.144l23.792,-23.792l-12.384,-11.288c-14.8,-13.488 -33.92,-20.92 -53.84,-20.92c-44.112,0 -80,35.888 -80,80c0,44.112 35.888,80 80,80c44.112,0 80,-35.888 80,-80c0,-3.12 -0.216,-6.288 -0.68,-9.984zM96,160c-35.344,0 -64,-28.656 -64,-64c0,-35.344 28.656,-64 64,-64c16.608,0 31.68,6.376 43.056,16.744l-17.072,17.072c-7.008,-6.032 -16.008,-9.816 -25.984,-9.816c-22.088,0 -40,17.912 -40,40c0,22.088 17.912,40 40,40c16.392,0 30.448,-9.888 36.624,-24h-28.624v-24h55.448c0.328,2.624 0.552,5.288 0.552,8c0,35.344 -28.656,64 -64,64zM88,73.368v14.632v24v6.632c-9.312,-3.304 -16,-12.2 -16,-22.632c0,-10.432 6.688,-19.328 16,-22.632z"/></g><path d="" fill="none"/><path d="" fill="none"/></g></g></svg>
