<?xml version="1.0" encoding="utf-8"?>
<!-- Generator: Adobe Illustrator 23.1.0, SVG Export Plug-In . SVG Version: 6.00 Build 0)  -->
<svg version="1.1" id="Слой_1" xmlns="http://www.w3.org/2000/svg" xmlns:xlink="http://www.w3.org/1999/xlink" x="0px" y="0px"
	 viewBox="0 0 300 60" style="enable-background:new 0 0 300 60;" xml:space="preserve">
<style type="text/css">
	.st0{fill:#FCFCFC;}
	.st1{fill:#E21414;}
	.st2{

	animation-name: liketomoveit;
	animation-duration: 2s;
	animation-timing-function: ease-in;
	animation-delay:2s;
	}
	@keyframes liketomoveit{
	0%{transform: translateX(0px);
	}
	25%{
		transform: translateX(-150px);
		transform: scale(0.8);
	}
	50% {
		transform: translateX(100px);
		transform: scale(1.4);
		transform: rotateZ(0deg);
		transform-origin:center;

	}
	100%{transform: translateX(0px);
		transform: scale(1);
		transform: rotateZ(360deg);
		transform-origin:center;
	}	
	}
</style>
<path d="M43.5,4.2v51.3h-9V12H11v43.5H2V4.2H43.5z"/>
<path d="M54.3,4.3h22.2c5.5,0,9.9,1.3,13.1,3.9c3.2,2.6,4.8,6.5,4.8,11.7c0,4.9-1.5,8.8-4.5,11.6c-3,2.9-7,4.3-12.2,4.3H63.3v19.7
	h-9V4.3z M63.3,11.8v16.8h12.5c6.5,0,9.8-2.8,9.8-8.4c0-5.6-3.5-8.4-10.6-8.4H63.3z"/>
<path d="M195.6,4.2V12h-16.3v43.5h-9V12H154V4.2H195.6z"/>
<path d="M223.6,3c7.2,0,13.1,2.5,17.7,7.5c4.5,5,6.8,11.4,6.8,19.4c0,8-2.3,14.4-6.8,19.4c-4.6,5-10.5,7.5-17.8,7.5
	c-7.3,0-13.3-2.5-17.8-7.4c-4.5-4.9-6.8-11.4-6.8-19.4c0-7.8,2.2-14.2,6.7-19.3C210,5.5,216,3,223.6,3z M223.5,10.6
	c-4.7,0-8.5,1.7-11.3,5.2c-2.8,3.5-4.2,8.1-4.2,13.9c0,6,1.4,10.7,4.2,14.2c2.8,3.5,6.6,5.3,11.5,5.3c4.7,0,8.4-1.8,11.2-5.3
	c2.8-3.5,4.2-8.2,4.2-14.1c0-5.9-1.4-10.5-4.2-14C232,12.3,228.3,10.6,223.5,10.6z"/>
<path d="M297.3,4.2v51.3h-9v-23h-23.5v23h-9V4.2h9v20.4h23.5V4.2H297.3z"/>
<path class="st0" d="M147,38.5"/>
<g id="Слой_2">
</g>
<g class="st2">
	<circle class="st1" cx="126" cy="30" r="29"/>
	<path class="st0" d="M146.4,27.7l-14.9-19c-0.4-0.5-1-0.5-1.4-0.1l-25,27.9c-0.9,1-0.2,2.1,0.8,1.4l23.8-17.6
		c0.2-0.2,0.2-0.3,0.7-0.1l15.3,8.8C146.6,29.5,147.1,28.6,146.4,27.7z"/>
</g>
</svg>
