<?xml version="1.0" encoding="utf-8"?>
<!-- Generator: Adobe Illustrator 23.1.0, SVG Export Plug-In . SVG Version: 6.00 Build 0)  -->
<svg version="1.1" id="Слой_1" xmlns="http://www.w3.org/2000/svg" xmlns:xlink="http://www.w3.org/1999/xlink" x="0px" y="0px"
	 viewBox="0 0 100 100" style="enable-background:new 0 0 100 100;" xml:space="preserve">
<style type="text/css">
	.st0{fill:#E5BD76;}
</style>
<g>
	<path class="st0" d="M73.7,75.2L22.8,24.3c-0.4-0.4-0.4-1,0-1.4l2.1-2.1c0.4-0.4,1-0.4,1.4,0l50.9,50.9c0.4,0.4,0.4,1,0,1.4
		l-2.1,2.1C74.7,75.6,74.1,75.6,73.7,75.2z"/>
</g>
<g>
	<path class="st0" d="M77.2,23.8L26.3,74.7c-0.4,0.4-1,0.4-1.4,0l-2.1-2.1c-0.4-0.4-0.4-1,0-1.4l50.9-50.9c0.4-0.4,1-0.4,1.4,0
		l2.1,2.1C77.6,22.8,77.6,23.4,77.2,23.8z"/>
</g>
</svg>
